<svg width="80" height="80" viewBox="0 0 80 80" xmlns="http://www.w3.org/2000/svg">
<path fill-rule="evenodd" clip-rule="evenodd" d="M68.0999 76.2C68.3999 76 68.6999 75.7 68.8999 75.5C69.7999 74.5 70.1999 73.2 70.0999 71.9L64.8999 24.4C64.5999 22.1 62.6999 20.3 60.2999 20.3H55.7999V18.3C55.7999 9.3 48.4999 2 39.4999 2C30.4999 2 23.2999 9.3 23.2999 18.3V20.3H18.7999C16.3999 20.3 14.4999 22.1 14.1999 24.4L8.99986 71.9C8.89986 73.2 9.29986 74.5 10.1999 75.5C11.0999 76.5 12.2999 77 13.5999 77H65.4999C66.6999 77 67.6961 76.5059 68.0999 76.2ZM39.5999 5.4C32.4999 5.4 26.6999 11.2 26.6999 18.3V20.3H52.4999V18.3C52.4999 11.2 46.6999 5.4 39.5999 5.4ZM18.7999 23.7C18.1999 23.7 17.6999 24.2 17.5999 24.8L13.5999 61.2H65.5999L61.5999 24.8C61.5999 24.2 60.9999 23.7 60.3999 23.7H55.8999V30.8C55.8999 31.7 55.0999 32.5 54.1999 32.5C53.2999 32.5 52.4999 31.7 52.4999 30.8V23.7H26.6999V30.8C26.6999 31.7 25.8999 32.5 24.9999 32.5C24.0999 32.5 23.2999 31.7 23.2999 30.8V23.7H18.7999ZM13.5999 73.6H65.5999C65.9999 73.6 66.2999 73.4 66.3999 73.2C66.5999 72.9 66.6999 72.5 66.6999 72.2L65.8999 64.5H13.1999L12.3999 72.2C12.2999 72.7 12.5999 73 12.6999 73.2C12.7999 73.3 13.0999 73.6 13.5999 73.6Z"/>
</svg>
