<svg width="80" height="80" viewBox="0 0 80 80" xmlns="http://www.w3.org/2000/svg">
<path fill-rule="evenodd" clip-rule="evenodd" d="M52.2921 13.5412C51.8516 13.1456 51.4993 12.794 51.235 12.4863C50.6624 11.9149 50.3541 9.84904 50.266 7.91506H50.4862C51.235 7.91506 51.8076 7.34365 51.8076 6.59643C51.8076 5.84921 51.235 5.2778 50.4862 5.2778H50.3101V4.09104C50.3981 3.03614 50.0458 1.98124 49.3411 1.19006C48.5923 0.398885 47.4912 -0.0406577 46.39 0.00329657H31.9432C30.8421 -0.0406577 29.785 0.35493 28.9922 1.19006C28.3316 2.02519 27.9792 3.03614 28.0232 4.09104V5.2778H27.803C27.0542 5.2778 26.4817 5.84921 26.4817 6.59643C26.4817 7.34365 27.0542 7.91506 27.803 7.91506H28.0232C27.9351 9.84904 27.6268 11.8709 27.0542 12.4863L25.9972 13.5412L25.8295 13.7084C23.1481 16.3815 18.3333 21.1815 18.3333 27.0351V69.2752C18.3333 69.7147 18.5535 80 27.4947 80H50.8386C59.7798 80 60 69.7147 60 69.2312V27.0351C60 21.1059 55.0601 16.2578 52.358 13.6059L52.2921 13.5412ZM30.9302 2.94823C31.2385 2.72846 31.5468 2.5966 31.8992 2.64055H46.39C46.7424 2.5966 47.0948 2.72846 47.359 2.94823C47.5793 3.21196 47.6674 3.56359 47.6674 3.91522V4.04709V5.2778H30.6659V4.04709V3.91522C30.6659 3.56359 30.754 3.21196 30.9302 2.94823ZM50.8386 77.3627C57.1811 77.3627 57.3573 69.3191 57.3573 69.2312V27.0351C57.3573 22.2398 53.0173 17.9116 50.6521 15.5528L50.5303 15.4312L49.3851 14.2884C48.0638 12.8819 47.7554 9.80509 47.7114 7.91506H30.71C30.6659 9.80509 30.3576 12.8819 29.0363 14.2884C28.8358 14.5171 28.598 14.7458 28.335 14.9987C28.1937 15.1346 28.0451 15.2776 27.8911 15.4312C25.4686 17.7608 20.976 22.1562 20.976 27.0351V63.0044V69.2312C20.976 69.3191 21.1522 77.3627 27.4947 77.3627H50.8386ZM49.9621 36.7655H28.3712V64.1929H49.9621V36.7655ZM25.9091 34.2894V66.669H52.4242V34.2894H25.9091ZM46.0162 42.3333H32.3171V45.6667H46.0162V42.3333ZM32.3171 49H46.0162V52.3333H32.3171V49ZM46.0162 55.6667H32.3171V59H46.0162V55.6667Z"/>
</svg>
