<svg width="80" height="80" viewBox="0 0 80 80" xmlns="http://www.w3.org/2000/svg">
<path d="M72.3916 39.3219H60.8916C62.8083 37.4323 64.0541 34.787 64.0541 31.9527V23.0719C64.0541 21.4658 65.3958 20.1431 67.025 20.1431C67.8875 20.1431 68.5583 19.4818 68.5583 18.6315V14.2855C68.5583 11.0733 65.875 8.3335 62.5208 8.3335H17.575C14.3166 8.3335 11.5375 10.9788 11.5375 14.2855V18.7259C11.5375 19.5762 12.2083 20.2376 13.0708 20.2376C14.7 20.2376 16.0416 21.5602 16.0416 23.1663V31.9527C16.0416 34.8815 17.2875 37.4323 19.2041 39.3219H7.70413C4.44579 39.3219 1.66663 41.9672 1.66663 45.2739V49.7143C1.66663 50.5646 2.33746 51.2259 3.19996 51.2259C4.82913 51.2259 6.17079 52.5486 6.17079 54.1547V63.0355C6.17079 68.7041 10.8666 73.3335 16.6166 73.3335H63.3833C69.1333 73.3335 73.8291 68.7041 73.8291 63.0355V54.1547C73.8291 52.5486 75.1708 51.2259 76.8 51.2259C77.6625 51.2259 78.3333 50.5646 78.3333 49.7143V45.2739C78.3333 41.9672 75.65 39.3219 72.3916 39.3219ZM14.5083 17.2143V14.2855C14.5083 12.6794 15.85 11.3568 17.4791 11.3568H62.425C64.0541 11.3568 65.3958 12.6794 65.3958 14.2855V17.2143H14.5083ZM46.5166 20.1431L44.4083 24.3945C43.9291 25.4338 42.875 26.0006 41.725 26.0006H38.275C37.125 26.0006 36.0708 25.3393 35.5916 24.3945L33.3875 20.1431H46.5166ZM19.0125 31.9527V23.0719C19.0125 22.0326 18.725 20.9934 18.2458 20.1431H30.1291L33.0041 25.7172C34.0583 27.7012 36.0708 29.0239 38.3708 29.0239H41.8208C44.1208 29.0239 46.1333 27.7957 47.1875 25.7172L50.0625 20.1431H61.9458C61.4666 20.9934 61.1791 22.0326 61.1791 23.0719V31.9527C61.1791 36.0152 57.825 39.3219 53.7041 39.3219H26.4875C22.3666 39.3219 19.0125 36.0152 19.0125 31.9527ZM70.8583 54.0602V62.9411C70.8583 67.0036 67.5041 70.3102 63.3833 70.3102H16.6166C12.4958 70.3102 9.14163 67.0036 9.14163 62.9411V54.0602C9.14163 53.021 8.85413 51.9818 8.37496 51.1315H25.625L28.5 56.7056C29.5541 58.6896 31.5666 60.0123 33.8666 60.0123H46.325C48.625 60.0123 50.6375 58.7841 51.6916 56.7056L54.5666 51.1315H71.8166C71.1458 51.9818 70.8583 53.021 70.8583 54.0602ZM28.9791 51.1315H51.1166L48.9125 55.3829C48.4333 56.4222 47.3791 56.989 46.2291 56.989H33.7708C32.6208 56.989 31.5666 56.3277 31.0875 55.3829L28.9791 51.1315ZM75.3625 48.2027H4.63746V45.2739C4.63746 43.6678 5.97913 42.3451 7.60829 42.3451H72.2958C73.925 42.3451 75.2666 43.6678 75.2666 45.2739V48.2027H75.3625Z"/>
</svg>
