<?xml version="1.0" encoding="utf-8"?>
<!-- Generator: Adobe Illustrator 22.1.0, SVG Export Plug-In . SVG Version: 6.00 Build 0)  -->
<svg version="1.1" id="&#x421;&#x43B;&#x43E;&#x439;_1" xmlns="http://www.w3.org/2000/svg" xmlns:xlink="http://www.w3.org/1999/xlink" x="0px" y="0px" viewBox="0 0 80 80" xml:space="preserve">

<g>
	<path class="st0" d="M10.7,12.4"/>
	<polygon class="st0" points="3,45.8 3,45.8 3.2,45.8 	"/>
	<path class="st0" d="M74.8,44.3L74.8,44.3h-3.6h-0.7v-0.7V41c0-2.4-2-4.4-4.4-4.4h-3.3h-1.3l0.7-1.1c0.6-0.8,1-1.8,1.2-2.8l0,0l0,0
		l4.9-16.9l0.1-0.5h0.5h1c0.8,0,1.5-0.7,1.5-1.5c0-0.8-0.7-1.5-1.5-1.5h0h-3.6H66v-0.7V9.1c0-2.4-2-4.4-4.4-4.4H19.3
		c-2.4,0-4.4,2-4.4,4.4v2.6v0.7h-0.7l-3.6,0c-0.8,0-1.5,0.7-1.5,1.5c0,0.8,0.7,1.5,1.5,1.5h1h0.5l0.1,0.5l4.9,16.9l0,0l0,0
		c0.2,1,0.7,2,1.2,2.8l0.7,1.1H18h-4.2c-2.4,0-4.4,2-4.4,4.4v2.6v0.7H8.7H5.2l0,0h0c-0.8,0-1.5,0.7-1.5,1.5c0,0.8,0.7,1.5,1.5,1.5h1
		h0.6l0.1,0.5l4.9,20.6c0.9,3.9,4.4,6.6,8.4,6.6h39.6c4,0,7.4-2.7,8.4-6.6l4.9-20.6l0.1-0.5h0.6h1c0.8,0,1.5-0.7,1.5-1.5
		C76.3,45,75.6,44.3,74.8,44.3z M17.9,11.7V9.1c0-0.8,0.6-1.4,1.4-1.4h42.3c0.8,0,1.4,0.6,1.4,1.4v2.6v0.7h-0.7H18.6h-0.7V11.7z
		 M19,26.6l-0.2-0.5l-3.3-9.9l-0.3-0.9h1h48.5h1l-0.3,0.9l-3.3,9.9L62,26.6h-0.5h-42H19z M61.3,29.5l-0.2,0.9l-0.4,1.7
		c-0.6,2.6-2.9,4.3-5.5,4.3H25.7c-2.6,0-4.9-1.8-5.5-4.3l-0.4-1.7l-0.2-0.9h0.9h39.9H61.3z M12.4,43.6V41c0-0.8,0.6-1.4,1.4-1.4
		h52.4c0.8,0,1.4,0.6,1.4,1.4v2.6v0.7h-0.7H13.1h-0.7V43.6z M65.3,67.7c-0.6,2.6-2.9,4.3-5.5,4.3H20.2c-2.6,0-4.9-1.8-5.5-4.3
		l-0.6-2.5H15H65h0.9L65.3,67.7z M66.6,62.2h-0.6H13.9h-0.6l-0.1-0.5L9.8,47.2h0.9h58.7h0.9L66.6,62.2z"/>
	<polygon class="st0" points="5.2,43.7 5.2,43.6 5.2,43.6 5.2,43.7 	"/>
</g>
</svg>
