<svg width="80" height="80" viewBox="0 0 80 80" xmlns="http://www.w3.org/2000/svg">
<path fill-rule="evenodd" clip-rule="evenodd" d="M10.7156 11.6875L10.7106 11.6877C9.51696 11.6905 8.55005 12.6588 8.54991 13.8531C8.54991 15.0491 9.51942 16.0186 10.7154 16.0186H11.7507L16.6978 32.9176C16.9621 34.018 17.4126 35.0313 18.0115 35.9277H13.7861C10.9932 35.9277 8.72099 38.1998 8.72099 40.9928V43.6151H5.16553L5.16061 43.6154C3.96693 43.6182 3.00002 44.5865 2.99988 45.7808C2.99988 46.9768 3.96939 47.9463 5.16538 47.9463H6.20066L11.1478 68.5453C12.1555 72.7419 15.8738 75.673 20.1898 75.673H59.8098C64.1261 75.673 67.8443 72.7419 68.8521 68.5453L73.7991 47.9463H74.8344C76.0304 47.9463 76.9999 46.9768 76.9999 45.7808C76.9999 44.5865 76.033 43.6179 74.8391 43.6151H74.8342H71.2788V40.9928C71.2788 38.1998 69.0067 35.9277 66.2138 35.9277H62.9134C63.5122 35.0313 63.9628 34.018 64.2271 32.9176L69.1741 16.0186H70.2094C71.4054 16.0186 72.3749 15.0491 72.3749 13.8531C72.3749 12.6588 71.408 11.6902 70.2141 11.6875H70.2092H66.6538V9.06509C66.6538 6.27217 64.3817 4 61.5888 4H19.3361C16.5432 4 14.271 6.27217 14.271 9.06509V11.6875H10.7156ZM61.5888 8.33116C61.9937 8.33116 62.3228 8.6604 62.3228 9.06523V11.6876H18.6022V9.06523C18.6022 8.6604 18.9314 8.33116 19.3362 8.33116H61.5888ZM25.74 35.7143C23.4341 35.7143 21.4477 34.1483 20.9093 31.9065L20.5059 30.2269H60.4193L60.0159 31.9063C59.4774 34.1483 57.4909 35.7143 55.1849 35.7143H25.74ZM61.4593 25.8957H19.4657L16.2053 16.0188H64.7199L61.4593 25.8957ZM66.2138 40.2588C66.6187 40.2588 66.9477 40.5881 66.9477 40.9929V43.6153H13.0521V40.9929C13.0521 40.5881 13.3814 40.2588 13.7862 40.2588H66.2138ZM20.19 71.342C17.8841 71.342 15.8977 69.776 15.3593 67.5341L14.9559 65.8545H65.0443L64.6409 67.534C64.1024 69.776 62.1159 71.342 59.8099 71.342H20.19ZM66.0843 61.5234H13.9157L10.6553 47.9464H69.3449L66.0843 61.5234Z"/>
<path d="M10.7106 11.6877L10.7122 12.3877L10.732 12.3877L10.7518 12.3865L10.7106 11.6877ZM10.7156 11.6875V10.9875H10.695L10.6744 10.9887L10.7156 11.6875ZM8.54991 13.8531L7.84991 13.853V13.8531H8.54991ZM11.7507 16.0186L12.4225 15.8219L12.2751 15.3186H11.7507V16.0186ZM16.6978 32.9176L17.3785 32.7542L17.3745 32.7374L17.3696 32.7209L16.6978 32.9176ZM18.0115 35.9277V36.6277H19.321L18.5935 35.5388L18.0115 35.9277ZM8.72099 43.6151V44.3151H9.42099V43.6151H8.72099ZM5.16553 43.6151V42.9151H5.14492L5.12434 42.9163L5.16553 43.6151ZM5.16061 43.6154L5.16222 44.3154L5.18203 44.3154L5.2018 44.3142L5.16061 43.6154ZM2.99988 45.7808L2.29988 45.7807V45.7808H2.99988ZM6.20066 47.9463L6.8813 47.7828L6.75245 47.2463H6.20066V47.9463ZM11.1478 68.5453L11.8285 68.3818L11.8285 68.3818L11.1478 68.5453ZM68.8521 68.5453L68.1714 68.3818L68.8521 68.5453ZM73.7991 47.9463V47.2463H73.2473L73.1184 47.7828L73.7991 47.9463ZM74.8391 43.6151L74.8408 42.9151H74.8391V43.6151ZM71.2788 43.6151H70.5788V44.3151H71.2788V43.6151ZM62.9134 35.9277L62.3313 35.5388L61.6038 36.6277H62.9134V35.9277ZM64.2271 32.9176L63.5553 32.7209L63.5505 32.7374L63.5464 32.7541L64.2271 32.9176ZM69.1741 16.0186V15.3186H68.6496L68.5023 15.822L69.1741 16.0186ZM70.2141 11.6875L70.2158 10.9875H70.2141V11.6875ZM66.6538 11.6875H65.9538V12.3875H66.6538V11.6875ZM14.271 11.6875V12.3875H14.971V11.6875H14.271ZM62.3228 11.6876V12.3876H63.0228V11.6876H62.3228ZM18.6022 11.6876H17.9022V12.3876H18.6022V11.6876ZM20.9093 31.9065L21.59 31.743L21.59 31.743L20.9093 31.9065ZM20.5059 30.2269V29.5269H19.6179L19.8253 30.3903L20.5059 30.2269ZM60.4193 30.2269L61.0999 30.3903L61.3073 29.5269H60.4193V30.2269ZM60.0159 31.9063L60.6965 32.0698V32.0698L60.0159 31.9063ZM19.4657 25.8957L18.801 26.1151L18.9597 26.5957H19.4657V25.8957ZM61.4593 25.8957V26.5957H61.9654L62.124 26.1151L61.4593 25.8957ZM16.2053 16.0188V15.3188H15.237L15.5406 16.2382L16.2053 16.0188ZM64.7199 16.0188L65.3847 16.2382L65.6882 15.3188H64.7199V16.0188ZM66.9477 43.6153V44.3153H67.6477V43.6153H66.9477ZM13.0521 43.6153H12.3521V44.3153H13.0521V43.6153ZM15.3593 67.5341L16.0399 67.3707L16.0399 67.3707L15.3593 67.5341ZM14.9559 65.8545V65.1545H14.0679L14.2753 66.018L14.9559 65.8545ZM65.0443 65.8545L65.7249 66.018L65.9323 65.1545H65.0443V65.8545ZM64.6409 67.534L65.3215 67.6975V67.6975L64.6409 67.534ZM13.9157 61.5234L13.2351 61.6868L13.3639 62.2234H13.9157V61.5234ZM66.0843 61.5234V62.2234H66.6361L66.765 61.6868L66.0843 61.5234ZM10.6553 47.9464V47.2464H9.76724L9.9746 48.1099L10.6553 47.9464ZM69.3449 47.9464L70.0256 48.1099L70.233 47.2464H69.3449V47.9464ZM10.7518 12.3865L10.7567 12.3862L10.6744 10.9887L10.6695 10.989L10.7518 12.3865ZM9.24991 13.8532C9.25 13.045 9.90435 12.3896 10.7122 12.3877L10.709 10.9877C9.12957 10.9914 7.8501 12.2727 7.84991 13.853L9.24991 13.8532ZM10.7154 15.3186C9.90602 15.3186 9.24991 14.6625 9.24991 13.8531H7.84991C7.84991 15.4357 9.13281 16.7186 10.7154 16.7186V15.3186ZM11.7507 15.3186H10.7154V16.7186H11.7507V15.3186ZM17.3696 32.7209L12.4225 15.8219L11.0789 16.2153L16.026 33.1143L17.3696 32.7209ZM18.5935 35.5388C18.0401 34.7105 17.6232 33.7733 17.3785 32.7542L16.0172 33.081C16.3009 34.2626 16.7851 35.3522 17.4294 36.3165L18.5935 35.5388ZM13.7861 36.6277H18.0115V35.2277H13.7861V36.6277ZM9.42099 40.9928C9.42099 38.5864 11.3798 36.6277 13.7861 36.6277V35.2277C10.6066 35.2277 8.02099 37.8133 8.02099 40.9928H9.42099ZM9.42099 43.6151V40.9928H8.02099V43.6151H9.42099ZM5.16553 44.3151H8.72099V42.9151H5.16553V44.3151ZM5.2018 44.3142L5.20672 44.3139L5.12434 42.9163L5.11942 42.9166L5.2018 44.3142ZM3.69988 45.7809C3.69998 44.9727 4.35432 44.3173 5.16222 44.3154L5.159 42.9154C3.57954 42.9191 2.30007 44.2003 2.29988 45.7807L3.69988 45.7809ZM5.16538 47.2463C4.35599 47.2463 3.69988 46.5902 3.69988 45.7808H2.29988C2.29988 47.3634 3.58278 48.6463 5.16538 48.6463V47.2463ZM6.20066 47.2463H5.16538V48.6463H6.20066V47.2463ZM11.8285 68.3818L6.8813 47.7828L5.52001 48.1098L10.4672 68.7087L11.8285 68.3818ZM20.1898 74.973C16.1974 74.973 12.7606 72.2637 11.8285 68.3818L10.4672 68.7087C11.5504 73.22 15.5502 76.373 20.1898 76.373V74.973ZM59.8098 74.973H20.1898V76.373H59.8098V74.973ZM68.1714 68.3818C67.2392 72.2637 63.8024 74.973 59.8098 74.973V76.373C64.4497 76.373 68.4493 73.22 69.5327 68.7087L68.1714 68.3818ZM73.1184 47.7828L68.1714 68.3818L69.5327 68.7087L74.4797 48.1098L73.1184 47.7828ZM74.8344 47.2463H73.7991V48.6463H74.8344V47.2463ZM76.2999 45.7808C76.2999 46.5902 75.6438 47.2463 74.8344 47.2463V48.6463C76.417 48.6463 77.6999 47.3634 77.6999 45.7808H76.2999ZM74.8375 44.3151C75.6455 44.317 76.2999 44.9726 76.2999 45.7808H77.6999C77.6999 44.2004 76.4204 42.9188 74.8408 42.9151L74.8375 44.3151ZM74.8342 44.3151H74.8391V42.9151H74.8342V44.3151ZM71.2788 44.3151H74.8342V42.9151H71.2788V44.3151ZM70.5788 40.9928V43.6151H71.9788V40.9928H70.5788ZM66.2138 36.6277C68.6201 36.6277 70.5788 38.5864 70.5788 40.9928H71.9788C71.9788 37.8133 69.3934 35.2277 66.2138 35.2277V36.6277ZM62.9134 36.6277H66.2138V35.2277H62.9134V36.6277ZM63.5464 32.7541C63.3017 33.7733 62.8848 34.7105 62.3313 35.5388L63.4954 36.3166C64.1397 35.3522 64.624 34.2626 64.9077 33.0811L63.5464 32.7541ZM68.5023 15.822L63.5553 32.7209L64.8989 33.1143L69.8459 16.2153L68.5023 15.822ZM70.2094 15.3186H69.1741V16.7186H70.2094V15.3186ZM71.6749 13.8531C71.6749 14.6625 71.0188 15.3186 70.2094 15.3186V16.7186C71.792 16.7186 73.0749 15.4357 73.0749 13.8531H71.6749ZM70.2125 12.3875C71.0205 12.3893 71.6749 13.0449 71.6749 13.8531H73.0749C73.0749 12.2728 71.7954 10.9911 70.2158 10.9875L70.2125 12.3875ZM70.2092 12.3875H70.2141V10.9875H70.2092V12.3875ZM66.6538 12.3875H70.2092V10.9875H66.6538V12.3875ZM65.9538 9.06509V11.6875H67.3538V9.06509H65.9538ZM61.5888 4.7C63.9951 4.7 65.9538 6.65875 65.9538 9.06509H67.3538C67.3538 5.8856 64.7684 3.3 61.5888 3.3V4.7ZM19.3361 4.7H61.5888V3.3H19.3361V4.7ZM14.971 9.06509C14.971 6.65877 16.9298 4.7 19.3361 4.7V3.3C16.1566 3.3 13.571 5.88557 13.571 9.06509H14.971ZM14.971 11.6875V9.06509H13.571V11.6875H14.971ZM10.7156 12.3875H14.271V10.9875H10.7156V12.3875ZM63.0228 9.06523C63.0228 8.27398 62.3804 7.63116 61.5888 7.63116V9.03116C61.5944 9.03116 61.5981 9.03215 61.6012 9.03347C61.6048 9.03498 61.6088 9.03754 61.6126 9.04129C61.6163 9.04505 61.6189 9.04908 61.6204 9.0527C61.6217 9.05586 61.6227 9.05965 61.6227 9.06523H63.0228ZM63.0228 11.6876V9.06523H61.6227V11.6876H63.0228ZM18.6022 12.3876H62.3228V10.9876H18.6022V12.3876ZM17.9022 9.06523V11.6876H19.3022V9.06523H17.9022ZM19.3362 7.63116C18.5448 7.63116 17.9022 8.2738 17.9022 9.06523H19.3022C19.3022 9.05969 19.3032 9.05593 19.3045 9.05279C19.306 9.04918 19.3086 9.04513 19.3124 9.04136C19.3161 9.03759 19.3202 9.03501 19.3238 9.03348C19.3269 9.03215 19.3307 9.03116 19.3362 9.03116V7.63116ZM61.5888 7.63116H19.3362V9.03116H61.5888V7.63116ZM20.2287 32.0699C20.8426 34.6264 23.1105 36.4143 25.74 36.4143V35.0143C23.7578 35.0143 22.0528 33.6701 21.59 31.743L20.2287 32.0699ZM19.8253 30.3903L20.2287 32.0699L21.59 31.743L21.1866 30.0634L19.8253 30.3903ZM60.4193 29.5269H20.5059V30.9269H60.4193V29.5269ZM60.6965 32.0698L61.0999 30.3903L59.7386 30.0634L59.3353 31.7428L60.6965 32.0698ZM55.1849 36.4143C57.8146 36.4143 60.0824 34.6264 60.6965 32.0698L59.3353 31.7428C58.8723 33.6701 57.1673 35.0143 55.1849 35.0143V36.4143ZM25.74 36.4143H55.1849V35.0143H25.74V36.4143ZM19.4657 26.5957H61.4593V25.1957H19.4657V26.5957ZM15.5406 16.2382L18.801 26.1151L20.1305 25.6763L16.87 15.7993L15.5406 16.2382ZM64.7199 15.3188H16.2053V16.7188H64.7199V15.3188ZM62.124 26.1151L65.3847 16.2382L64.0552 15.7993L60.7946 25.6763L62.124 26.1151ZM67.6477 40.9929C67.6477 40.2017 67.0054 39.5588 66.2138 39.5588V40.9588C66.2194 40.9588 66.2231 40.9598 66.2262 40.9611C66.2298 40.9627 66.2338 40.9652 66.2376 40.969C66.2413 40.9727 66.2439 40.9768 66.2454 40.9804C66.2467 40.9835 66.2477 40.9873 66.2477 40.9929H67.6477ZM67.6477 43.6153V40.9929H66.2477V43.6153H67.6477ZM13.0521 44.3153H66.9477V42.9153H13.0521V44.3153ZM12.3521 40.9929V43.6153H13.7521V40.9929H12.3521ZM13.7862 39.5588C12.9948 39.5588 12.3521 40.2015 12.3521 40.9929H13.7521C13.7521 40.9874 13.7531 40.9836 13.7545 40.9805C13.756 40.9769 13.7586 40.9728 13.7623 40.969C13.7661 40.9653 13.7702 40.9627 13.7738 40.9612C13.7769 40.9598 13.7807 40.9588 13.7862 40.9588V39.5588ZM66.2138 39.5588H13.7862V40.9588H66.2138V39.5588ZM14.6786 67.6976C15.2926 70.2541 17.5605 72.042 20.19 72.042V70.642C18.2077 70.642 16.5027 69.2978 16.0399 67.3707L14.6786 67.6976ZM14.2753 66.018L14.6786 67.6976L16.0399 67.3707L15.6366 65.6911L14.2753 66.018ZM65.0443 65.1545H14.9559V66.5545H65.0443V65.1545ZM65.3215 67.6975L65.7249 66.018L64.3636 65.6911L63.9602 67.3705L65.3215 67.6975ZM59.8099 72.042C62.4396 72.042 64.7074 70.2541 65.3215 67.6975L63.9602 67.3705C63.4973 69.2978 61.7923 70.642 59.8099 70.642V72.042ZM20.19 72.042H59.8099V70.642H20.19V72.042ZM13.9157 62.2234H66.0843V60.8234H13.9157V62.2234ZM9.9746 48.1099L13.2351 61.6868L14.5964 61.3599L11.3359 47.783L9.9746 48.1099ZM69.3449 47.2464H10.6553V48.6464H69.3449V47.2464ZM66.765 61.6868L70.0256 48.1099L68.6643 47.783L65.4037 61.3599L66.765 61.6868Z"/>
</svg>
