<svg width="38" height="38" viewBox="0 0 38 38" xmlns="http://www.w3.org/2000/svg">
<path d="M37.0056 25.8037L33.695 20.0681C32.968 20.9097 31.9813 21.4794 30.8648 21.6865L34.1883 27.4221C34.7855 28.4579 34.9024 29.3901 34.5129 30.0504C34.1234 30.7107 33.2536 31.0862 32.0592 31.0862H21.1019L21.9847 30.2187C22.2833 29.908 22.4651 29.5066 22.4651 29.0664C22.4651 28.6262 22.2963 28.2248 21.9847 27.9141C21.3615 27.3056 20.297 27.3056 19.6868 27.9141L16.0257 31.5652C15.3895 32.1996 15.3895 33.2354 16.0257 33.8569L19.6868 37.508C19.9984 37.8058 20.4008 37.987 20.8422 37.987C21.2836 37.987 21.6861 37.8187 21.9977 37.508C22.6338 36.8736 22.6338 35.8378 21.9977 35.2034L21.1149 34.3359H32.0592C34.435 34.3359 36.3434 33.3649 37.3301 31.6817C38.3038 29.9986 38.187 27.8494 37.0056 25.8037Z"/>
<path d="M9.28777 17.9577L9.59935 19.1489C9.82005 19.9904 10.7288 20.5213 11.5987 20.3012C12.0141 20.1846 12.3646 19.9127 12.5853 19.5373C12.7931 19.1618 12.858 18.7216 12.7411 18.3073L11.4039 13.3226C11.1832 12.4811 10.2744 11.9632 9.40461 12.1833L4.40632 13.5168C3.97789 13.6334 3.64035 13.9052 3.41964 14.2678C3.19894 14.6432 3.14701 15.0834 3.25087 15.4977C3.47157 16.3523 4.38035 16.8702 5.25019 16.65L6.44458 16.3264L0.97892 25.8037C-0.202495 27.8494 -0.319338 29.9986 0.654355 31.6817C1.64103 33.3778 3.54947 34.3359 5.92528 34.3359H12.5334C12.1699 33.2872 12.1699 32.1349 12.5334 31.0862H5.92528C4.73088 31.0862 3.86105 30.7107 3.47157 30.0504C3.0821 29.3771 3.19894 28.4449 3.79614 27.4221L9.28777 17.9577Z"/>
<path d="M32.7212 11.1087C32.5005 10.7332 32.15 10.4743 31.7346 10.3578C30.8907 10.1506 29.9689 10.6555 29.7352 11.5101L29.4237 12.7012L23.945 3.2368C22.7506 1.17819 20.959 0 18.9987 0C17.0383 0 15.2337 1.17819 14.0523 3.22385L10.7288 8.95945C11.8453 9.16661 12.8319 9.73629 13.559 10.5779L16.8695 4.84225C18.0639 2.78365 19.9204 2.78365 21.1148 4.84225L26.5935 14.3066L25.3991 13.983C24.5422 13.7629 23.6334 14.2808 23.3998 15.1353C23.1661 16.0027 23.6854 16.8961 24.5552 17.1291L29.5535 18.4627C29.6963 18.5015 29.8261 18.5145 29.9819 18.5145C30.7219 18.5145 31.3581 18.0225 31.5528 17.3104L32.89 12.3257C33.0069 11.9244 32.9419 11.4842 32.7212 11.1087Z"/>
</svg>
