<svg width="80" height="80" viewBox="0 0 80 80" xmlns="http://www.w3.org/2000/svg">
<g clip-path="url(#clip0)">
<path d="M14.8874 32.3982C13.6261 45.7014 12.0495 68.9819 12.2072 70.724C12.6802 74.2081 16.6216 75 17.8829 75C19.1441 75 23.0856 74.2081 23.5586 70.8824C23.8739 69.1403 22.2973 45.8597 20.8784 32.3982C24.0315 31.9231 25.7658 30.3394 25.7658 27.9638V6.42534C26.0811 5.63348 25.4505 5 24.6622 5C23.8739 5 23.2432 5.63348 23.2432 6.42534V24.0045H21.509V6.42534C21.509 5.63348 20.8784 5 20.0901 5C19.3018 5 18.6712 5.63348 18.6712 6.42534V24.0045H17.0946V6.42534C17.0946 5.63348 16.464 5 15.6757 5C14.8874 5 14.2568 5.63348 14.2568 6.42534V24.0045H12.6802V6.42534C12.6802 5.63348 12.2072 5 11.4189 5C10.6306 5 10 5.63348 10 6.42534V27.9638C10 30.3394 11.8919 31.9231 14.8874 32.3982ZM21.036 70.4072C20.7207 71.991 18.0405 72.3077 18.0405 72.3077C18.0405 72.3077 15.3604 72.1493 15.045 70.4072C14.8874 68.6652 16.3063 46.6516 17.7252 32.5566H18.3559C19.7748 46.6516 21.1937 68.8235 21.036 70.4072ZM23.2432 26.6968V27.9638C23.2432 29.2308 21.509 29.7059 20.2477 29.7059H19.6171H16.464H15.8333C13.9414 29.5475 12.6802 28.914 12.6802 27.9638V26.6968H23.2432Z"/>
<path d="M35.8559 48.0769C35.2253 57.2624 34.437 69.457 34.5946 70.724C35.0676 74.2081 39.0091 75 40.2703 75C41.5316 75 45.473 74.2081 45.946 70.8823C46.2613 69.2986 45 53.1448 44.6847 48.0769H44.8424C45.6307 48.0769 46.2613 47.4434 46.2613 46.6516C46.2613 46.4932 46.2613 46.3348 46.2613 46.1765L44.8424 8.64252C44.5271 6.90044 42.6352 5.4751 40.5856 5.4751C39.3244 5.4751 35.3829 5.95021 34.2793 12.9185C33.3334 18.9366 32.5451 27.1719 34.5946 46.9683C34.5946 47.6018 35.2253 48.0769 35.8559 48.0769ZM43.4235 70.4072C43.1082 71.9909 40.428 72.1493 40.428 72.1493C40.428 72.1493 37.7478 71.9909 37.4325 70.2489C37.2748 69.2986 37.9054 59.3213 38.6937 48.0769H42.0045C42.9505 60.4299 43.4235 69.457 43.4235 70.4072ZM36.9595 13.2353C37.4325 10.0679 38.6937 8.16741 40.5856 8.16741C41.5316 8.16741 42.1622 8.64252 42.1622 8.80089L43.4235 45.2262H43.2658H37.4325H37.1172C35.3829 26.8552 36.1712 19.095 36.9595 13.2353Z"/>
<path d="M57.1397 31.9231C55.8784 45.2262 54.1442 68.8235 54.4595 70.724C54.9325 74.2081 58.8739 75 60.1352 75C61.3964 75 65.3379 74.2081 65.8109 70.8824C66.1262 69.1403 64.3919 45.2262 63.1307 31.9231C66.2838 30.6561 68.1757 27.4887 68.1757 22.8959C68.3334 17.5113 65.6532 5 60.2928 5C54.9325 5 52.2523 17.5113 52.2523 22.8959C52.0946 27.6471 53.9865 30.8145 57.1397 31.9231ZM60.6082 32.5566C62.0271 47.4434 63.446 68.9819 63.2883 70.5656C62.973 72.1493 60.2928 72.3077 60.2928 72.3077C60.2928 72.3077 57.6127 72.1493 57.2974 70.4072C57.1397 68.8235 58.5586 47.4434 59.9775 32.5566H60.6082ZM60.2928 7.85068C62.5001 7.85068 65.6532 16.7195 65.6532 22.8959C65.6532 27.3303 63.7613 29.7059 60.2928 29.7059C55.8784 29.7059 54.9325 25.905 54.9325 22.8959C54.9325 16.7195 58.0856 7.85068 60.2928 7.85068Z"/>
</g>
<defs>
<clipPath id="clip0">
<rect width="58.3333" height="70" transform="translate(10 5)"/>
</clipPath>
</defs>
</svg>
