<svg width="80" height="80" viewBox="0 0 80 80" xmlns="http://www.w3.org/2000/svg">
<path d="M75.2964 52.7338L75.296 52.733C74.7828 51.6184 73.4469 51.1058 72.2895 51.6281L72.288 51.6288L42.7856 64.8245L42.6152 64.9007L42.4366 64.8466L7.44026 54.2503L7.43795 54.2496C6.23859 53.8801 4.96665 54.552 4.60107 55.7243L4.60099 55.7246C4.2372 56.889 4.89933 58.1373 6.10179 58.5028L75.2964 52.7338ZM75.2964 52.7338C75.8116 53.8472 75.3154 55.1652 74.173 55.6747L74.1726 55.6749L43.7121 69.2983L43.7108 69.2989C43.4139 69.4327 43.0936 69.5 42.7698 69.5C42.5457 69.5 42.3199 69.4666 42.0992 69.4011C42.0988 69.401 42.0985 69.4009 42.0981 69.4008L6.10223 58.5029L75.2964 52.7338ZM42.4366 53.9479L42.6152 54.0019L42.7856 53.9257L72.2873 40.7304C72.2874 40.7303 72.2875 40.7303 72.2876 40.7303C73.4479 40.2135 74.7814 40.7215 75.2964 41.835L75.2964 41.835C75.8113 42.9478 75.316 44.2639 74.1723 44.7763L43.7121 58.3996L43.7108 58.4002C43.4139 58.534 43.0936 58.6012 42.7698 58.6012C42.5458 58.6012 42.3202 58.5679 42.0996 58.5025C42.0991 58.5024 42.0986 58.5022 42.0981 58.5021L6.10223 47.6042C6.10217 47.6042 6.10211 47.6041 6.10204 47.6041C4.89854 47.2384 4.2351 45.9898 4.60073 44.8267L4.60081 44.8264C4.9691 43.6526 6.23926 42.9816 7.43795 43.3508L7.44026 43.3515L42.4366 53.9479ZM26.1028 24.1449L26.1029 24.1448C28.132 23.3029 29.7177 22.3215 30.7696 20.5585C31.8103 18.8141 32.2846 16.3771 32.2846 12.7243C32.2846 12.0439 32.6023 11.3972 33.1499 10.9764L33.1509 10.9757C33.6992 10.5521 34.4155 10.4008 35.0983 10.5647C35.0984 10.5647 35.0986 10.5648 35.0988 10.5648L70.9275 19.2508C71.9438 19.4975 72.6527 20.3935 72.6527 21.4106V21.8248V21.8249C72.6541 25.8849 72.6471 29.1143 71.4446 31.8569C70.2609 34.5566 67.879 36.8538 62.9342 38.9045C56.2787 41.6643 44.1193 47.3086 43.7396 47.4884C43.4373 47.6305 43.1031 47.7025 42.7698 47.7025C42.5457 47.7025 42.3198 47.6691 42.0991 47.6036C42.0988 47.6035 42.0985 47.6034 42.0981 47.6033L6.10212 36.7054C5.18613 36.4274 4.55123 35.6189 4.50402 34.6899C4.45681 33.7609 5.00515 32.8959 5.88603 32.5285C5.88611 32.5284 5.88619 32.5284 5.88627 32.5284L26.1028 24.1449ZM14.6737 33.7166L13.3828 34.252L14.7203 34.657L42.4116 43.0436L42.5938 43.0988L42.7666 43.0189C45.8476 41.593 55.3918 37.2025 61.1628 34.8093L61.1629 34.8093C64.242 33.5322 66.0328 32.3548 67.0102 30.6039C67.9733 28.8786 68.0924 26.6791 68.1089 23.5494L68.111 23.154L67.7268 23.0609L37.294 15.6797L36.7333 15.5437L36.6784 16.118C36.4159 18.8644 35.7595 21.2437 34.4131 23.2543C33.07 25.26 31.0122 26.9406 27.8742 28.2427C27.8741 28.2428 27.8741 28.2428 27.874 28.2428L14.6737 33.7166Z" stroke="#F3F8ED"/>
</svg>
