<?xml version="1.0" encoding="utf-8"?>
<!-- Generator: Adobe Illustrator 22.1.0, SVG Export Plug-In . SVG Version: 6.00 Build 0)  -->
<svg version="1.1" id="&#x421;&#x43B;&#x43E;&#x439;_1" xmlns="http://www.w3.org/2000/svg" xmlns:xlink="http://www.w3.org/1999/xlink" x="0px" y="0px" viewBox="0 0 80 80" xml:space="preserve">

<g>
	<path class="st0" d="M75.4,54.4c0.2-0.6,0.2-1.2-0.1-1.7v0c-0.5-1.1-1.9-1.6-3-1.1L42.6,64.9l-0.2-0.1l-35-10.6
		c-0.2-0.1-0.5-0.1-0.7-0.1c-1,0-1.9,0.6-2.2,1.6c-0.2,0.6-0.1,1.2,0.2,1.7c0.3,0.5,0.8,0.9,1.3,1.1l36,10.9
		c0.5,0.2,1.1,0.1,1.6-0.1l30.5-13.6C74.7,55.4,75.1,55,75.4,54.4z"/>
	<path class="st0" d="M72.3,40.7L42.6,54l-0.2-0.1l-35-10.6c-0.2-0.1-0.5-0.1-0.7-0.1c-1,0-1.9,0.6-2.2,1.6
		c-0.2,0.6-0.1,1.2,0.2,1.7C5,47,5.5,47.4,6.1,47.6l36,10.9c0.5,0.2,1.1,0.1,1.6-0.1l30.5-13.6c0.6-0.3,1-0.7,1.2-1.3
		c0.2-0.5,0.2-1.1-0.1-1.7C74.8,40.7,73.4,40.2,72.3,40.7z"/>
	<path class="st0" d="M32.3,12.7c0,7.5-2.1,9.7-6.2,11.4L5.9,32.5c-0.9,0.4-1.4,1.2-1.4,2.2c0,0.9,0.7,1.7,1.6,2l36,10.9
		c0.5,0.2,1.1,0.1,1.6-0.1c0.1,0,12.5-5.8,19.2-8.6c9.7-4,9.7-8.9,9.7-17.1v-0.4c0-1-0.7-1.9-1.7-2.2l-35.8-8.7
		c-0.2,0-0.4-0.1-0.5-0.1c-0.5,0-1,0.2-1.4,0.5C32.6,11.4,32.3,12,32.3,12.7z M36.7,16.1l0.1-0.6l31.4,7.6l0,0.4
		c0,6.7-0.7,8.7-6.9,11.3c-6.1,2.5-16.4,7.3-18.4,8.2l-0.2,0.1L42.4,43l-29-8.8l14.5-6C33.5,25.9,36.1,22.3,36.7,16.1z"/>
</g>
</svg>
