<svg width="80" height="80" viewBox="0 0 80 80" xmlns="http://www.w3.org/2000/svg">
<path fill-rule="evenodd" clip-rule="evenodd" d="M5.27236 3.3335C4.4735 3.3335 3.82583 3.97398 3.82583 4.76399C3.82583 5.55399 4.4735 6.19448 5.27236 6.19448H7.78734L9.53072 23.6647L9.47112 23.7833C4.43757 33.8028 0 44.8601 0 55.9872V61.7674C0 64.6419 2.36559 66.9813 5.27236 66.9813H32.0532C34.96 66.9813 37.3256 64.6419 37.3256 61.7674V55.9858C37.3256 42.221 32.6833 33.1874 28.8756 25.7781C28.5271 25.0999 28.1856 24.4353 27.8552 23.7819L27.795 23.6628L29.5382 6.19448H32.0532C32.8521 6.19448 33.4997 5.55399 33.4997 4.76399C33.4997 3.97398 32.8521 3.3335 32.0532 3.3335H5.27236ZM10.6945 6.19448H26.6311L25.7839 14.6837H11.5416L10.6945 6.19448ZM11.8272 17.5447H25.4984L24.8749 23.7927C24.8482 24.0613 24.8986 24.3318 25.0206 24.5728C25.57 25.6595 26.0678 26.6381 26.5219 27.5308C29.2625 32.9188 30.4128 35.1803 31.7391 39.224L32.257 40.8033L30.9896 39.7145C26.9913 36.2799 21.7375 36.3393 17.7835 39.9053C16.3386 41.2085 14.6913 41.8823 13.0195 41.8823C11.3476 41.8823 9.7004 41.2085 8.25546 39.9053C7.71709 39.4198 7.15008 38.9977 6.56087 38.6375L6.24177 38.4424L6.36611 38.0923C8.11099 33.1799 10.2804 28.5782 12.3056 24.5731C12.4348 24.3178 12.4815 24.0347 12.4476 23.7598L12.4463 23.7492L11.8272 17.5447ZM34.4324 55.9857C34.4324 52.146 34.0103 48.305 33.1898 44.5493L33.1348 44.2976L32.8893 44.2118C31.5977 43.7604 30.381 43.0292 29.261 42.0192C27.8161 40.7161 26.1688 40.0423 24.497 40.0423C22.8251 40.0423 21.1779 40.7161 19.733 42.0192C17.7101 43.8437 15.3569 44.7421 13.0195 44.7421C9.43197 44.7421 7.10347 42.7186 6.15459 41.894C6.03965 41.7941 5.9445 41.7115 5.8703 41.6525L5.32633 41.2206L5.13064 41.8828C3.78132 46.4487 2.89306 51.2204 2.89306 55.9872V61.7674C2.89306 63.0652 3.96 64.1203 5.27236 64.1203H32.0532C33.3656 64.1203 34.4325 63.0652 34.4325 61.7674L34.4324 55.9857Z"/>
<path fill-rule="evenodd" clip-rule="evenodd" d="M40.8235 47.5844C40.8235 45.2789 42.7012 43.4593 44.9574 43.4593H75.8661C78.1222 43.4593 80 45.2789 80 47.5844C80 49.5055 78.6942 51.091 76.9548 51.5647L74.8266 70.9669C74.4684 74.233 71.6963 76.6668 68.4412 76.6668H52.2726C49.0694 76.6668 46.3255 74.3083 45.9037 71.1036L43.3058 51.367C41.8569 50.7356 40.8235 49.2915 40.8235 47.5844ZM44.9574 46.3778C44.2419 46.3778 43.7108 46.9453 43.7108 47.5844C43.7108 48.2236 44.2419 48.791 44.9574 48.791H75.8661C76.5815 48.791 77.1126 48.2236 77.1126 47.5844C77.1126 46.9453 76.5815 46.3778 75.8661 46.3778H44.9574ZM46.2637 51.7096L48.7658 70.7185C48.991 72.4295 50.4734 73.7483 52.2726 73.7483H68.4412C70.2699 73.7483 71.7658 72.3876 71.9569 70.6452L74.0339 51.7096H46.2637Z"/>
</svg>
