<svg xmlns="http://www.w3.org/2000/svg" xmlns:xlink="http://www.w3.org/1999/xlink" width="512" height="11682" viewBox="0 0 512 11682"><svg viewBox="0 0 492 492" width="492" height="492" id="arrow-conner-left" y="0"><path d="M464.344 207.418l.768.168H135.888l103.496-103.724c5.068-5.064 7.848-11.924 7.848-19.124 0-7.2-2.78-14.012-7.848-19.088L223.28 49.538c-5.064-5.064-11.812-7.864-19.008-7.864-7.2 0-13.952 2.78-19.016 7.844L7.844 226.914C2.76 231.998-.02 238.77 0 245.974c-.02 7.244 2.76 14.02 7.844 19.096l177.412 177.412c5.064 5.06 11.812 7.844 19.016 7.844 7.196 0 13.944-2.788 19.008-7.844l16.104-16.112c5.068-5.056 7.848-11.808 7.848-19.008 0-7.196-2.78-13.592-7.848-18.652L134.72 284.406h329.992c14.828 0 27.288-12.78 27.288-27.6v-22.788c0-14.82-12.828-26.6-27.656-26.6z"></path></svg><svg viewBox="0 0 492.004 492.004" width="492.004" height="492.004" id="arrow-conner-right" y="492"><path d="M484.14 226.886L306.46 49.202c-5.072-5.072-11.832-7.856-19.04-7.856-7.216 0-13.972 2.788-19.044 7.856l-16.132 16.136c-5.068 5.064-7.86 11.828-7.86 19.04 0 7.208 2.792 14.2 7.86 19.264L355.9 207.526H26.58C11.732 207.526 0 219.15 0 234.002v22.812c0 14.852 11.732 27.648 26.58 27.648h330.496L252.248 388.926c-5.068 5.072-7.86 11.652-7.86 18.864 0 7.204 2.792 13.88 7.86 18.948l16.132 16.084c5.072 5.072 11.828 7.836 19.044 7.836 7.208 0 13.968-2.8 19.04-7.872l177.68-177.68c5.084-5.088 7.88-11.88 7.86-19.1.016-7.244-2.776-14.04-7.864-19.12z"></path></svg><svg viewBox="0 0 491.996 491.996" width="491.996" height="491.996" id="arrow-down" y="985"><path d="M484.132 124.986l-16.116-16.228c-5.072-5.068-11.82-7.86-19.032-7.86-7.208 0-13.964 2.792-19.036 7.86l-183.84 183.848L62.056 108.554c-5.064-5.068-11.82-7.856-19.028-7.856s-13.968 2.788-19.036 7.856l-16.12 16.128c-10.496 10.488-10.496 27.572 0 38.06l219.136 219.924c5.064 5.064 11.812 8.632 19.084 8.632h.084c7.212 0 13.96-3.572 19.024-8.632l218.932-219.328c5.072-5.064 7.856-12.016 7.864-19.224 0-7.212-2.792-14.068-7.864-19.128z"></path></svg><svg viewBox="0 0 492 492" width="492" height="492" id="arrow-left" y="1477"><path d="M198.608 246.104L382.664 62.04c5.068-5.056 7.856-11.816 7.856-19.024 0-7.212-2.788-13.968-7.856-19.032l-16.128-16.12C361.476 2.792 354.712 0 347.504 0s-13.964 2.792-19.028 7.864L109.328 227.008c-5.084 5.08-7.868 11.868-7.848 19.084-.02 7.248 2.76 14.028 7.848 19.112l218.944 218.932c5.064 5.072 11.82 7.864 19.032 7.864 7.208 0 13.964-2.792 19.032-7.864l16.124-16.12c10.492-10.492 10.492-27.572 0-38.06L198.608 246.104z"></path></svg><svg viewBox="0 0 492.004 492.004" width="492.004" height="492.004" id="arrow-right" y="1969"><path d="M382.678 226.804L163.73 7.86C158.666 2.792 151.906 0 144.698 0s-13.968 2.792-19.032 7.86l-16.124 16.12c-10.492 10.504-10.492 27.576 0 38.064L293.398 245.9l-184.06 184.06c-5.064 5.068-7.86 11.824-7.86 19.028 0 7.212 2.796 13.968 7.86 19.04l16.124 16.116c5.068 5.068 11.824 7.86 19.032 7.86s13.968-2.792 19.032-7.86L382.678 265c5.076-5.084 7.864-11.872 7.848-19.088.016-7.244-2.772-14.028-7.848-19.108z"></path></svg><svg viewBox="0 0 492.002 492.002" width="492.002" height="492.002" id="arrow-up" y="2462"><path d="M484.136 328.473L264.988 109.329c-5.064-5.064-11.816-7.844-19.172-7.844-7.208 0-13.964 2.78-19.02 7.844L7.852 328.265C2.788 333.333 0 340.089 0 347.297s2.784 13.968 7.852 19.032l16.124 16.124c5.064 5.064 11.824 7.86 19.032 7.86s13.964-2.796 19.032-7.86l183.852-183.852 184.056 184.064c5.064 5.06 11.82 7.852 19.032 7.852 7.208 0 13.96-2.792 19.028-7.852l16.128-16.132c10.488-10.492 10.488-27.568 0-38.06z"></path></svg><svg width="80" height="80" viewBox="0 0 80 80" id="bag" y="2955"><path fill-rule="evenodd" clip-rule="evenodd" d="M68.1 76.2c.3-.2.6-.5.8-.7.9-1 1.3-2.3 1.2-3.6l-5.2-47.5c-.3-2.3-2.2-4.1-4.6-4.1h-4.5v-2c0-9-7.3-16.3-16.3-16.3S23.3 9.3 23.3 18.3v2h-4.5c-2.4 0-4.3 1.8-4.6 4.1L9 71.9c-.1 1.3.3 2.6 1.2 3.6.9 1 2.1 1.5 3.4 1.5h51.9c1.2 0 2.196-.494 2.6-.8zM39.6 5.4c-7.1 0-12.9 5.8-12.9 12.9v2h25.8v-2c0-7.1-5.8-12.9-12.9-12.9zM18.8 23.7c-.6 0-1.1.5-1.2 1.1l-4 36.4h52l-4-36.4c0-.6-.6-1.1-1.2-1.1h-4.5v7.1c0 .9-.8 1.7-1.7 1.7-.9 0-1.7-.8-1.7-1.7v-7.1H26.7v7.1c0 .9-.8 1.7-1.7 1.7-.9 0-1.7-.8-1.7-1.7v-7.1h-4.5zm-5.2 49.9h52c.4 0 .7-.2.8-.4.2-.3.3-.7.3-1l-.8-7.7H13.2l-.8 7.7c-.1.5.2.8.3 1 .1.1.4.4.9.4z"></path></svg><svg width="80" height="80" viewBox="0 0 80 80" id="bottle" y="3035"><path fill-rule="evenodd" clip-rule="evenodd" d="M52.292 13.541a11.85 11.85 0 0 1-1.057-1.055c-.573-.571-.88-2.637-.969-4.57h.22c.749 0 1.322-.572 1.322-1.32 0-.747-.573-1.318-1.322-1.318h-.176V4.09a3.89 3.89 0 0 0-.969-2.9A3.891 3.891 0 0 0 46.39.002H31.943a3.798 3.798 0 0 0-2.95 1.187c-.661.835-1.014 1.846-.97 2.901v1.187h-.22c-.749 0-1.321.571-1.321 1.318 0 .748.572 1.32 1.321 1.32h.22c-.088 1.933-.396 3.955-.969 4.57l-1.057 1.055-.168.167c-2.68 2.673-7.496 7.473-7.496 13.327v42.24c0 .44.22 10.725 9.162 10.725h23.344C59.779 80 60 69.715 60 69.231V27.035c0-5.93-4.94-10.777-7.642-13.43l-.066-.064zM30.93 2.948c.308-.22.617-.351.97-.307h14.49c.352-.044.705.087.969.307.22.264.308.616.308.967v1.362H30.666V3.916c0-.351.088-.703.264-.967zm19.91 74.415c6.342 0 6.518-8.044 6.518-8.132V27.035c0-4.795-4.34-9.123-6.705-11.482l-.122-.122-1.145-1.143c-1.321-1.406-1.63-4.483-1.674-6.373H30.71c-.044 1.89-.352 4.967-1.674 6.373-.2.23-.438.458-.701.71-.141.137-.29.28-.444.433-2.422 2.33-6.915 6.725-6.915 11.604v42.196c0 .088.176 8.132 6.519 8.132h23.344zm-.877-40.597h-21.59v27.427h21.59V36.766zM25.91 34.289v32.38h26.515v-32.38H25.91zm20.107 8.044h-13.7v3.334h13.7v-3.334zM32.317 49h13.7v3.333h-13.7V49zm13.7 6.667h-13.7V59h13.7v-3.333z"></path></svg><svg width="80" height="80" viewBox="0 0 80 80" id="box" y="3115"><path d="M72.392 39.322h-11.5c1.916-1.89 3.162-4.535 3.162-7.37v-8.88c0-1.606 1.342-2.929 2.971-2.929.862 0 1.533-.661 1.533-1.512v-4.345c0-3.213-2.683-5.952-6.037-5.952H17.575c-3.258 0-6.037 2.645-6.037 5.952v4.44c0 .85.67 1.512 1.533 1.512 1.629 0 2.97 1.322 2.97 2.928v8.787c0 2.929 1.247 5.48 3.163 7.369h-11.5c-3.258 0-6.037 2.645-6.037 5.952v4.44c0 .85.67 1.512 1.533 1.512 1.63 0 2.97 1.323 2.97 2.929v8.88c0 5.67 4.697 10.299 10.447 10.299h46.766c5.75 0 10.446-4.63 10.446-10.299v-8.88c0-1.606 1.342-2.93 2.971-2.93.862 0 1.533-.66 1.533-1.51v-4.441a5.95 5.95 0 0 0-5.941-5.952zM14.508 17.214v-2.928c0-1.607 1.342-2.93 2.971-2.93h44.946c1.63 0 2.97 1.323 2.97 2.93v2.928H14.509zm32.009 2.93l-2.109 4.25c-.479 1.04-1.533 1.607-2.683 1.607h-3.45c-1.15 0-2.204-.662-2.683-1.607l-2.204-4.25h13.129zM19.012 31.952v-8.881c0-1.04-.287-2.079-.766-2.929h11.883l2.875 5.574c1.054 1.984 3.067 3.307 5.367 3.307h3.45c2.3 0 4.312-1.228 5.367-3.307l2.874-5.574h11.884a6.06 6.06 0 0 0-.767 2.929v8.88c0 4.063-3.354 7.37-7.475 7.37H26.488c-4.121 0-7.476-3.307-7.476-7.37zM70.858 54.06v8.881c0 4.063-3.354 7.37-7.475 7.37H16.617c-4.121 0-7.475-3.307-7.475-7.37v-8.88c0-1.04-.288-2.08-.767-2.93h17.25l2.875 5.575c1.054 1.984 3.067 3.306 5.367 3.306h12.458c2.3 0 4.313-1.228 5.367-3.306l2.875-5.575h17.25c-.671.85-.959 1.89-.959 2.93zM28.98 51.132h22.138l-2.204 4.25c-.48 1.04-1.534 1.607-2.684 1.607H33.771c-1.15 0-2.204-.661-2.684-1.606L28.98 51.13zm46.383-2.93H4.638v-2.928c0-1.606 1.342-2.929 2.971-2.929h64.688c1.629 0 2.97 1.323 2.97 2.929v2.929h.096z"></path></svg><svg viewBox="0 0 512 512" width="512" height="512" id="cancel" y="3195"><path d="M437.016 74.984c-99.979-99.979-262.075-99.979-362.033.002-99.978 99.978-99.978 262.073.004 362.031 99.954 99.978 262.05 99.978 362.029-.002 99.979-99.956 99.979-262.051 0-362.031zm-30.168 331.86c-83.318 83.318-218.396 83.318-301.691.004-83.318-83.299-83.318-218.377-.002-301.693 83.297-83.317 218.375-83.317 301.691 0s83.316 218.394.002 301.689z"></path><path d="M361.592 150.408c-8.331-8.331-21.839-8.331-30.17 0l-75.425 75.425-75.425-75.425c-8.331-8.331-21.839-8.331-30.17 0s-8.331 21.839 0 30.17l75.425 75.425L150.43 331.4c-8.331 8.331-8.331 21.839 0 30.17 8.331 8.331 21.839 8.331 30.17 0l75.397-75.397 75.419 75.419c8.331 8.331 21.839 8.331 30.17 0 8.331-8.331 8.331-21.839 0-30.17l-75.419-75.419 75.425-75.425c8.331-8.331 8.331-21.838 0-30.17z"></path></svg><svg viewBox="0 0 512 512" width="512" height="512" id="cart" y="3707"><path d="M485.7 198.5c-10.7-13.4-25.3-20.8-41.1-20.8h-36.1C405.1 85.1 338 11 256 11S106.9 85.1 103.5 177.7H67.4c-15.8 0-30.4 7.4-41.1 20.8-13.5 16.8-18.4 40.2-13.3 62.7L56.3 452c6.5 28.8 28.9 49 54.4 49h290.5c25.5 0 47.9-20.1 54.4-49L499 261.2c5.1-22.5.2-45.9-13.3-62.7zM256 51.8c59.6 0 108.4 55.8 111.6 125.9H144.4c3.2-70 52-125.9 111.6-125.9zm203.2 200.3L415.9 443c-2.2 9.8-8.5 17.2-14.6 17.2H110.7c-6.1 0-12.4-7.4-14.6-17.2L52.8 252.1c-2.3-10.1-3.7-33.6 14.6-33.6h377.2c19.7 0 16.9 23.5 14.6 33.6z"></path><path d="M154.7 259.1c-11.3 0-20.4 9.1-20.4 20.4V407c0 11.3 9.1 20.4 20.4 20.4 11.3 0 20.4-9.1 20.4-20.4V279.5c.1-11.2-9.1-20.4-20.4-20.4zm98.9 0c-11.3 0-20.4 9.1-20.4 20.4V407c0 11.3 9.1 20.4 20.4 20.4 11.3 0 20.4-9.1 20.4-20.4V279.5c0-11.2-9.2-20.4-20.4-20.4zm98.8 0c-11.3 0-20.4 9.1-20.4 20.4V407c0 11.3 9.1 20.4 20.4 20.4 11.3 0 20.4-9.1 20.4-20.4V279.5c0-11.2-9.1-20.4-20.4-20.4z"></path></svg><svg width="24" height="24" viewBox="0 0 24 24" id="cat-daily" y="4219"><path d="M22.355 6.001h-5.827v-1.32C16.528 3.203 15.36 2 13.925 2h-3.85C8.64 2 7.472 3.203 7.472 4.681v1.32H1.645A.655.655 0 0 0 1 6.665V18.73C1 20.533 2.424 22 4.174 22h15.652C21.576 22 23 20.533 23 18.73V6.664A.655.655 0 0 0 22.355 6zm-8.893 8.666c0 .831-.656 1.507-1.462 1.507-.806 0-1.462-.676-1.462-1.507v-1.506h2.924v1.506zm.645-2.835H9.893a.655.655 0 0 0-.645.664v1.207C5.5 12.865 2.691 10.36 2.33 7.329h19.342c-.362 3.03-3.171 5.536-6.92 6.374v-1.206a.655.655 0 0 0-.644-.665zm-5.346-7.15c0-.747.59-1.354 1.314-1.354h3.85c.724 0 1.314.607 1.314 1.353v1.32H8.76v-1.32zm12.95 14.047c0 1.072-.846 1.943-1.885 1.943H4.174c-1.04 0-1.885-.872-1.885-1.943v-7.975a9.2 9.2 0 0 0 2.002 2.1c1.404 1.086 3.119 1.84 4.985 2.212.189 1.375 1.338 2.436 2.724 2.436 1.386 0 2.535-1.061 2.724-2.436 1.866-.372 3.58-1.126 4.985-2.211a9.2 9.2 0 0 0 2.002-2.101v7.975z"></path></svg><svg width="24" height="24" viewBox="0 0 24 24" id="chat" y="4243"><path d="M20.957 8.578H18.6V4.513C18.6 3.127 17.553 2 16.267 2H3.334C2.047 2 1 3.127 1 4.513v7.607c0 1.385 1.047 2.512 2.334 2.512h1.699v2.63c0 .32.179.609.453.73a.685.685 0 0 0 .281.061c.191 0 .38-.08.52-.232l2.045-2.202v1.383c0 1.213.917 2.2 2.044 2.2h5.686l2.384 2.566a.708.708 0 0 0 .52.232c.095 0 .19-.02.28-.06a.793.793 0 0 0 .454-.73V19.2h1.257C22.083 19.2 23 18.214 23 17v-6.223c0-1.213-.917-2.2-2.043-2.2zm-15.19 4.473H3.334c-.477 0-.865-.418-.865-.931V4.513c0-.514.388-.932.865-.932h12.932c.477 0 .866.418.866.932v7.607c0 .513-.389.931-.866.931H8.945a.71.71 0 0 0-.52.232l-1.923 2.07v-1.511c0-.437-.33-.79-.735-.79zm15.764 3.95c0 .342-.258.62-.574.62h-1.991c-.406 0-.735.353-.735.79v.89l-1.346-1.45a.709.709 0 0 0-.519-.23h-5.99c-.317 0-.575-.278-.575-.62v-2.369h6.465c1.287 0 2.335-1.127 2.335-2.512v-1.96h2.356c.316 0 .574.277.574.618v6.224z"></path></svg><svg viewBox="0 0 492 492" width="492" height="492" id="checked" y="4267"><path d="M484.128 104.478l-16.116-16.116c-5.064-5.068-11.816-7.856-19.024-7.856s-13.964 2.788-19.028 7.856L203.508 314.81 62.024 173.322c-5.064-5.06-11.82-7.852-19.028-7.852-7.204 0-13.956 2.792-19.024 7.852l-16.12 16.112C2.784 194.51 0 201.27 0 208.47c0 7.204 2.784 13.96 7.852 19.028l159.744 159.736c.212.3.436.58.696.836l16.12 15.852c5.064 5.048 11.82 7.572 19.084 7.572h.084c7.212 0 13.968-2.524 19.024-7.572l16.124-15.992c.26-.256.48-.468.612-.684l244.784-244.76c10.5-10.476 10.5-27.52.004-38.008z"></path></svg><svg height="512" viewBox="0 0 512 512" width="512" id="clip" y="4759"><path d="M226 512c-49.626 0-90-40.374-90-90V120C136 53.832 189.832 0 256 0s120 53.832 120 120v302h-30V120c0-49.626-40.374-90-90-90s-90 40.374-90 90v302c0 33.084 26.916 60 60 60s60-26.916 60-60V180c0-16.542-13.458-30-30-30s-30 13.458-30 30v242h-30V180c0-33.084 26.916-60 60-60s60 26.916 60 60v242c0 49.626-40.374 90-90 90z"></path></svg><svg viewBox="0 0 512 512" width="512" height="512" id="clock" y="5271"><path d="M256 0C114.845 0 0 114.839 0 256s114.845 256 256 256c141.161 0 256-114.839 256-256S397.155 0 256 0zm0 474.628C135.45 474.628 37.372 376.55 37.372 256S135.45 37.372 256 37.372s218.628 98.077 218.628 218.622c0 120.556-98.078 218.634-218.628 218.634z"></path><path d="M343.202 256h-80.973V143.883c0-10.321-8.365-18.686-18.686-18.686s-18.686 8.365-18.686 18.686v130.803c0 10.321 8.365 18.686 18.686 18.686h99.659c10.321 0 18.686-8.365 18.686-18.686S353.523 256 343.202 256z"></path></svg><svg viewBox="0 0 492 492" width="492" height="492" id="close" y="5783"><path d="M300.188 246L484.14 62.04c5.06-5.064 7.852-11.82 7.86-19.024 0-7.208-2.792-13.972-7.86-19.028L468.02 7.872C462.952 2.796 456.196.016 448.984.016c-7.2 0-13.956 2.78-19.024 7.856L246.008 191.82 62.048 7.872C56.988 2.796 50.228.016 43.02.016c-7.2 0-13.96 2.78-19.02 7.856L7.872 23.988c-10.496 10.496-10.496 27.568 0 38.052L191.828 246 7.872 429.952C2.808 435.024.02 441.78.02 448.984c0 7.204 2.788 13.96 7.852 19.028l16.124 16.116c5.06 5.072 11.824 7.856 19.02 7.856 7.208 0 13.968-2.784 19.028-7.856l183.96-183.952 183.952 183.952c5.068 5.072 11.824 7.856 19.024 7.856h.008c7.204 0 13.96-2.784 19.028-7.856l16.12-16.116c5.06-5.064 7.852-11.824 7.852-19.028 0-7.204-2.792-13.96-7.852-19.028L300.188 246z"></path></svg><svg width="80" height="80" viewBox="0 0 80 80" id="container" y="6275"><path fill-rule="evenodd" clip-rule="evenodd" d="M10.716 11.688h-.005a2.166 2.166 0 0 0 .004 4.33h1.036l4.947 16.9a9.332 9.332 0 0 0 1.314 3.01h-4.226a5.07 5.07 0 0 0-5.065 5.065v2.622h-3.56a2.166 2.166 0 0 0 .004 4.331h1.036l4.947 20.6a9.27 9.27 0 0 0 9.042 7.127h39.62a9.271 9.271 0 0 0 9.042-7.128L73.8 47.946h1.035a2.165 2.165 0 0 0 .005-4.33h-3.56v-2.623a5.07 5.07 0 0 0-5.065-5.065h-3.3a9.334 9.334 0 0 0 1.313-3.01l4.947-16.9h1.035a2.165 2.165 0 0 0 .005-4.33h-3.56V9.064A5.07 5.07 0 0 0 61.589 4H19.336a5.07 5.07 0 0 0-5.065 5.065v2.623h-3.555zM61.589 8.33c.405 0 .734.33.734.734v2.623h-43.72V9.065c0-.405.328-.734.733-.734H61.59zM25.74 35.714a4.953 4.953 0 0 1-4.83-3.807l-.404-1.68h39.913l-.403 1.68a4.953 4.953 0 0 1-4.831 3.807H25.74zm35.72-9.818H19.465l-3.26-9.877H64.72l-3.26 9.877zm4.754 14.363c.405 0 .734.33.734.734v2.622H13.052v-2.622c0-.405.33-.734.734-.734h52.428zM20.19 71.342a4.953 4.953 0 0 1-4.83-3.808l-.404-1.68h50.088l-.403 1.68a4.953 4.953 0 0 1-4.831 3.808H20.19zm45.894-9.819H13.916l-3.26-13.577h58.689l-3.26 13.577z"></path><path d="M10.71 11.688l.002.7h.02l.02-.002-.041-.698zm.006 0v-.7h-.041l.04.7zM8.55 13.852h-.7.7zm3.2 2.166l.672-.197-.147-.503h-.524v.7zm4.948 16.899l.68-.164-.003-.017-.005-.016-.672.197zm1.314 3.01v.7h1.309l-.728-1.09-.581.39zM8.72 43.615v.7h.7v-.7h-.7zm-3.555 0v-.7h-.021l-.02.001.04.7zm-.005 0l.001.7h.04l-.041-.7zM3 45.781h-.7.7zm3.2 2.165l.681-.163-.129-.537h-.551v.7zm4.948 20.6l.68-.164-.68.163zm57.704 0l-.68-.164.68.163zm4.947-20.6v-.7h-.552l-.129.537.681.163zm1.04-4.33l.002-.7h-.002v.7zm-3.56 0h-.7v.7h.7v-.7zm-8.366-7.688l-.582-.39-.727 1.09h1.31v-.7zm1.314-3.01l-.672-.197-.005.016-.004.017.681.164zm4.947-16.9v-.7h-.524l-.148.504.672.197zm1.04-4.33l.002-.7h-.002v.7zm-3.56 0h-.7v.7h.7v-.7zm-52.383 0v.7h.7v-.7h-.7zm48.052 0v.7h.7v-.7h-.7zm-43.72 0h-.7v.7h.7v-.7zm2.306 20.218l.681-.163-.68.164zm-.403-1.68v-.7h-.888l.207.864.68-.163zm39.913 0l.68.164.208-.863h-.888v.7zm-.403 1.68l.68.164-.68-.164zm-40.55-6.01l-.665.22.159.48h.506v-.7zm41.993 0v.7h.506l.159-.48-.665-.22zm-45.254-9.877v-.7h-.968l.304.92.664-.22zm48.515 0l.665.22.303-.92h-.968v.7zm2.228 27.596v.7h.7v-.7h-.7zm-53.896 0h-.7v.7h.7v-.7zm2.307 23.92l.68-.164-.68.163zm-.403-1.68v-.7h-.888l.207.863.68-.163zm50.088 0l.68.163.208-.864h-.888v.7zm-.403 1.679l.68.163-.68-.163zm-50.725-6.01l-.68.163.128.536h.552v-.7zm52.168 0v.7h.552l.129-.537-.68-.164zM10.655 47.945v-.7h-.888l.208.864.68-.164zm58.69 0l.68.164.208-.864h-.888v.7zm-58.593-35.56h.005l-.083-1.397h-.005l.083 1.397zM9.25 13.853c0-.808.654-1.463 1.462-1.465l-.003-1.4a2.866 2.866 0 0 0-2.86 2.865h1.4zm1.465 1.466a1.466 1.466 0 0 1-1.465-1.466h-1.4a2.865 2.865 0 0 0 2.865 2.866v-1.4zm1.036 0h-1.036v1.4h1.036v-1.4zM17.37 32.72l-4.948-16.9-1.343.394 4.947 16.9 1.344-.394zm1.223 2.818a8.63 8.63 0 0 1-1.215-2.785l-1.36.327a10.03 10.03 0 0 0 1.411 3.235l1.165-.777zm-4.807 1.089h4.226v-1.4h-4.226v1.4zm-4.365 4.365a4.37 4.37 0 0 1 4.365-4.365v-1.4a5.77 5.77 0 0 0-5.765 5.765h1.4zm0 2.622v-2.622h-1.4v2.622h1.4zm-4.255.7H8.72v-1.4H5.166v1.4zm.036 0l.005-.001-.083-1.398H5.12l.083 1.398zM3.7 45.78c0-.808.654-1.464 1.462-1.466l-.003-1.4a2.866 2.866 0 0 0-2.86 2.866h1.4zm1.465 1.465A1.465 1.465 0 0 1 3.7 45.78H2.3a2.865 2.865 0 0 0 2.865 2.865v-1.4zm1.036 0H5.165v1.4h1.036v-1.4zm5.628 21.136l-4.948-20.6-1.361.328 4.947 20.599 1.361-.327zm8.36 6.591a8.57 8.57 0 0 1-8.36-6.591l-1.362.327a9.97 9.97 0 0 0 9.723 7.664v-1.4zm39.62 0H20.19v1.4h39.62v-1.4zm8.362-6.591a8.571 8.571 0 0 1-8.361 6.591v1.4a9.97 9.97 0 0 0 9.723-7.664l-1.362-.327zm4.947-20.6l-4.947 20.6 1.362.327 4.947-20.6-1.362-.326zm1.716-.536H73.8v1.4h1.035v-1.4zM76.3 45.78c0 .81-.656 1.465-1.466 1.465v1.4A2.865 2.865 0 0 0 77.7 45.78h-1.4zm-1.462-1.466A1.466 1.466 0 0 1 76.3 45.78h1.4c0-1.58-1.28-2.862-2.86-2.866l-.002 1.4zm-.004 0h.005v-1.4h-.005v1.4zm-3.555 0h3.555v-1.4H71.28v1.4zm-.7-3.322v2.622h1.4v-2.622h-1.4zm-4.365-4.365a4.37 4.37 0 0 1 4.365 4.365h1.4a5.77 5.77 0 0 0-5.765-5.765v1.4zm-3.3 0h3.3v-1.4h-3.3v1.4zm.632-3.874a8.628 8.628 0 0 1-1.215 2.785l1.164.778a10.031 10.031 0 0 0 1.413-3.236l-1.362-.327zm4.956-16.932L63.555 32.72l1.344.393 4.947-16.899-1.344-.393zm1.707-.503h-1.035v1.4h1.035v-1.4zm1.466-1.466c0 .81-.656 1.466-1.466 1.466v1.4a2.865 2.865 0 0 0 2.866-2.866h-1.4zm-1.462-1.466a1.466 1.466 0 0 1 1.462 1.466h1.4c0-1.58-1.28-2.862-2.86-2.865l-.002 1.4zm-.004 0h.005v-1.4h-.005v1.4zm-3.555 0h3.555v-1.4h-3.555v1.4zm-.7-3.322v2.623h1.4V9.064h-1.4zM61.589 4.7a4.37 4.37 0 0 1 4.365 4.365h1.4A5.77 5.77 0 0 0 61.589 3.3v1.4zm-42.253 0H61.59V3.3H19.336v1.4zm-4.365 4.365A4.37 4.37 0 0 1 19.336 4.7V3.3a5.77 5.77 0 0 0-5.765 5.765h1.4zm0 2.623V9.064h-1.4v2.623h1.4zm-4.255.7h3.555v-1.4h-3.555v1.4zm52.307-3.323c0-.791-.643-1.434-1.434-1.434v1.4a.03.03 0 0 1 .012.002.037.037 0 0 1 .02.02.031.031 0 0 1 .002.012h1.4zm0 2.623V9.065h-1.4v2.623h1.4zm-44.42.7h43.72v-1.4h-43.72v1.4zm-.7-3.323v2.623h1.4V9.065h-1.4zm1.433-1.434c-.791 0-1.434.643-1.434 1.434h1.4a.031.031 0 0 1 .01-.024.036.036 0 0 1 .012-.008.03.03 0 0 1 .012-.002v-1.4zm42.253 0H19.336v1.4H61.59v-1.4zM20.229 32.07a5.653 5.653 0 0 0 5.511 4.344v-1.4a4.253 4.253 0 0 1-4.15-3.271l-1.361.327zm-.404-1.68l.404 1.68 1.361-.327-.403-1.68-1.362.327zm40.594-.863H20.506v1.4h39.913v-1.4zm.278 2.543l.403-1.68-1.361-.327-.404 1.68 1.361.327zm-5.512 4.344a5.653 5.653 0 0 0 5.511-4.344l-1.36-.327a4.253 4.253 0 0 1-4.151 3.271v1.4zm-29.445 0h29.445v-1.4H25.74v1.4zm-6.274-9.818h41.993v-1.4H19.466v1.4zM15.54 16.238l3.26 9.877 1.33-.439-3.26-9.876-1.33.44zm49.179-.92H16.205v1.4H64.72v-1.4zm-2.596 10.797l3.26-9.877-1.329-.439-3.26 9.877 1.329.44zm5.524 14.878c0-.791-.643-1.434-1.434-1.434v1.4a.03.03 0 0 1 .012.002.038.038 0 0 1 .02.02.03.03 0 0 1 .002.012h1.4zm0 2.622v-2.622h-1.4v2.622h1.4zm-54.596.7h53.896v-1.4H13.052v1.4zm-.7-3.322v2.622h1.4v-2.622h-1.4zm1.434-1.434c-.791 0-1.434.643-1.434 1.434h1.4l.002-.013a.038.038 0 0 1 .02-.019.029.029 0 0 1 .012-.002v-1.4zm52.428 0H13.786v1.4h52.428v-1.4zM14.679 67.698a5.653 5.653 0 0 0 5.511 4.344v-1.4a4.253 4.253 0 0 1-4.15-3.271l-1.361.327zm-.404-1.68l.404 1.68 1.36-.327-.402-1.68-1.362.327zm50.77-.864h-50.09v1.4h50.09v-1.4zm.276 2.544l.404-1.68-1.361-.327-.404 1.68 1.361.327zm-5.511 4.344a5.653 5.653 0 0 0 5.511-4.344l-1.36-.327a4.253 4.253 0 0 1-4.151 3.271v1.4zm-39.62 0h39.62v-1.4H20.19v1.4zm-6.274-9.819h52.168v-1.4H13.916v1.4zM9.975 48.11l3.26 13.577 1.361-.327-3.26-13.577-1.361.327zm59.37-.864h-58.69v1.4h58.69v-1.4zm-2.58 14.44l3.26-13.576-1.36-.327-3.261 13.577 1.361.327z"></path></svg><svg width="38" height="38" viewBox="0 0 38 38" id="convert" y="6355"><path d="M37.006 25.804l-3.311-5.736a4.9 4.9 0 0 1-2.83 1.618l3.323 5.736c.597 1.036.714 1.968.325 2.628-.39.66-1.26 1.036-2.454 1.036H21.102l.883-.867a1.66 1.66 0 0 0 .48-1.153c0-.44-.169-.841-.48-1.152-.623-.608-1.688-.608-2.298 0l-3.661 3.651a1.614 1.614 0 0 0 0 2.292l3.66 3.651c.312.298.715.479 1.156.479a1.63 1.63 0 0 0 1.155-2.784l-.882-.867h10.944c2.376 0 4.284-.971 5.271-2.654.974-1.683.857-3.833-.324-5.878zM9.288 17.958l.311 1.19c.221.842 1.13 1.373 2 1.153.415-.116.766-.388.986-.764.208-.375.273-.815.156-1.23l-1.337-4.984c-.22-.842-1.13-1.36-2-1.14l-4.998 1.334a1.654 1.654 0 0 0-.986.75 1.637 1.637 0 0 0-.17 1.23c.222.855 1.13 1.373 2 1.153l1.195-.324-5.466 9.478C-.202 27.849-.32 29.999.654 31.682c.987 1.696 2.895 2.654 5.271 2.654h6.608a4.978 4.978 0 0 1 0-3.25H5.925c-1.194 0-2.064-.375-2.453-1.036-.39-.673-.273-1.605.324-2.628l5.492-9.464zm23.433-6.849a1.642 1.642 0 0 0-.986-.751c-.844-.207-1.766.297-2 1.152l-.311 1.191-5.479-9.464C22.751 1.178 20.959 0 18.999 0c-1.96 0-3.765 1.178-4.947 3.224L10.73 8.959a4.901 4.901 0 0 1 2.83 1.619l3.31-5.736c1.195-2.058 3.051-2.058 4.246 0l5.479 9.465-1.195-.324c-.857-.22-1.766.298-2 1.152a1.63 1.63 0 0 0 1.156 1.994l4.998 1.334c.143.038.273.052.429.052.74 0 1.376-.492 1.57-1.205l1.338-4.984a1.552 1.552 0 0 0-.169-1.217z"></path></svg><svg width="80" height="80" viewBox="0 0 80 80" id="cutlery" y="6393"><g clip-path="url(#a)"><path d="M14.887 32.398c-1.26 13.303-2.838 36.584-2.68 38.326C12.68 74.208 16.622 75 17.883 75c1.261 0 5.203-.792 5.676-4.118.315-1.742-1.262-25.022-2.68-38.484 3.152-.475 4.887-2.059 4.887-4.434V6.425C26.08 5.633 25.45 5 24.662 5s-1.419.633-1.419 1.425v17.58H21.51V6.425c0-.792-.63-1.425-1.419-1.425-.788 0-1.419.633-1.419 1.425v17.58h-1.576V6.425c0-.792-.631-1.425-1.42-1.425-.788 0-1.418.633-1.418 1.425v17.58H12.68V6.425c0-.792-.473-1.425-1.26-1.425-.79 0-1.42.633-1.42 1.425v21.539c0 2.375 1.892 3.96 4.887 4.434zm6.149 38.01c-.315 1.583-2.995 1.9-2.995 1.9s-2.68-.159-2.996-1.9c-.158-1.743 1.261-23.756 2.68-37.851h.63c1.42 14.095 2.839 36.266 2.681 37.85zm2.207-43.711v1.267c0 1.267-1.734 1.742-2.995 1.742h-4.414c-1.893-.159-3.154-.792-3.154-1.742v-1.267h10.563zm12.613 21.38c-.63 9.185-1.419 21.38-1.261 22.647C35.068 74.208 39.009 75 40.27 75c1.262 0 5.203-.792 5.676-4.118.315-1.583-.946-17.737-1.261-22.805h.157c.789 0 1.42-.634 1.42-1.425v-.476l-1.42-37.533c-.315-1.743-2.207-3.168-4.256-3.168-1.262 0-5.203.475-6.307 7.444-.946 6.018-1.734 14.253.316 34.05 0 .633.63 1.108 1.26 1.108zm7.567 22.33c-.315 1.584-2.995 1.742-2.995 1.742s-2.68-.158-2.995-1.9c-.158-.95.472-10.928 1.26-22.172h3.312c.945 12.353 1.418 21.38 1.418 22.33zM36.96 13.235c.473-3.167 1.735-5.068 3.627-5.068.946 0 1.576.476 1.576.634l1.261 36.425h-6.306c-1.734-18.37-.946-26.131-.157-31.99zm20.18 18.688c-1.262 13.303-2.996 36.9-2.68 38.801.472 3.484 4.414 4.276 5.675 4.276 1.261 0 5.203-.792 5.676-4.118.315-1.742-1.42-25.656-2.68-38.959 3.153-1.267 5.045-4.434 5.045-9.027C68.333 17.51 65.653 5 60.293 5c-5.36 0-8.04 12.511-8.04 17.896-.158 4.751 1.733 7.918 4.887 9.027zm3.468.634c1.42 14.886 2.838 36.425 2.68 38.009-.315 1.583-2.995 1.742-2.995 1.742s-2.68-.159-2.996-1.9c-.157-1.585 1.262-22.965 2.68-37.851h.631zM60.293 7.85c2.207 0 5.36 8.869 5.36 15.045 0 4.434-1.892 6.81-5.36 6.81-4.415 0-5.36-3.801-5.36-6.81 0-6.177 3.153-15.045 5.36-15.045z"></path></g><defs><clipPath id="a"><path transform="translate(10 5)" d="M0 0h58.333v70H0z"></path></clipPath></defs></svg><svg width="18" height="21" viewBox="0 0 18 21" id="delete" y="6473"><g data-name="Сгруппировать 4488"><path data-name="Контур 11090" d="M16 7H2a1 1 0 0 0-1 1v9a4 4 0 0 0 4 4h8a4 4 0 0 0 4-4V8a1 1 0 0 0-1-1zm-1 10a2 2 0 0 1-2 2H5a2 2 0 0 1-2-2V9h12z"></path><path data-name="Контур 11094" d="M17 3h-4v-.714A2.288 2.288 0 0 0 10.714 0H7.286A2.288 2.288 0 0 0 5 2.286V3H1a1 1 0 0 0 0 2h16a1 1 0 0 0 0-2zM7 3v-.714A.29.29 0 0 1 7.286 2h3.428a.29.29 0 0 1 .286.286V3z"></path></g></svg><svg height="512" viewBox="0 0 512 512" width="512" id="download" y="6494"><path d="M239.029 384.97a24 24 0 0 0 33.942 0l90.509-90.509a24 24 0 0 0 0-33.941 24 24 0 0 0-33.941 0L280 310.059V48a24 24 0 0 0-48 0v262.059l-49.539-49.539a24 24 0 0 0-33.941 0 24 24 0 0 0 0 33.941z"></path><path d="M464 232a24 24 0 0 0-24 24v184H72V256a24 24 0 0 0-48 0v192a40 40 0 0 0 40 40h384a40 40 0 0 0 40-40V256a24 24 0 0 0-24-24z"></path></svg><svg width="24" height="24" viewBox="0 0 24 24" id="edit" y="7006"><path fill-rule="evenodd" clip-rule="evenodd" d="M19.177 2a3.95 3.95 0 0 1 2.682 1.1 3.706 3.706 0 0 1 .001 5.348l-6.897 6.681a5.414 5.414 0 0 1-3.782 1.515H8.896c-.564 0-1.02-.441-1.02-.988v-2.213c0-1.382.555-2.682 1.563-3.662l6.906-6.69A3.932 3.932 0 0 1 19.177 2zm-7.996 12.668c.883 0 1.715-.333 2.34-.937l4.552-4.409-2.638-2.555-4.553 4.41a3.142 3.142 0 0 0-.966 2.266v1.225h1.265zm8.335-6.743l.9-.873a1.77 1.77 0 0 0 0-2.555 1.91 1.91 0 0 0-2.637 0l-.901.873 2.638 2.555zm-2.214 8.007c0-.547.456-.988 1.02-.988.564 0 1.02.441 1.02.988v3.104c0 1.635-1.373 2.964-3.06 2.964H5.06C3.373 22 2 20.67 2 19.036V6.19c0-1.635 1.373-2.965 3.06-2.965h5.927c.565 0 1.02.442 1.02.988 0 .547-.455.989-1.02.989H5.06c-.563 0-1.02.442-1.02.988v12.846c0 .545.457.988 1.02.988h11.222c.563 0 1.02-.443 1.02-.988v-3.104z"></path></svg><svg width="24" height="24" viewBox="0 0 24 24" id="exit" y="7030"><path fill-rule="evenodd" clip-rule="evenodd" d="M15.333 14.5a.833.833 0 0 1 1.667 0v5c0 .46-.373.833-.834.833H12v.833c0 .526-.481.92-.997.817L2.67 20.317A.833.833 0 0 1 2 19.5V2.865a.892.892 0 0 1 .009-.149l.001-.009a.85.85 0 0 1 .011-.06l.002-.006a.798.798 0 0 1 .81-.64h13.334a.832.832 0 0 1 .833.832v5a.833.833 0 0 1-1.667 0V3.667H8.511l2.895.868c.353.106.594.43.594.798v13.333h3.333V14.5zM3.667 18.817l6.666 1.333V5.954l-6.666-2v14.863zm18.158-7.143l-.015.02a.827.827 0 0 1-.055.06v.001l-2.5 2.5a.833.833 0 0 1-1.179-1.178l1.077-1.078H14.5a.833.833 0 1 1 0-1.666h4.654l-1.077-1.078a.833.833 0 0 1 1.178-1.178l2.5 2.5.056.06.015.02a.366.366 0 0 0 .014.02.529.529 0 0 1 .02.027l.016.026.005.01.006.01.014.023a.497.497 0 0 1 .018.038l.017.036.01.027.004.01c0 .004.002.007.003.01l.01.03.008.028.002.01.003.01a.53.53 0 0 1 .007.031l.007.044.005.037a.837.837 0 0 1 0 .164l-.003.024-.002.013-.002.01a.533.533 0 0 1-.005.034l-.007.03-.003.011-.002.01a.458.458 0 0 1-.008.028l-.01.03-.003.01-.014.037a.57.57 0 0 1-.021.046.484.484 0 0 1-.014.028l-.014.024-.006.01a1.104 1.104 0 0 0-.005.009l-.017.027-.019.026-.007.01-.007.01z"></path></svg><svg viewBox="0 0 477.846 477.846" width="477.846" height="477.846" id="home" y="7054"><path d="M472.847 226.846l-34.116-34.116L250.998 4.997c-6.664-6.663-17.468-6.663-24.132 0L39.132 192.73 4.999 226.864c-6.548 6.78-6.361 17.584.419 24.132 6.614 6.388 17.099 6.388 23.713 0l4.983-5.018v214.801c0 9.426 7.641 17.067 17.067 17.067h375.467c9.426 0 17.067-7.641 17.067-17.067V245.978l5 5.001c6.78 6.548 17.584 6.36 24.132-.419 6.388-6.614 6.388-17.1 0-23.714zM290.115 443.713h-102.4V307.179h102.4v136.534zm119.466 0h-85.333v-153.6c0-9.426-7.641-17.067-17.067-17.067H170.648c-9.426 0-17.067 7.641-17.067 17.067v153.6H68.248V211.845L238.914 41.178l170.667 170.667v231.868z"></path></svg><svg viewBox="0 0 330 330" width="330" height="330" id="info" y="7532"><path d="M165 0C74.019 0 0 74.02 0 165.001 0 255.982 74.019 330 165 330s165-74.018 165-164.999S255.981 0 165 0zm0 300c-74.44 0-135-60.56-135-134.999S90.56 30 165 30s135 60.562 135 135.001C300 239.44 239.439 300 165 300z"></path><path d="M164.998 70c-11.026 0-19.996 8.976-19.996 20.009 0 11.023 8.97 19.991 19.996 19.991 11.026 0 19.996-8.968 19.996-19.991 0-11.033-8.97-20.009-19.996-20.009zm.002 70c-8.284 0-15 6.716-15 15v90c0 8.284 6.716 15 15 15 8.284 0 15-6.716 15-15v-90c0-8.284-6.716-15-15-15z"></path></svg><svg width="80" height="80" viewBox="0 0 80 80" id="layer" y="7862"><path d="M75.296 52.734v-.001a2.274 2.274 0 0 0-3.007-1.105h-.001L42.786 64.826l-.17.076-.18-.054L7.44 54.25h-.002c-1.2-.37-2.471.302-2.837 1.474-.364 1.165.298 2.413 1.5 2.779l69.195-5.77zm0 0a2.204 2.204 0 0 1-1.123 2.94l-30.46 13.624h-.002a2.287 2.287 0 0 1-1.612.103L6.101 58.503l69.194-5.77zm-32.86 1.214l.18.054.17-.076L72.287 40.73c1.16-.516 2.494-.008 3.01 1.105a2.205 2.205 0 0 1-1.125 2.941L43.712 58.4h-.001a2.287 2.287 0 0 1-.941.201c-.224 0-.45-.033-.67-.099h-.002L6.102 47.604c-1.203-.366-1.867-1.614-1.501-2.777.368-1.174 1.638-1.845 2.837-1.476h.002l34.997 10.597zM26.104 24.145c2.029-.842 3.615-1.823 4.667-3.587 1.04-1.744 1.515-4.18 1.515-7.834 0-.68.317-1.327.865-1.748a2.304 2.304 0 0 1 1.948-.411l35.83 8.686a2.237 2.237 0 0 1 1.725 2.16v.414c.001 4.06-.006 7.29-1.208 10.032-1.184 2.7-3.566 4.997-8.51 7.047-6.656 2.76-18.816 8.405-19.195 8.584a2.288 2.288 0 0 1-.97.215 2.358 2.358 0 0 1-.672-.1L6.102 36.705a2.236 2.236 0 0 1-1.598-2.015 2.226 2.226 0 0 1 1.382-2.161l20.217-8.384zm-11.43 9.572l-1.29.535 1.337.405 27.692 8.387.182.055.173-.08c3.08-1.426 12.625-5.816 18.396-8.21 3.079-1.277 4.87-2.454 5.847-4.205.963-1.725 1.082-3.925 1.099-7.055l.002-.395-.384-.093-30.433-7.381-.56-.136-.056.574c-.262 2.746-.918 5.126-2.265 7.136-1.343 2.006-3.4 3.687-6.539 4.989l-13.2 5.474z" stroke="#F3F8ED"></path></svg><svg width="18.393" height="23.039" viewBox="0 0 18.393 23.039" id="location" y="7942"><g data-name="Group 3524"><path data-name="Path 10785" d="M9.191 12.245H9.2a3.8 3.8 0 0 0 0-7.6 3.8 3.8 0 0 0-3.8 3.8v.019a3.79 3.79 0 0 0 3.791 3.781zm.009-6a2.2 2.2 0 1 1-2.2 2.2 2.2 2.2 0 0 1 2.2-2.2z"></path><path data-name="Path 10786" d="M8.679 22.855a.821.821 0 0 0 1.035 0c.111-.083 8.679-7.4 8.679-13.909A9.2 9.2 0 0 0 0 8.958c0 6.303 8.3 13.57 8.679 13.897zM3.824 3.574A7.6 7.6 0 0 1 16.8 8.945c0 4.321-4.588 9.353-7.324 11.967a.4.4 0 0 1-.552 0C6.187 18.3 1.6 13.268 1.6 8.945a7.542 7.542 0 0 1 2.224-5.371z"></path></g></svg><svg width="19" height="33" viewBox="0 0 19 33" id="login" y="7966"><path class="cls-1" d="M16.71 28.7h-5.16v-1.641h3.3a2.151 2.151 0 1 0 0-4.293h-3.29v-5.7a9.374 9.374 0 0 0 4.25-2.272 8.273 8.273 0 0 0 .01-12.255 9.721 9.721 0 0 0-13.1 0 8.272 8.272 0 0 0-.01 12.255 9.4 9.4 0 0 0 4.26 2.27L6.96 30.85a2.064 2.064 0 0 0 .68 1.518 2.111 2.111 0 0 0 .33.262 2.422 2.422 0 0 0 1.29.366h7.45a2.151 2.151 0 1 0 0-4.296zM5.96 11.76a4.174 4.174 0 0 1 0-6.184 4.905 4.905 0 0 1 6.61 0 4.174 4.174 0 0 1 0 6.184 4.9 4.9 0 0 1-6.61 0z"></path></svg><svg viewBox="0 0 512 512" width="512" height="512" id="mail" y="7999"><path d="M467 61H45C20.218 61 0 81.196 0 106v300c0 24.72 20.128 45 45 45h422c24.72 0 45-20.128 45-45V106c0-24.72-20.128-45-45-45zm-6.214 30L256.954 294.833 51.359 91h409.427zM30 399.788V112.069l144.479 143.24L30 399.788zM51.213 421l144.57-144.57 50.657 50.222c5.864 5.814 15.327 5.795 21.167-.046L317 277.213 460.787 421H51.213zM482 399.787L338.213 256 482 112.212v287.575z"></path></svg><svg width="17.601" height="15.6" viewBox="0 0 17.601 15.6" id="menu" y="8511"><path data-name="Union 193" d="M.8 15.601a.859.859 0 0 1-.8-.8.861.861 0 0 1 .8-.8h16a.863.863 0 0 1 .8.8.86.86 0 0 1-.8.8zm0-7a.859.859 0 0 1-.8-.8.859.859 0 0 1 .8-.8h16a.86.86 0 0 1 .8.8.861.861 0 0 1-.8.8zm0-7a.859.859 0 0 1-.8-.8.861.861 0 0 1 .8-.8h16a.863.863 0 0 1 .8.8.86.86 0 0 1-.8.8z"></path></svg><svg height="469" viewBox="0 -192 469.33333 469" width="469" id="minus" y="8527"><path d="M437.332.168H32c-17.664 0-32 14.336-32 32V53.5c0 17.664 14.336 32 32 32h405.332c17.664 0 32-14.336 32-32V32.168c0-17.664-14.336-32-32-32zm0 0"></path></svg><svg width="24" height="24" viewBox="0 0 24 24" id="more" y="8996"><path fill-rule="evenodd" clip-rule="evenodd" d="M6 12a2 2 0 1 1-4 0 2 2 0 0 1 4 0zm8 0a2 2 0 1 1-4 0 2 2 0 0 1 4 0zm6 2a2 2 0 1 0 0-4 2 2 0 0 0 0 4z"></path></svg><svg width="24" height="24" viewBox="0 0 24 24" id="navigation" y="9020"><path d="M20.849 2.064l-18.331 7.5c-.771.315-.653 1.441.166 1.59l8.598 1.564 1.564 8.598c.149.82 1.275.937 1.59.166l7.5-18.331a.833.833 0 0 0-1.087-1.087zM13.975 18.21l-1.156-6.358a.833.833 0 0 0-.671-.67L5.79 10.024 19.641 4.36l-5.666 13.85z"></path></svg><svg viewBox="0 0 512 512" width="512" height="512" id="pencil" y="9044"><path d="M51.2 353.28L0 512l158.72-51.2zm35.96-36.788L336.96 66.69 445.57 175.3l-249.8 249.802zM504.32 79.36L432.64 7.68c-10.24-10.24-25.6-10.24-35.84 0l-23.04 23.04 107.52 107.52 23.04-23.04c10.24-10.24 10.24-25.6 0-35.84z"></path></svg><svg width="24" height="24" viewBox="0 0 24 24" id="phone" y="9556"><path d="M20.082 18.637l-.54-.836c-.97-1.484-2.309-3.188-4.065-3.188-.325 0-.648.06-.966.184l-.943.375c-.086.033-.17.07-.258.11-.242.11-.515.233-.797.233-.694 0-1.498-.838-2.264-2.36-.752-1.494-.704-2.277-.531-2.67.19-.436.633-.621 1.109-.788l.184-.067.954-.373c2.487-.965 1.562-4.337 1.258-5.442l-.257-.95C12.746 2.08 12.163 0 10.23 0c-.358 0-.74.077-1.135.23-.26.096-3.825 1.446-5.117 3.82-1.544 2.824-1.259 6.61.848 11.253 2.09 4.648 4.8 7.491 8.056 8.45.559.165 1.19.248 1.876.248 2.247 0 4.465-.887 4.645-.96.775-.305 1.275-.768 1.488-1.376.36-1.032-.244-2.162-.81-3.027zm-.855 2.526c-.05.141-.222.27-.511.383l-.016.006c-.02.009-2.027.825-3.942.824-.506 0-.96-.057-1.346-.172-2.743-.807-5.089-3.34-6.973-7.53-1.898-4.184-2.201-7.512-.9-9.892 1.01-1.856 4.174-3.033 4.205-3.044l.018-.007c.18-.07.342-.107.467-.107.386 0 .737.555 1.042 1.642l.256.947c.552 2.013.468 3.272-.24 3.547l-.95.371c-.037.015-.081.03-.13.047-.525.184-1.617.568-2.11 1.695-.449 1.023-.263 2.32.566 3.969 1.117 2.218 2.376 3.297 3.85 3.297.684 0 1.233-.248 1.561-.396.06-.027.115-.052.173-.074l.944-.376a.782.782 0 0 1 .286-.056c.454 0 1.269.418 2.567 2.402l.539.835c.664 1.018.716 1.48.644 1.689z"></path></svg><svg viewBox="0 0 473.806 473.806" width="473.806" height="473.806" id="phone-call" y="9580"><path d="M374.456 293.506c-9.7-10.1-21.4-15.5-33.8-15.5-12.3 0-24.1 5.3-34.2 15.4l-31.6 31.5c-2.6-1.4-5.2-2.7-7.7-4-3.6-1.8-7-3.5-9.9-5.3-29.6-18.8-56.5-43.3-82.3-75-12.5-15.8-20.9-29.1-27-42.6 8.2-7.5 15.8-15.3 23.2-22.8 2.8-2.8 5.6-5.7 8.4-8.5 21-21 21-48.2 0-69.2l-27.3-27.3c-3.1-3.1-6.3-6.3-9.3-9.5-6-6.2-12.3-12.6-18.8-18.6-9.7-9.6-21.3-14.7-33.5-14.7s-24 5.1-34 14.7l-.2.2-34 34.3c-12.8 12.8-20.1 28.4-21.7 46.5-2.4 29.2 6.2 56.4 12.8 74.2 16.2 43.7 40.4 84.2 76.5 127.6 43.8 52.3 96.5 93.6 156.7 122.7 23 10.9 53.7 23.8 88 26 2.1.1 4.3.2 6.3.2 23.1 0 42.5-8.3 57.7-24.8.1-.2.3-.3.4-.5 5.2-6.3 11.2-12 17.5-18.1 4.3-4.1 8.7-8.4 13-12.9 9.9-10.3 15.1-22.3 15.1-34.6 0-12.4-5.3-24.3-15.4-34.3l-54.9-55.1zm35.8 105.3c-.1 0-.1.1 0 0-3.9 4.2-7.9 8-12.2 12.2-6.5 6.2-13.1 12.7-19.3 20-10.1 10.8-22 15.9-37.6 15.9-1.5 0-3.1 0-4.6-.1-29.7-1.9-57.3-13.5-78-23.4-56.6-27.4-106.3-66.3-147.6-115.6-34.1-41.1-56.9-79.1-72-119.9-9.3-24.9-12.7-44.3-11.2-62.6 1-11.7 5.5-21.4 13.8-29.7l34.1-34.1c4.9-4.6 10.1-7.1 15.2-7.1 6.3 0 11.4 3.8 14.6 7l.3.3c6.1 5.7 11.9 11.6 18 17.9 3.1 3.2 6.3 6.4 9.5 9.7l27.3 27.3c10.6 10.6 10.6 20.4 0 31-2.9 2.9-5.7 5.8-8.6 8.6-8.4 8.6-16.4 16.6-25.1 24.4-.2.2-.4.3-.5.5-8.6 8.6-7 17-5.2 22.7l.3.9c7.1 17.2 17.1 33.4 32.3 52.7l.1.1c27.6 34 56.7 60.5 88.8 80.8 4.1 2.6 8.3 4.7 12.3 6.7 3.6 1.8 7 3.5 9.9 5.3.4.2.8.5 1.2.7 3.4 1.7 6.6 2.5 9.9 2.5 8.3 0 13.5-5.2 15.2-6.9l34.2-34.2c3.4-3.4 8.8-7.5 15.1-7.5 6.2 0 11.3 3.9 14.4 7.3l.2.2 55.1 55.1c10.3 10.2 10.3 20.7.1 31.3zm-154.2-286.1c26.2 4.4 50 16.8 69 35.8s31.3 42.8 35.8 69c1.1 6.6 6.8 11.2 13.3 11.2.8 0 1.5-.1 2.3-.2 7.4-1.2 12.3-8.2 11.1-15.6-5.4-31.7-20.4-60.6-43.3-83.5s-51.8-37.9-83.5-43.3c-7.4-1.2-14.3 3.7-15.6 11s3.5 14.4 10.9 15.6zm217.2 96.3c-8.9-52.2-33.5-99.7-71.3-137.5s-85.3-62.4-137.5-71.3c-7.3-1.3-14.2 3.7-15.5 11-1.2 7.4 3.7 14.3 11.1 15.6 46.6 7.9 89.1 30 122.9 63.7 33.8 33.8 55.8 76.3 63.7 122.9 1.1 6.6 6.8 11.2 13.3 11.2.8 0 1.5-.1 2.3-.2 7.3-1.1 12.3-8.1 11-15.4z"></path></svg><svg viewBox="0 0 494.148 494.148" width="494.148" height="494.148" id="play" y="10054"><path d="M405.284 201.188L130.804 13.28C118.128 4.596 105.356 0 94.74 0 74.216 0 61.52 16.472 61.52 44.044v406.124c0 27.54 12.68 43.98 33.156 43.98 10.632 0 23.2-4.6 35.904-13.308l274.608-187.904c17.66-12.104 27.44-28.392 27.44-45.884.004-17.48-9.664-33.764-27.344-45.864z"></path></svg><svg height="448" viewBox="0 0 448 448" width="448" id="plus" y="10549"><path d="M408 184H272a8 8 0 0 1-8-8V40c0-22.09-17.91-40-40-40s-40 17.91-40 40v136a8 8 0 0 1-8 8H40c-22.09 0-40 17.91-40 40s17.91 40 40 40h136a8 8 0 0 1 8 8v136c0 22.09 17.91 40 40 40s40-17.91 40-40V272a8 8 0 0 1 8-8h136c22.09 0 40-17.91 40-40s-17.91-40-40-40zm0 0"></path></svg><svg width="24" height="24" viewBox="0 0 24 24" id="question" y="10997"><path fill-rule="evenodd" clip-rule="evenodd" d="M12 21a9 9 0 1 0 0-18 9 9 0 0 0 0 18zm0 2c6.075 0 11-4.925 11-11S18.075 1 12 1 1 5.925 1 12s4.925 11 11 11zm.952-7.948V12.78c1.842-.443 3.118-2.106 3.045-3.986-.079-2.048-1.767-3.713-3.843-3.79a4.004 4.004 0 0 0-2.948 1.112A3.872 3.872 0 0 0 8 8.934a.95.95 0 0 0 .952.948.95.95 0 0 0 .953-.948c0-.552.22-1.068.623-1.453a2.113 2.113 0 0 1 1.555-.584c1.086.041 1.97.906 2.01 1.969a2.059 2.059 0 0 1-1.633 2.081 1.774 1.774 0 0 0-1.412 1.74v2.365A.95.95 0 0 0 12 16a.95.95 0 0 0 .952-.948zM12 19a1 1 0 1 0 0-2 1 1 0 0 0 0 2z"></path></svg><svg width="24" height="24" viewBox="0 0 24 24" id="reload" y="11021"><path fill-rule="evenodd" clip-rule="evenodd" d="M7.596 16.56a.83.83 0 0 1 .922.723l.38 3.091a.833.833 0 0 1-.722.924l-3.045.38c-.531.04-.874-.303-.927-.724a.835.835 0 0 1 .722-.927l1.013-.126A9.933 9.933 0 0 1 2.486 8.906C3.8 4.81 7.673 1.996 11.947 2c.555 0 .882.392.873.85-.012.457-.347.808-.873.808-3.563.008-6.788 2.349-7.886 5.759a8.281 8.281 0 0 0 2.951 9.218l-.139-1.148a.832.832 0 0 1 .723-.927zM19.073 3.977l-1.012.126a9.925 9.925 0 0 1 3.453 10.987C20.2 19.186 16.326 22 12.05 22c-.555 0-.882-.392-.874-.85.013-.457.347-.808.874-.808 3.563-.008 6.788-2.348 7.886-5.759a8.282 8.282 0 0 0-2.951-9.218l.138 1.148a.83.83 0 0 1-1.645.204l-.375-3.087a.833.833 0 0 1 .723-.923l3.044-.38c.531-.041.874.302.927.723a.835.835 0 0 1-.723.927z"></path></svg><svg width="24" height="22" viewBox="0 0 24 22" id="repeat" y="11045"><defs><path id="a" d="M1515.477 514.514c-1.232 2.532-3.395 4.441-6.088 5.377a10.878 10.878 0 0 1-3.577.604c-2.96 0-5.816-1.219-7.835-3.344a1.247 1.247 0 0 1 .068-1.788 1.287 1.287 0 0 1 1.794.066 8.264 8.264 0 0 0 5.974 2.55 8.29 8.29 0 0 0 2.73-.461c3.245-1.128 5.425-4.153 5.425-7.529 0-.907-.158-1.801-.469-2.66-1.15-3.18-4.24-5.316-7.692-5.316a8.25 8.25 0 0 0-2.72.461c-1.697.589-3.107 1.671-4.07 3.104l2.508-.872a1.276 1.276 0 0 1 1.623.762 1.26 1.26 0 0 1-.778 1.612l-5.358 1.864a1.285 1.285 0 0 1-.97-.05 1.265 1.265 0 0 1-.653-.71l-1.8-4.98a1.238 1.238 0 0 1-.076-.426c0-.533.343-1.01.854-1.186a1.284 1.284 0 0 1 1.621.764l.749 2.073c1.27-2.007 3.19-3.524 5.503-4.328 1.15-.401 2.35-.604 3.567-.604 4.526 0 8.582 2.806 10.095 6.984.412 1.142.62 2.326.62 3.52 0 1.567-.351 3.085-1.045 4.513z"></path></defs><use xlink:href="#a" transform="translate(-1493 -499)"></use></svg><svg width="80" height="80" viewBox="0 0 80 80" id="sauce" y="11067"><path fill-rule="evenodd" clip-rule="evenodd" d="M5.272 3.333c-.799 0-1.446.641-1.446 1.431s.647 1.43 1.446 1.43h2.515l1.744 17.47-.06.12C4.438 33.802 0 44.86 0 55.986v5.78c0 2.875 2.366 5.214 5.272 5.214h26.781c2.907 0 5.273-2.34 5.273-5.214v-5.781c0-13.765-4.643-22.799-8.45-30.208-.349-.678-.69-1.343-1.02-1.996l-.061-.12 1.743-17.468h2.515c.8 0 1.447-.64 1.447-1.43 0-.79-.648-1.43-1.447-1.43H5.273zm5.422 2.861h15.937l-.847 8.49H11.542l-.848-8.49zm1.133 11.35h13.671l-.623 6.249c-.027.268.024.539.146.78.549 1.087 1.047 2.065 1.5 2.958 2.741 5.388 3.892 7.65 5.218 11.693l.518 1.58-1.267-1.09c-3.999-3.434-9.252-3.375-13.206.191-1.445 1.303-3.093 1.977-4.764 1.977-1.672 0-3.32-.673-4.765-1.977a11.438 11.438 0 0 0-1.694-1.267l-.32-.196.125-.35c1.745-4.912 3.914-9.514 5.94-13.519.129-.255.176-.538.142-.813l-.002-.01-.619-6.205zm22.605 38.442c0-3.84-.422-7.681-1.242-11.437l-.055-.251-.246-.086c-1.291-.452-2.508-1.183-3.628-2.193-1.445-1.303-3.092-1.977-4.764-1.977-1.672 0-3.32.674-4.764 1.977-2.023 1.825-4.376 2.723-6.713 2.723-3.588 0-5.917-2.023-6.865-2.848-.115-.1-.21-.182-.285-.241l-.544-.432-.195.662c-1.35 4.566-2.238 9.337-2.238 14.104v5.78c0 1.298 1.067 2.353 2.38 2.353h26.78c1.313 0 2.38-1.055 2.38-2.353v-5.781zm6.392-8.402c0-2.305 1.877-4.125 4.133-4.125h30.91c2.255 0 4.133 1.82 4.133 4.125a4.126 4.126 0 0 1-3.045 3.98l-2.128 19.403c-.359 3.266-3.13 5.7-6.386 5.7H52.273c-3.204 0-5.948-2.359-6.37-5.563l-2.597-19.737a4.124 4.124 0 0 1-2.482-3.783zm4.133-1.206c-.715 0-1.246.567-1.246 1.206 0 .64.53 1.207 1.246 1.207h30.91c.715 0 1.246-.567 1.246-1.207 0-.639-.531-1.206-1.247-1.206H44.957zm1.307 5.332l2.502 19.009c.225 1.71 1.707 3.03 3.507 3.03H68.44c1.829 0 3.325-1.361 3.516-3.104l2.077-18.935h-27.77z"></path></svg><svg width="23" height="23" viewBox="0 0 23 23" id="search" y="11147"><path d="M12.989 17.206a7.369 7.369 0 0 1-5.184-2.153l-.002-.002c-2.86-2.865-2.857-7.523.008-10.384a7.293 7.293 0 0 1 5.19-2.148h.004a7.291 7.291 0 0 1 5.19 2.155c2.862 2.865 2.859 7.524-.005 10.384A7.298 7.298 0 0 1 13 17.206zm-11.86 5.649c.29 0 .58-.111.8-.331L7.052 17.4a9.652 9.652 0 0 0 5.936 2.064H13a9.54 9.54 0 0 0 6.785-2.808c3.747-3.742 3.75-9.834.008-13.58A9.54 9.54 0 0 0 13.006.26H13a9.54 9.54 0 0 0-6.786 2.808c-3.475 3.472-3.73 8.967-.76 12.735L.331 20.926a1.127 1.127 0 0 0 0 1.598c.221.22.51.33.799.33z"></path></svg><svg height="512" viewBox="0 -77 512.00213 512" width="512" id="youtube--color" y="11170"><path d="M501.453 56.094c-5.902-21.934-23.195-39.223-45.125-45.13C416.262 0 255.996 0 255.996 0S95.734 0 55.668 10.547C34.16 16.449 16.445 34.164 10.543 56.094 0 96.156 0 179.242 0 179.242s0 83.504 10.543 123.149c5.906 21.93 23.195 39.222 45.129 45.129C96.156 358.484 256 358.484 256 358.484s160.262 0 200.328-10.546c21.934-5.903 39.223-23.196 45.129-45.125C512 262.745 512 179.663 512 179.663s.422-83.508-10.547-123.57zm0 0" fill="red"></path><path d="M204.969 256l133.27-76.758-133.27-76.758zm0 0" fill="#fff"></path></svg></svg>