<svg width="632" height="456" viewBox="0 0 632 456" fill="none" xmlns="http://www.w3.org/2000/svg">
<path d="M602.49 376.323H88.6521C72.4218 376.323 59.1424 381.866 59.1424 388.641C59.1424 393.322 65.5362 397.387 74.8809 399.481H29.5097C13.2794 399.481 0 405.024 0 411.799C0 418.574 13.2794 424.118 29.5097 424.118H45.2482C40.8218 426.212 38.1167 429.045 38.1167 432.001V436.929C38.1167 443.704 51.3961 449.247 67.6265 449.247H573.841C590.072 449.247 603.351 443.704 603.351 436.929V432.001C603.351 425.226 590.072 419.683 573.841 419.683L539.413 419.929C541.995 419.929 546.299 419.067 549.127 417.342C554.168 414.263 554.414 409.705 551.955 405.887C550.356 403.423 547.774 401.452 541.504 400.713L602.367 400.836C618.598 400.836 631.877 395.293 631.877 388.518C632 381.866 618.721 376.323 602.49 376.323Z" fill="#F1F2F6"/>
<path d="M303.212 184.528L331.37 216.185L336.78 253.879L346.125 253.756L347.354 207.932L313.541 159.029L303.212 184.528Z" fill="#FFEDD8"/>
<path d="M338.993 252.032L345.141 251.662L347.108 261.64L341.944 265.582L336.78 263.611L338.747 259.176H337.64L336.534 260.408L335.304 259.299L338.993 252.032Z" fill="#F7D0B1"/>
<path d="M281.449 419.067L280.465 424.117L270.014 427.443L266.202 421.654L271.981 417.466L282.433 414.14L281.449 419.067Z" fill="#313232"/>
<path d="M303.827 294.899L282.187 417.589L272.473 417.958L266.694 332.716L263.866 290.341L303.827 294.899Z" fill="#C4C5CC"/>
<path d="M333.337 293.667L319.443 413.893L310.467 414.632L300.999 322.492L293.499 295.392L333.337 293.667Z" fill="#C4C5CC"/>
<path d="M310.467 413.523L310.959 418.697L321.041 423.008L325.468 417.465L320.181 412.661L310.467 413.523Z" fill="#313232"/>
<path d="M266.202 297.116L261.776 282.95L266.202 266.937L333.337 269.277V293.667L266.202 297.116Z" fill="#C4C5CC"/>
<path d="M280.957 164.695L258.087 128.849L258.702 90.7855L249.48 89.5537L240.996 134.515L266.694 188.1L280.957 164.695Z" fill="#FFEDD8"/>
<path d="M256.12 92.2637L250.095 91.771L249.849 81.5468L255.505 78.4673L260.177 81.3005L257.595 85.3655L258.702 85.4887L259.931 84.38L261.038 85.6119L256.12 92.2637Z" fill="#F7D0B1"/>
<path d="M301.245 121.088C294.605 125.277 285.261 122.813 279.113 127.863C275.178 131.066 273.703 136.979 274.686 142.153C275.178 144.616 276.039 146.957 277.76 148.804C278.867 149.913 280.219 150.775 281.572 151.391C283.416 152.254 285.507 152.746 287.597 152.746C287.474 154.594 287.105 156.442 286.613 158.289C290.425 157.797 294.237 157.427 298.048 156.934C297.802 154.717 297.556 152.5 297.31 150.283C298.294 149.667 299.155 149.051 299.893 148.312C304.811 143.877 306.901 136.363 305.18 129.711C304.442 126.755 302.844 123.922 301.245 121.088Z" fill="#F7D0B1"/>
<path d="M283.785 126.632C284.031 126.508 284.277 126.385 284.646 126.385C288.703 125.03 292.884 124.661 297.065 125.153C298.663 125.276 300.139 125.646 301.491 126.385C303.458 127.494 304.811 129.588 305.549 131.805C306.286 134.022 306.286 136.363 306.286 138.703C307.27 138.457 307.885 137.718 308.5 136.979C310.221 134.762 312.065 131.928 312.557 129.095C313.172 126.262 312.065 122.936 313.295 120.226C313.787 118.994 315.016 118.132 315.877 117.023C317.721 114.683 318.336 111.48 317.475 108.647C316.861 106.799 315.754 105.198 314.033 104.335C311.205 102.98 307.762 104.089 304.811 103.473C303.212 103.104 301.86 102.365 300.261 102.118C296.942 101.502 293.745 103.473 291.286 105.69C288.826 107.908 286.49 110.495 283.416 111.85C280.957 112.958 278.129 113.081 275.67 113.944C271.489 115.422 268.047 118.994 266.571 123.182C264.973 127.987 265.342 133.899 268.784 137.595C270.506 139.442 271.981 141.537 273.457 143.631C273.949 144.37 276.9 147.08 276.654 144.247C276.531 142.029 275.547 139.935 275.424 137.718C275.055 132.421 279.113 128.356 283.785 126.632Z" fill="#F7AA54"/>
<path d="M312.926 158.659L280.465 155.949C280.465 155.949 269.768 169.869 257.964 210.026C246.16 250.184 254.89 285.783 254.89 285.783C254.89 285.783 291.532 279.132 343.174 285.168L328.173 185.513L312.926 158.659Z" fill="#FFEDD8"/>
<path d="M447.933 157.92L445.105 148.681L448.917 147.203L452.237 153.116L453.835 151.638L455.188 159.891L451.499 161.862L447.933 157.92Z" fill="#F7D0B1"/>
<path d="M483.345 161.862L465.762 179.354L455.679 156.935L448.302 161.246L460.475 208.918L492.567 185.02L483.345 161.862Z" fill="#A9D96B"/>
<path d="M514.33 265.212L504.247 338.013L507.813 390.612L500.436 393.199L493.796 344.542L479.779 255.727L514.33 265.212Z" fill="#F7D0B1"/>
<path d="M500.436 394.677L499.575 400.097L501.419 410.567L507.567 409.951L508.674 394.553L507.813 392.09L500.436 394.677Z" fill="#554942"/>
<path d="M454.696 262.995L458.016 324.832L471.787 411.183L479.164 411.06L475.844 330.991L485.558 257.205L454.696 262.995Z" fill="#F7D0B1"/>
<path d="M471.91 409.705L462.319 416.726L463.549 421.9L481.009 417.712L479.533 410.198L471.91 409.705Z" fill="#554942"/>
<path d="M453.097 272.233L453.466 344.049L462.196 392.336L482.115 389.133L481.5 333.209L485.681 271.864L483.591 262.502L454.819 265.828L453.097 272.233Z" fill="#D0B499"/>
<path d="M488.509 334.317L494.657 385.192L511.994 382.482L508.059 334.071L514.453 272.11L510.764 255.357L481.623 260.285L488.509 334.317Z" fill="#D0B499"/>
<path d="M523.06 135.624C521.707 123.06 505.723 115.299 498.837 128.11C496.747 131.929 495.149 136.24 495.026 140.551C494.903 144.986 496.624 149.544 500.067 152.131C499.698 153.239 499.329 154.225 498.96 155.333C498.837 155.58 498.837 155.826 498.837 156.072C498.96 156.319 499.206 156.442 499.452 156.565C500.682 157.058 501.911 157.551 503.141 157.92C503.756 158.167 504.37 158.413 505.108 158.29C506.584 158.167 507.444 156.565 507.813 155.21C507.936 154.841 507.936 154.471 508.059 154.225C516.42 153.239 523.921 143.877 523.06 135.624Z" fill="#F6CFB1"/>
<path d="M498.591 131.929C496.255 134.762 495.763 138.457 495.64 142.03C495.64 145.479 494.657 148.805 495.026 152.254C494.534 152.746 493.796 152.254 493.427 151.761C490.845 149.051 488.263 146.341 485.804 143.508C485.558 143.261 485.312 142.892 485.189 142.522C485.066 142.03 485.189 141.537 485.189 141.044C487.279 131.682 492.075 125.4 498.468 118.748C501.542 115.545 509.043 112.589 512.24 117.516C512.977 118.625 513.1 120.103 513.1 121.335C513.1 122.197 513.1 122.936 512.855 123.675C511.625 126.632 508.797 126.016 506.461 126.632C503.387 127.617 500.559 129.588 498.591 131.929Z" fill="#313232"/>
<path d="M519.002 141.414C518.633 144.124 517.527 147.08 516.297 149.544C515.928 150.406 513.838 152.254 513.715 152.746C513.346 154.471 516.297 159.152 516.912 160.753C522.937 158.536 529.085 156.195 535.11 153.978C535.602 153.855 536.093 153.609 536.339 153.239C536.585 152.87 536.708 152.377 536.831 152.007C538.553 143.138 537.446 134.885 535.356 126.262C533.265 117.763 526.626 110.002 517.65 109.263C510.395 108.647 504.493 113.205 505.969 120.965C507.075 126.878 513.838 129.095 517.158 133.53C519.125 136.363 519.494 138.95 519.002 141.414Z" fill="#313232"/>
<path d="M515.191 159.275C515.314 159.398 515.437 159.398 515.56 159.521C522.076 162.971 526.011 175.289 528.347 182.557C534.126 201.157 535.356 219.881 533.634 239.344C532.651 249.814 531.298 260.285 529.7 270.632C529.208 273.465 523.429 298.964 524.781 299.826C511.994 291.696 498.837 283.813 484.82 278.269C470.803 272.726 455.679 277.653 440.679 279.008C449.163 246.858 459.737 206.084 473.016 175.658C474.615 171.963 475.844 168.021 477.935 164.695C480.394 160.753 483.345 160.014 487.279 158.043C488.632 157.427 489.984 156.688 491.337 156.319C498.714 154.225 508.305 155.703 515.191 159.275Z" fill="#A9D96B"/>
<path d="M459.737 233.924C456.663 234.047 453.712 234.293 450.638 234.54C450.515 233.184 450.392 231.953 450.392 230.598C452.482 229.982 454.45 229.366 456.54 228.75C456.171 228.134 455.925 227.641 455.556 227.025C458.139 227.272 460.844 227.518 463.426 227.764C463.672 229.119 464.04 230.475 464.286 231.706C462.811 232.322 461.212 233.061 459.737 233.924Z" fill="#F7D0B1"/>
<path d="M508.182 168.39C507.444 168.514 506.707 169.006 505.969 169.499C503.141 171.593 501.296 174.55 500.436 177.875C499.083 183.172 499.452 188.346 498.468 193.52C497.239 199.432 495.517 204.976 493.673 210.642C483.099 217.048 472.402 222.344 460.721 226.409C461.458 228.996 462.073 231.706 462.811 234.293C478.672 231.706 493.181 226.779 508.182 221.113C510.518 212.859 512.854 204.852 514.576 196.476C516.174 188.962 518.388 181.201 516.42 173.564C515.56 169.499 512.363 167.528 508.182 168.39Z" fill="#A9D96B"/>
<path d="M188.247 221.852L185.419 227.272L193.903 233.062L199.437 229.982L199.682 224.439H194.887L195.379 223.453L196.977 222.961L196.486 221.359L188.247 221.852Z" fill="#F7D0B1"/>
<path d="M140.909 161.862L158.615 200.418L190.953 220.497L186.895 228.997L144.598 211.751L113.49 161.123L140.909 161.862Z" fill="#8EA595"/>
<path d="M108.571 403.3L108.202 407.734L105.251 411.43C105.251 411.43 104.391 416.973 105.989 417.959C107.588 418.944 132.917 421.9 132.917 421.9L135.499 417.959L133.409 413.647L120.006 407.488L115.457 402.314L108.571 403.3Z" fill="#A18675"/>
<path d="M135.13 393.568L134.761 398.126L131.81 401.822C131.81 401.822 130.949 407.365 132.548 408.227C134.146 409.089 159.107 412.169 159.107 412.169L161.689 408.227L159.598 403.916L146.442 397.757L141.893 392.583L135.13 393.568Z" fill="#A18675"/>
<path d="M104.637 314.855C106.85 319.413 108.817 323.601 109.186 329.514C109.555 335.303 108.448 341.093 107.588 346.882C104.76 366.838 105.005 387.04 105.251 407.242C112.137 407.488 119.146 407.734 126.031 407.734C127.261 407.734 128.49 407.611 129.351 406.749C130.089 405.887 130.089 404.532 129.966 403.3C128.367 389.011 128.49 374.475 128.736 360.186C128.859 353.165 129.105 347.005 130.581 340.23C132.056 333.455 131.81 326.434 131.318 319.536C130.212 302.66 126.769 286.153 125.785 269.277C125.662 266.198 125.293 262.995 123.326 260.655C120.99 257.821 116.932 257.329 113.244 257.329C103.161 257.329 91.726 258.93 91.2342 271.248C91.1113 275.313 92.0949 279.378 93.3245 283.32C95.9066 292.312 98.7346 301.428 102.423 310.051C103.038 311.652 103.899 313.253 104.637 314.855Z" fill="#768668"/>
<path d="M132.794 307.094C134.884 311.775 136.728 316.087 136.851 322C136.974 327.789 135.499 333.579 134.269 339.245C130.212 359.077 129.474 379.279 128.736 399.358C136.114 399.974 143.491 400.467 150.868 400.836C152.098 400.836 153.574 400.836 154.434 400.097C155.295 399.235 155.295 397.88 155.172 396.771C153.942 378.91 152.59 360.925 153.942 343.064C154.434 336.166 155.295 329.39 155.664 322.615C156.402 309.312 155.295 295.885 153.697 282.704C152.713 274.574 154.065 257.082 145.827 252.155C142.139 249.938 137.343 249.568 133.04 250.307C130.826 250.677 128.613 251.293 126.769 252.401C123.203 254.619 121.236 258.807 120.867 262.872C120.498 266.937 121.359 271.002 122.465 275.067C124.802 284.183 127.384 293.421 130.704 302.29C131.318 303.769 132.056 305.493 132.794 307.094Z" fill="#768668"/>
<path d="M96.6443 153.609C91.3572 156.812 87.2996 161.616 85.9471 168.76C79.6763 201.034 83.4879 234.293 87.4226 267.06C87.6685 269.277 88.1603 271.741 89.8817 273.096C91.972 274.574 94.8 273.958 97.2591 273.219C116.44 267.553 135.991 263.488 155.787 261.147C154.557 237.127 152.221 213.229 148.778 189.332C147.795 182.926 146.811 176.398 144.475 170.362C139.065 156.935 130.089 147.327 114.842 148.558C108.325 149.051 101.809 150.529 96.6443 153.609Z" fill="#8EA595"/>
<path d="M129.966 121.951C130.212 126.016 130.458 130.451 128.367 134.023C126.646 137.103 123.449 139.074 121.113 141.537C119.637 143.139 118.408 145.11 118.162 147.327C117.916 149.421 119.023 151.269 119.023 153.363C119.023 153.609 119.023 153.732 118.9 153.979C118.777 154.225 118.654 154.348 118.408 154.348C117.424 154.841 116.318 154.841 115.211 154.841C113.981 154.841 112.506 154.964 111.276 154.841C109.555 154.595 109.924 154.348 109.801 152.624C109.555 150.037 109.186 147.573 108.448 145.11C106.727 140.059 103.161 135.871 102.177 130.574C101.071 124.784 102.792 119.118 104.514 113.575C105.374 111.111 106.235 108.524 107.956 106.553C111.645 102.242 120.375 100.764 124.556 105.198C129.474 110.618 129.474 114.93 129.966 121.951Z" fill="#FCE2D9"/>
<path d="M128.613 119.118C131.318 122.813 131.81 128.11 129.72 132.175C132.794 129.958 134.269 126.139 135.007 122.321C135.376 120.227 135.499 118.132 135.253 116.038C134.515 109.387 129.228 103.351 122.711 102.488C118.408 101.872 118.408 107.416 120.129 110.126C122.219 113.575 126.154 115.792 128.613 119.118Z" fill="#9A6334"/>
<path d="M117.178 98.9159C114.719 97.8073 111.891 97.6841 109.186 97.9304C105.497 98.3 98.1198 99.2854 93.6934 102.119C91.2342 96.8218 84.1027 92.7568 78.8156 95.59C75.7416 97.1913 74.3891 100.64 75.8646 103.474C76.2335 104.213 76.7253 104.829 77.3401 105.321C77.8319 105.814 78.5696 106.06 79.0615 106.553C80.7829 108.401 79.1844 111.111 77.8319 113.205C76.3564 115.546 75.3728 118.132 74.8809 120.842C74.635 122.321 74.5121 123.922 75.1268 125.277C75.8646 126.632 77.463 127.864 79.3074 127.741C82.6272 127.617 83.242 124.784 83.4879 122.197C83.7338 119.241 84.2257 116.654 85.5782 113.944C86.07 112.959 86.6848 111.85 87.7914 111.604C88.0373 111.604 88.1603 111.48 88.4062 111.48C87.6685 113.944 87.2996 116.408 87.6685 119.241C88.4062 124.784 90.4965 130.081 93.8163 134.516C97.1362 138.95 101.932 142.276 107.219 143.877C107.588 140.552 104.022 137.965 103.407 134.639C103.038 132.791 103.653 130.943 104.514 129.342C105.497 127.741 106.727 126.386 108.079 125.154C110.293 122.936 112.506 120.719 114.719 118.379C116.563 116.531 118.408 114.683 119.76 112.466C122.588 107.785 122.465 101.503 117.178 98.9159Z" fill="#9A6334"/>
<path d="M302.106 44.5923C303.212 46.44 304.073 48.5341 305.057 50.3818C309.114 57.4032 313.172 64.4246 317.107 71.446L303.827 79.3297C295.958 84.0106 295.712 89.677 303.458 91.8943L325.099 98.1766C332.722 100.394 345.387 104.089 353.01 106.307L374.651 112.589C382.274 114.806 390.02 110.249 391.865 102.488L396.783 80.5615C398.504 72.801 401.455 59.9901 403.177 52.1064L408.095 30.1799C409.816 22.4194 404.898 19.8326 396.906 24.5135L383.381 32.5204C378.462 24.0208 373.421 15.6444 371.577 12.5648C367.15 5.54343 358.789 0.246582 342.313 0.246582C330.14 0.369764 297.556 0.492947 277.023 0.616129C280.465 6.52889 283.785 12.5648 287.228 18.4776C292.146 26.9772 297.065 35.8463 302.106 44.5923Z" fill="#7ECA1D"/>
<path d="M201.404 73.7864L244.931 99.4083C251.447 103.227 259.932 101.01 263.743 94.6042C263.743 94.6042 288.335 54.2004 290.548 50.3817C292.146 47.6717 294.114 46.563 295.835 46.9326C296.45 47.0558 296.942 46.4399 296.696 45.9471L270.752 0.369629C263.62 0.369629 257.964 0.492811 255.013 0.492811C243.701 0.615994 230.668 2.58691 221.569 16.3833C214.56 27.1002 196.855 55.4322 196.855 55.4322C192.92 61.7145 194.887 70.0909 201.404 73.7864Z" fill="#7ECA1D"/>
<path d="M388.053 203.867C385.84 203.867 383.749 203.744 381.536 203.744C373.421 203.621 365.429 203.375 357.314 203.128L357.437 187.73C357.56 178.492 352.764 175.412 346.985 180.832L330.386 196.107C324.484 201.527 314.893 210.396 308.991 215.816L292.392 231.091C286.49 236.511 286.367 245.503 292.146 251.046L308.377 266.69C314.156 272.234 323.623 281.349 329.279 286.892L345.51 302.536C351.289 308.08 356.084 305.123 356.207 295.885L356.33 280.117C366.167 280.24 375.88 280.364 379.569 280.364C387.807 280.24 396.783 275.806 405.144 261.64C411.415 251.169 428.137 223.207 438.588 205.469C431.703 205.346 424.94 205.099 418.054 204.976C408.218 204.606 398.012 204.114 388.053 203.867Z" fill="#7ECA1D"/>
<path d="M453.712 149.79C448.179 138.211 433.178 108.401 433.178 108.401C429.858 101.749 421.62 99.1619 415.104 102.734L370.716 126.755C364.076 130.327 361.617 138.703 365.06 145.355C365.06 145.355 386.946 187.361 388.914 191.179C390.389 194.012 390.389 196.23 389.16 197.462C388.668 197.954 389.037 198.693 389.651 198.693L442.031 200.048C445.72 193.889 448.548 189.085 450.146 186.498C455.802 176.89 460.844 164.695 453.712 149.79Z" fill="#7ECA1D"/>
<path d="M204.109 199.679C205.216 197.831 206.445 195.983 207.552 194.136C211.486 186.991 215.421 179.97 219.479 173.072L233.004 180.462C240.996 184.897 246.037 182.187 243.947 174.427L238.291 152.623C236.324 144.863 233.004 132.175 231.037 124.414L225.381 102.611C223.413 94.8507 215.544 90.5393 207.921 93.0029L186.526 99.9012C178.903 102.365 166.484 106.43 158.861 108.893L137.466 115.792C129.843 118.255 130.212 123.922 138.204 128.356L151.975 135.994C147.18 144.616 142.507 153.239 140.909 156.442C137.097 163.833 136.851 173.811 145.335 187.853C151.606 198.324 168.451 226.286 179.026 243.901C182.346 237.989 185.788 231.953 189.108 226.04C194.149 217.171 199.191 208.425 204.109 199.679Z" fill="#7ECA1D"/>
<path d="M266.694 206.947C266.694 206.947 219.479 206.454 215.052 206.454C211.855 206.454 209.888 205.345 209.396 203.621C209.15 203.005 208.412 202.882 208.044 203.498L182.1 249.198C185.788 255.358 188.739 260.162 190.215 262.748C196.117 272.48 204.355 282.581 220.954 283.443C233.619 284.059 267.063 284.798 267.063 284.798C274.563 284.921 280.588 279.009 280.588 271.494L280.342 220.866C280.342 213.229 274.195 207.07 266.694 206.947Z" fill="#7ECA1D"/>
<path d="M165.132 208.671L163.41 214.584L173.001 218.402L177.796 214.214L176.812 208.671L172.017 209.78L172.386 208.671L173.739 207.932L173.001 206.454L165.132 208.671Z" fill="#F7D0B1"/>
<path d="M105.989 160.63C106.235 160.63 106.481 160.753 106.727 160.876C107.711 161.369 108.571 163.463 109.309 164.202C112.26 168.144 115.211 172.086 118.162 176.028C121.236 180.216 124.31 184.281 127.384 188.469C128.244 189.578 130.212 193.52 131.564 194.012L167.468 206.7L165.377 215.816L120.252 208.178C114.965 202.635 109.678 197.092 104.391 191.672C98.9806 186.005 82.6272 174.919 91.849 166.296C93.5704 164.695 95.7837 163.586 97.9969 162.724C100.087 161.862 103.653 160.137 105.989 160.63Z" fill="#8EA595"/>
</svg>
