<svg width="253" height="135" viewBox="0 0 253 135" fill="none" xmlns="http://www.w3.org/2000/svg">
<path fill-rule="evenodd" clip-rule="evenodd" d="M225.312 46.1768L250.707 61.8119L222.794 100.76C222.123 101.712 220.893 101.88 219.942 101.264L204.056 91.457C203.105 90.8405 202.713 89.6637 203.217 88.655L225.312 46.1768Z" fill="#83ABD6"/>
<path fill-rule="evenodd" clip-rule="evenodd" d="M217.76 60.8032L241.253 75.2055L233.422 86.1893L211.439 72.6837L217.76 60.8032Z" fill="#D4D6D8"/>
<path fill-rule="evenodd" clip-rule="evenodd" d="M251.881 62.5405L223.689 45.1682L226.206 42.5903L253 59.1221L251.881 62.5405Z" fill="#E3EAF1"/>
<path fill-rule="evenodd" clip-rule="evenodd" d="M225.312 46.1768L250.707 61.8119L249.308 63.7172L224.249 48.2502L225.312 46.1768Z" fill="#6891BD"/>
<path fill-rule="evenodd" clip-rule="evenodd" d="M219.55 95.5482L228.556 83.2194L230.514 84.4523L221.564 96.781L219.55 95.5482ZM236.499 72.2916L244.777 60.9155L246.679 62.1484L238.457 73.5245L236.499 72.2916Z" fill="#A0C3DA"/>
<path fill-rule="evenodd" clip-rule="evenodd" d="M228.556 83.2193L236.499 72.2915L238.401 73.4683L230.514 84.3961L228.556 83.2193Z" fill="#E3EAF1"/>
<path fill-rule="evenodd" clip-rule="evenodd" d="M204.615 86.3574L224.528 98.6301L222.906 100.816C222.235 101.768 221.004 101.937 220.054 101.32L204.168 91.5131C203.217 90.8966 202.825 89.7198 203.329 88.7111L204.615 86.3574Z" fill="#6891BD"/>
<path fill-rule="evenodd" clip-rule="evenodd" d="M203.161 90.28C202.993 89.7756 202.993 89.1592 203.273 88.6548L211.551 72.7395L214.963 74.813L207.971 88.3746L204.615 86.3012L203.329 88.7109C203.049 89.2152 202.993 89.7756 203.161 90.28ZM215.411 65.2862L224.249 48.3062L227.549 50.3236L221.116 62.8765L217.816 60.8591L215.411 65.2862Z" fill="#6891BD"/>
<path fill-rule="evenodd" clip-rule="evenodd" d="M211.551 72.7397L215.411 65.2864L217.76 60.8032L221.116 62.8207L214.907 74.8132L211.551 72.7397Z" fill="#C9CBCE"/>
<path fill-rule="evenodd" clip-rule="evenodd" d="M225.312 46.1768L228.612 48.1942L225.312 46.1768Z" fill="#E14239"/>
<path fill-rule="evenodd" clip-rule="evenodd" d="M225.312 46.1771L225.367 46.1211L228.612 48.1385V48.1946L225.312 46.1771Z" fill="#FACCAE"/>
<path fill-rule="evenodd" clip-rule="evenodd" d="M224.249 48.2502L225.312 46.1768L228.612 48.1942L227.549 50.2677L224.249 48.2502Z" fill="#6891BD"/>
<path fill-rule="evenodd" clip-rule="evenodd" d="M203.888 91.2889C203.552 91.0087 203.273 90.6725 203.161 90.2802C202.993 89.7759 203.049 89.2155 203.329 88.7671L204.615 86.3574L207.971 88.4309L206.685 90.9527C206.293 91.6812 206.405 92.5218 206.908 93.1943L204.112 91.457C204 91.401 203.944 91.345 203.888 91.2889Z" fill="#6891BD"/>
<path fill-rule="evenodd" clip-rule="evenodd" d="M73.5021 79.3523V80.2489V99.5266V100.423C73.5021 104.962 69.8103 108.661 65.2795 108.661H18.1251C13.5943 108.661 9.9025 104.962 9.9025 100.423V79.3523C9.9025 74.813 13.5943 71.1144 18.1251 71.1144H65.2795C69.8103 71.0583 73.5021 74.813 73.5021 79.3523Z" fill="#DAE0E8"/>
<path fill-rule="evenodd" clip-rule="evenodd" d="M73.5003 99.5265V100.423C73.5003 104.962 69.8086 108.661 65.2777 108.661H19.1862C18.0675 108.661 17.3962 108.661 16.6131 108.493C14.8232 108.157 13.4247 107.316 12.362 106.307C10.9076 104.85 10.0686 103.001 9.90075 101.32C9.90075 101.208 9.84482 100.591 9.84482 98.9661C11.1873 99.9748 13.5366 101.264 15.3266 101.264H65.2218C69.7526 101.264 73.4444 97.5651 73.4444 93.0259V99.5265H73.5003Z" fill="#CBD2DB"/>
<path fill-rule="evenodd" clip-rule="evenodd" d="M17.1725 88.0948V82.6029C17.1725 80.025 19.2981 77.8955 21.8711 77.8955H61.5859C64.998 77.8955 66.6202 80.1931 66.6202 83.4995V88.8793C65.5574 86.6377 63.264 85.1246 60.635 85.1246H22.7102C20.4168 85.1807 18.4031 86.3015 17.1725 88.0948Z" fill="#EAEEF2"/>
<path fill-rule="evenodd" clip-rule="evenodd" d="M86.1419 100.143C89.1625 104.234 95.3155 100.255 92.7424 95.8283C89.4981 90.2803 86.3097 84.6764 83.0654 79.1284C90.9525 72.4597 98.8395 65.7909 106.727 59.1782C112.656 66.1272 118.809 72.7959 125.353 79.1845C128.542 82.2667 133.912 77.6714 131.283 74.0288C129.772 71.9553 95.9867 26.7872 80.9958 7.50949C79.2618 5.2679 76.7446 5.2679 74.7309 7.06117C65.4455 15.187 54.8176 21.9678 43.5185 27.1234C41.1691 28.1882 39.9385 30.654 41.3929 33.0637C55.321 56.04 70.256 78.4559 86.1419 100.143Z" fill="#E2E8F3"/>
<path fill-rule="evenodd" clip-rule="evenodd" d="M107.789 58.3936C107.174 58.898 107.118 59.7946 107.621 60.355C112.544 65.8469 120.375 74.0848 125.241 78.8482C126.416 80.025 127.926 80.081 129.213 79.5206C123.675 73.9727 115.117 64.8382 109.635 58.5617C109.188 58.0013 108.349 57.9453 107.789 58.3936Z" fill="#D6DDEA"/>
<path fill-rule="evenodd" clip-rule="evenodd" d="M86.4216 99.9753C87.7641 101.825 89.7778 102.049 91.344 101.264C75.7378 79.9691 61.1384 58.0014 47.4899 35.4174C46.0356 33.0077 47.2102 30.5419 49.6155 29.4772C60.9146 24.3775 71.5426 17.5407 80.8839 9.35885C81.3314 8.96657 81.7789 8.68637 82.2264 8.46221C81.9467 8.06993 81.6111 7.67765 81.3314 7.28537C79.5974 5.04378 77.0802 5.04378 75.0665 6.83705C65.7252 15.0189 55.0973 21.7997 43.7981 26.9554C41.4488 28.0201 40.2182 30.4859 41.6725 32.8956C55.5448 55.928 70.4798 78.2879 86.4216 99.9753Z" fill="#D6DDEA"/>
<path fill-rule="evenodd" clip-rule="evenodd" d="M101.357 51.3887C85.7504 45.1123 73.78 56.7686 77.5837 70.106C77.5837 70.106 74.1156 70.6664 73.2207 66.6316C72.3816 62.6527 73.0529 49.2592 71.4307 43.9915C69.7526 38.7798 87.7082 31.4946 98.3361 43.375C107.062 53.182 101.357 51.3887 101.357 51.3887Z" fill="#EEF2F8"/>
<path fill-rule="evenodd" clip-rule="evenodd" d="M63.8793 42.4784C64.6065 41.1334 64.7743 39.6203 65.5574 38.2754C66.6202 36.4261 67.9067 35.5294 69.7526 34.5767C70.9832 33.9603 71.5426 32.2231 69.7526 31.9429C69.0814 31.8308 68.2983 32.111 67.5711 32.5033C65.6693 32.8955 63.8793 33.8482 62.5928 35.3613C61.1384 37.0425 59.74 40.3488 60.635 42.5904C61.1943 44.2716 63.1521 43.8794 63.8793 42.4784Z" fill="#EEF2F8"/>
<path fill-rule="evenodd" clip-rule="evenodd" d="M127.087 75.0933C125.297 67.2477 116.851 63.8853 110.81 61.0833C107.23 59.4021 103.538 57.8891 99.7904 56.6002C96.1546 55.3673 92.4068 54.3025 88.6032 55.1431C82.1146 56.6002 77.7515 63.2129 75.9616 69.8256C74.7869 74.1406 74.5632 78.7359 74.0038 83.2191C73.78 84.7882 73.4444 86.3573 73.1088 87.9264C71.9901 91.0086 71.7104 94.4831 72.5494 97.8455C74.1716 104.626 80.3805 109.278 86.7013 109.278C89.8897 109.278 92.9103 107.989 95.4274 105.915C97.6649 104.122 99.7345 101.488 102.364 100.311C104.825 99.2465 107.622 99.4146 110.251 99.1904C113.383 98.9102 116.683 98.4059 119.312 96.4445C122.221 94.2589 123.899 91.0086 125.297 87.5902C126.864 83.6114 128.038 79.3523 127.087 75.0933Z" fill="#E2E8F3"/>
<path fill-rule="evenodd" clip-rule="evenodd" d="M98.0005 63.6051C95.0918 63.2688 92.239 63.437 89.3304 63.8292C87.0929 64.1655 85.8623 67.0235 86.4217 68.9849C87.0929 71.3946 89.3304 72.2352 91.5678 71.899C93.6934 71.6188 95.8749 71.7309 98.0005 71.955C100.238 72.2352 102.196 69.8255 102.196 67.752C102.196 65.3423 100.238 63.8853 98.0005 63.6051Z" fill="#EEF2F8"/>
<path fill-rule="evenodd" clip-rule="evenodd" d="M243.994 76.3824C242.204 68.5368 233.758 65.1744 227.717 62.3724C224.137 60.6912 220.445 59.1781 216.697 57.8892C213.061 56.6563 209.314 55.5916 205.51 56.4322C199.021 57.8892 194.658 64.5019 192.868 71.1146C191.694 75.4297 191.47 80.0249 190.911 84.5081C190.687 86.0772 190.351 87.6464 190.016 89.2155C188.897 92.2977 188.617 95.7721 189.456 99.1345C191.079 105.915 197.287 110.567 203.608 110.567C206.797 110.567 209.817 109.278 212.334 107.204C214.572 105.411 216.641 102.777 219.27 101.6C221.732 100.536 224.528 100.704 227.157 100.479C230.29 100.199 233.59 99.6949 236.219 97.7335C239.128 95.548 240.806 92.2977 242.204 88.8792C243.715 84.9004 244.945 80.6414 243.994 76.3824Z" fill="#E2E8F3"/>
<path fill-rule="evenodd" clip-rule="evenodd" d="M214.851 64.8942C211.943 64.5579 209.09 64.726 206.181 65.1183C203.944 65.4545 202.713 68.3126 203.273 70.274C203.944 72.6837 206.181 73.5243 208.419 73.1881C210.544 72.9079 212.726 73.0199 214.851 73.2441C217.089 73.5243 219.047 71.1146 219.047 69.0411C219.047 66.5753 217.089 65.1744 214.851 64.8942Z" fill="#EEF2F8"/>
<path fill-rule="evenodd" clip-rule="evenodd" d="M171.613 116.619L187.219 125.249C190.799 127.21 193.54 126.146 195.497 122.559L223.13 72.3473C225.088 68.7608 223.801 64.2776 220.221 62.2601L207.076 55.031C203.496 53.0696 199.021 54.3585 197.064 57.9451L169.431 108.157C167.473 111.687 168.033 114.657 171.613 116.619Z" fill="#F4C379"/>
<path fill-rule="evenodd" clip-rule="evenodd" d="M216.809 42.4219L225.591 47.2973L224.025 69.321L199.133 55.5352L216.809 42.4219Z" fill="#F4C379"/>
<path fill-rule="evenodd" clip-rule="evenodd" d="M223.242 30.5977L232.583 35.7533L225.2 48.6985L215.858 43.5429L223.242 30.5977Z" fill="#F4C379"/>
<path fill-rule="evenodd" clip-rule="evenodd" d="M220.501 33.6239L231.353 39.6202L234.709 33.4558C233.702 31.8306 231.8 30.3736 230.122 29.3649C228.276 28.3001 225.871 27.4035 223.913 27.4595L220.501 33.6239Z" fill="#6891BD"/>
<path d="M220.021 35.0575L219.239 36.481L229.577 42.1851L230.359 40.7616L220.021 35.0575Z" fill="#6891BD"/>
<path d="M195.183 69.9368L184.093 90.1108L188.993 92.8142L200.083 72.6401L195.183 69.9368Z" fill="#FDD8A3"/>
<path d="M184.106 90.1106L172.446 111.315L177.346 114.019L189.005 92.8145L184.106 90.1106Z" fill="#FDD8A3"/>
<path d="M201.103 59.2564L195.219 69.957L200.118 72.661L206.002 61.9604L201.103 59.2564Z" fill="#FDD8A3"/>
<path fill-rule="evenodd" clip-rule="evenodd" d="M217.76 46.6812L216.53 45.9526L201.091 59.2341L206.013 61.924L217.76 46.6812Z" fill="#FDD8A3"/>
<path fill-rule="evenodd" clip-rule="evenodd" d="M161.264 76.1585C163.166 74.9256 164.341 73.0763 165.012 70.9468C165.012 70.9468 165.236 71.227 166.187 67.136C167.138 63.0451 166.578 60.7475 164.956 58.4499C156.79 47.8583 161.097 34.3527 172.675 27.9081L181.122 23.9853C183.639 22.8085 185.597 20.9592 186.715 18.4374L193.708 3.30664L203.776 6.50091L200.755 22.9766C200.252 25.7226 200.755 28.4125 202.098 30.8222L206.741 38.8359C212.502 50.8284 208.083 64.222 195.442 68.2008C195.442 68.2008 190.575 69.5458 188.953 74.4212L187.778 78.2319C187.107 80.3615 187.275 82.6591 188.114 84.7326L189.568 89.7201C192.141 96.1087 188.785 110.343 186.66 116.899L186.715 116.843C185.653 120.206 182.744 122.391 179.444 122.672C178.605 122.672 177.822 122.559 176.983 122.335C174.801 121.663 173.067 120.486 172.116 118.805L173.626 114.097C173.906 113.145 173.403 112.192 172.452 111.856C171.501 111.576 170.55 112.08 170.214 113.033L168.704 117.796C166.97 118.525 164.9 118.469 162.775 117.796C159.419 116.731 156.957 114.434 157.013 111.071C155.167 113.817 151.811 114.322 148.399 113.257C148.119 113.145 147.84 113.033 147.56 112.921C144.484 110.903 142.973 106.98 144.148 103.282C146.218 96.7251 151.643 83.1635 157.405 79.4648L161.264 76.1585Z" fill="#D1D6E1"/>
<path fill-rule="evenodd" clip-rule="evenodd" d="M204 5.6602L193.987 2.52197L187.722 16.3078L201.203 20.5668L204 5.6602Z" fill="#D1D6E1"/>
<path fill-rule="evenodd" clip-rule="evenodd" d="M201.539 65.3426L161.712 52.6776C158.468 45.1122 162.551 34.3526 169.319 29.9814L208.475 42.4223C211.383 49.8756 208.531 61.0836 201.539 65.3426Z" fill="#78ABDF"/>
<path fill-rule="evenodd" clip-rule="evenodd" d="M181.234 122.335C183.807 121.607 185.932 119.589 186.827 116.731L186.771 116.787C188.841 110.231 192.197 95.9965 189.624 89.608L188.45 85.5731L188.226 85.5171L189.456 89.7201C192.029 96.1086 188.673 110.343 186.548 116.899L186.604 116.843C185.876 119.533 183.751 121.495 181.234 122.335Z" fill="#FEFEFF"/>
<path fill-rule="evenodd" clip-rule="evenodd" d="M188.338 85.5169L188.561 85.5729L188.282 84.5642C188.226 84.5082 188.114 84.5082 188.058 84.4521C188.058 84.5082 188.114 84.5642 188.114 84.6203L188.338 85.5169Z" fill="#F2943D"/>
<path fill-rule="evenodd" clip-rule="evenodd" d="M187.387 81.7621L187.554 81.8181C187.443 80.5852 187.499 79.2963 187.89 78.0634L189.065 74.3088C189.4 73.188 190.016 72.1232 190.743 71.2266C190.016 72.0672 189.344 73.1319 188.897 74.4208L187.722 78.2316C187.387 79.3523 187.275 80.5852 187.387 81.7621Z" fill="#FEFEFF"/>
<path fill-rule="evenodd" clip-rule="evenodd" d="M187.443 82.0985C187.499 82.1545 187.555 82.1545 187.61 82.1545C187.61 82.0424 187.61 81.9303 187.555 81.8183L187.387 81.7622C187.387 81.8743 187.443 81.9864 187.443 82.0985Z" fill="#F2943D"/>
<path fill-rule="evenodd" clip-rule="evenodd" d="M200.476 65.9031C200.811 65.6789 201.091 65.5108 201.371 65.2866C201.091 65.5108 200.811 65.6789 200.476 65.9031Z" fill="#FEFEFF"/>
<path fill-rule="evenodd" clip-rule="evenodd" d="M188.058 84.508C188.114 84.508 188.226 84.564 188.282 84.6201C188.002 83.8355 187.778 82.9949 187.61 82.2103C187.555 82.1543 187.499 82.1543 187.443 82.1543C187.555 82.9389 187.722 83.7234 188.058 84.508Z" fill="#F2943D"/>
<path fill-rule="evenodd" clip-rule="evenodd" d="M175.36 121.495C176.032 121.943 176.591 122.167 176.591 122.167C178.213 122.672 179.779 122.728 181.234 122.279C183.751 121.495 185.82 119.533 186.66 116.787L186.604 116.843C188.673 110.287 192.029 96.0527 189.512 89.6641L188.282 85.4611L188.058 84.6205C188.058 84.5645 188.002 84.5084 188.002 84.4524C187.722 83.6678 187.499 82.8833 187.387 82.0427C187.387 81.9306 187.331 81.8185 187.331 81.7065C187.219 80.4736 187.331 79.2967 187.722 78.1199L188.897 74.3092C189.344 73.0203 190.016 71.9555 190.743 71.1149C191.918 69.6579 193.596 68.5371 195.442 67.9767L195.553 68.0327C197.343 67.4723 198.966 66.6878 200.42 65.7911C200.7 65.567 201.035 65.3989 201.315 65.1747L194.323 62.9331C192.645 64.166 190.687 65.0626 188.505 65.7911L188.394 65.7351C185.429 66.6878 182.968 68.9854 182.017 71.9555L180.786 75.7662C180.115 77.8957 180.283 80.1934 181.122 82.2669L182.576 87.3104C185.149 93.699 181.737 107.933 179.723 114.49L179.779 114.434C178.437 118.693 175.304 119.477 172.284 118.076L172.116 118.581C172.843 119.814 174.298 120.878 175.36 121.495Z" fill="#AAB4C3"/>
<path fill-rule="evenodd" clip-rule="evenodd" d="M172.172 118.637L172.34 118.132C172.172 118.076 172.06 117.964 171.892 117.908C171.948 118.132 172.06 118.357 172.172 118.637Z" fill="#FEFEFF"/>
<path fill-rule="evenodd" clip-rule="evenodd" d="M201.315 40.1808L208.139 42.3664C207.803 41.1896 207.356 40.0127 206.797 38.8919L202.154 30.8222C200.811 28.4125 200.308 25.7226 200.811 22.9766L201.259 20.5669L194.379 18.3813L193.987 20.6229C193.484 23.3129 193.987 26.0588 195.33 28.4685L199.972 36.4822C200.476 37.7151 200.923 38.948 201.315 40.1808Z" fill="#AAB4C3"/>
<path fill-rule="evenodd" clip-rule="evenodd" d="M194.323 18.4371L201.203 20.5666L204.056 5.60401L197.176 3.41846L194.323 18.4371Z" fill="#AAB4C3"/>
<path fill-rule="evenodd" clip-rule="evenodd" d="M194.379 63.0449L201.371 65.2865C208.475 60.299 211.048 51.2766 208.363 42.4223L208.139 42.3662L201.315 40.1807C204.056 49.035 201.483 58.0574 194.379 63.0449Z" fill="#5B91C8"/>
<path fill-rule="evenodd" clip-rule="evenodd" d="M184.925 38.4433L171.221 34.0161C165.963 38.2191 164.788 44.2154 165.46 49.5392C167.753 49.1469 169.99 48.7546 172.284 48.3623C174.633 41.0211 175.528 39.9003 184.925 38.4433Z" fill="#98C3E3"/>
<path fill-rule="evenodd" clip-rule="evenodd" d="M161.488 108.325C160.369 118.02 157.852 117.572 151.532 117.74C138.554 118.076 128.262 116.843 112.6 115.554C101.468 114.658 103.65 102.889 105.608 95.0437C112.096 68.9852 116.851 50.2118 123.731 24.4895C124.514 19.4459 129.716 18.6053 131.954 18.101C135.925 17.2604 136.261 15.299 137.268 10.8718C142.134 10.8158 147.001 10.8158 151.811 10.7598C151.811 14.7946 151.252 18.0449 155.335 19.7261C163.11 22.9204 163.278 23.5369 163.502 28.8606C164.173 55.7037 164.565 80.9217 161.488 108.325Z" fill="#F4C379"/>
<path fill-rule="evenodd" clip-rule="evenodd" d="M157.74 78.904C163.726 78.6238 169.431 76.8866 174.242 74.3088C182.688 69.7695 186.1 62.7085 186.771 54.5267C187.275 48.2502 185.82 42.1419 182.464 36.9862C179.612 32.6712 174.465 28.3561 168.648 25.3299C166.019 23.985 162.383 22.5279 159.642 21.5753C158.691 21.239 161.097 36.5939 163.726 39.0597C164.565 31.9987 172.508 36.2577 175.752 40.4047C178.661 44.2154 180.059 49.4271 179.556 54.3025C178.884 60.635 173.682 66.5192 169.151 67.3038C167.25 67.64 165.012 67.584 164.005 65.3984C160.537 67.64 157.069 77.5591 157.74 78.904Z" fill="#F4B254"/>
<path fill-rule="evenodd" clip-rule="evenodd" d="M161.488 108.325C160.369 118.02 157.852 117.572 151.531 117.74C153.098 103.674 155.111 85.0686 155.615 66.9117C156.006 53.0698 156.342 40.0126 155.391 29.0848C155.055 25.162 147.616 23.3687 145.882 19.8382C144.539 17.0923 144.763 13.954 144.931 10.8158L151.867 10.7598C151.867 14.7946 151.308 18.0449 155.391 19.7261C163.166 22.9204 163.334 23.5368 163.558 28.8606C164.173 55.9839 164.788 80.3613 161.488 108.325Z" fill="#F4B254"/>
<path fill-rule="evenodd" clip-rule="evenodd" d="M136.093 12.3288L152.482 13.2254L153.433 2.57783C151.755 0.168112 138.051 -1.17684 135.646 1.56911L136.093 12.3288Z" fill="#6891BD"/>
<path fill-rule="evenodd" clip-rule="evenodd" d="M138.051 3.19428L138.442 10.0872L141.855 9.47075L144.036 2.5218C141.687 1.96141 139.561 2.46576 138.051 3.19428Z" fill="#83ABD6"/>
<path fill-rule="evenodd" clip-rule="evenodd" d="M89.4981 20.4546L117.914 29.3649L100.462 73.9727C100.07 75.0374 98.8954 75.5418 97.8326 75.2055L80.0449 69.6015C78.9821 69.2653 78.3109 68.2006 78.5905 67.0798L89.4981 20.4546Z" fill="#83ABD6"/>
<path fill-rule="evenodd" clip-rule="evenodd" d="M85.8063 36.4819L112.04 44.7198L107.174 57.2727L82.562 49.5392L85.8063 36.4819Z" fill="#D4D6D8"/>
<path fill-rule="evenodd" clip-rule="evenodd" d="M119.256 29.7571L87.7082 19.8941L89.4981 16.7559L119.536 26.1706L119.256 29.7571Z" fill="#E3EAF1"/>
<path fill-rule="evenodd" clip-rule="evenodd" d="M89.4981 20.4546L117.97 29.3649L117.075 31.5505L88.9947 22.7522L89.4981 20.4546Z" fill="#6891BD"/>
<path fill-rule="evenodd" clip-rule="evenodd" d="M95.9867 69.7137L101.692 55.5356L103.874 56.2081L98.2242 70.3862L95.9867 69.7137ZM106.727 43.0387L111.985 29.9814L114.11 30.71L108.908 43.7112L106.727 43.0387Z" fill="#A0C3DA"/>
<path fill-rule="evenodd" clip-rule="evenodd" d="M101.692 55.5355L106.727 43.0386L108.908 43.7111L103.874 56.264L101.692 55.5355Z" fill="#E3EAF1"/>
<path fill-rule="evenodd" clip-rule="evenodd" d="M79.2618 64.4458L101.58 71.4508L100.574 73.9726C100.182 75.0373 99.0073 75.5417 97.9445 75.2054L80.1568 69.6015C79.094 69.2652 78.4227 68.2005 78.7024 67.0797L79.2618 64.4458Z" fill="#6891BD"/>
<path fill-rule="evenodd" clip-rule="evenodd" d="M78.8143 68.649C78.5346 68.2007 78.4227 67.6403 78.5346 67.0238L82.6739 49.5954L86.4776 50.7723L83.0654 65.6228L79.2618 64.446L78.5905 67.0799C78.4227 67.6403 78.5346 68.2007 78.8143 68.649ZM84.5757 41.3576L88.9947 22.6963L92.6865 23.8731L89.4981 37.6029L85.8063 36.4261L84.5757 41.3576Z" fill="#6891BD"/>
<path fill-rule="evenodd" clip-rule="evenodd" d="M82.618 49.5953L84.5757 41.3574L85.8063 36.4819L89.4981 37.6027L86.4776 50.7721L82.618 49.5953Z" fill="#C9CBCE"/>
<path fill-rule="evenodd" clip-rule="evenodd" d="M89.4981 20.4546L93.1899 21.6314L89.4981 20.4546Z" fill="#E14239"/>
<path fill-rule="evenodd" clip-rule="evenodd" d="M89.4981 20.4545L89.5541 20.3984L93.1899 21.5192V21.6313L89.4981 20.4545Z" fill="#FACCAE"/>
<path fill-rule="evenodd" clip-rule="evenodd" d="M88.9947 22.7522L89.4981 20.4546L93.1899 21.6314L92.6865 23.873L88.9947 22.7522Z" fill="#6891BD"/>
<path fill-rule="evenodd" clip-rule="evenodd" d="M79.7652 69.4335C79.3736 69.2653 79.038 68.9851 78.8143 68.6489C78.5346 68.2006 78.4786 67.6402 78.5905 67.1358L79.2618 64.502L83.0654 65.6788L82.4501 68.4247C82.2823 69.2093 82.6179 69.9939 83.2332 70.5543L80.1008 69.5455C79.933 69.5455 79.8211 69.4895 79.7652 69.4335Z" fill="#6891BD"/>
<path fill-rule="evenodd" clip-rule="evenodd" d="M3.46805 86.1894L21.088 62.0923L57.6144 93.0823C58.5094 93.8108 58.5653 95.0437 57.8941 95.9964L46.8746 111.071C46.2034 111.968 44.9728 112.248 44.0219 111.688L3.46805 86.1894Z" fill="#83ABD6"/>
<path fill-rule="evenodd" clip-rule="evenodd" d="M17.3962 94.8753L33.6737 72.6274L43.966 81.3136L28.7513 102.16L17.3962 94.8753Z" fill="#D4D6D8"/>
<path fill-rule="evenodd" clip-rule="evenodd" d="M21.8711 60.9713L2.34933 87.7023L0 84.9564L18.5709 59.5703L21.8711 60.9713Z" fill="#E3EAF1"/>
<path fill-rule="evenodd" clip-rule="evenodd" d="M3.46805 86.1894L21.088 62.0923L22.878 63.6054L5.48176 87.4223L3.46805 86.1894Z" fill="#6891BD"/>
<path fill-rule="evenodd" clip-rule="evenodd" d="M52.1327 95.8841L40.6098 85.909L41.9522 84.0597L53.5311 93.9788L52.1327 95.8841ZM30.3734 77.1108L19.6896 67.9202L21.032 66.127L31.66 75.2615L30.3734 77.1108Z" fill="#A0C3DA"/>
<path fill-rule="evenodd" clip-rule="evenodd" d="M40.5538 85.9649L30.3734 77.1107L31.7159 75.3174L41.9522 84.0596L40.5538 85.9649Z" fill="#E3EAF1"/>
<path fill-rule="evenodd" clip-rule="evenodd" d="M41.7285 110.118L55.5448 91.2329L57.6144 93.0262C58.5094 93.7547 58.5654 94.9876 57.8941 95.9403L46.8747 111.015C46.2034 111.912 44.9728 112.192 44.0219 111.631L41.7285 110.118Z" fill="#6891BD"/>
<path fill-rule="evenodd" clip-rule="evenodd" d="M45.5322 111.856C45.0287 111.968 44.4134 111.912 43.91 111.576L28.7513 102.049L31.1006 98.7985L44.0219 106.868L41.6726 110.063L43.966 111.576C44.5253 111.912 45.0287 111.968 45.5322 111.856ZM21.6474 97.6217L5.48175 87.4224L7.77514 84.2842L19.7455 91.7375L17.4521 94.8757L21.6474 97.6217Z" fill="#6891BD"/>
<path fill-rule="evenodd" clip-rule="evenodd" d="M28.8072 102.105L21.6474 97.6215L17.3962 94.8755L19.6896 91.7373L31.1565 98.8544L28.8072 102.105Z" fill="#C9CBCE"/>
<path fill-rule="evenodd" clip-rule="evenodd" d="M3.46805 86.1895L5.76144 83.0513L3.46805 86.1895Z" fill="#E14239"/>
<path fill-rule="evenodd" clip-rule="evenodd" d="M3.46805 86.1895L3.41211 86.1335L5.7055 83.0513H5.76144L3.46805 86.1895Z" fill="#FACCAE"/>
<path fill-rule="evenodd" clip-rule="evenodd" d="M5.48176 87.4224L3.46805 86.1895L5.76144 83.0513L7.71921 84.2841L5.48176 87.4224Z" fill="#6891BD"/>
<path fill-rule="evenodd" clip-rule="evenodd" d="M46.6509 111.239C46.3712 111.575 45.9797 111.799 45.5881 111.911C45.0847 112.023 44.5253 111.911 44.0778 111.631L41.7844 110.118L44.1338 106.924L46.539 108.437C47.2662 108.885 48.1052 108.829 48.7765 108.381L46.8187 111.071C46.7628 111.071 46.7068 111.183 46.6509 111.239Z" fill="#6891BD"/>
<path fill-rule="evenodd" clip-rule="evenodd" d="M143.98 110.343C143.029 112.472 139.897 114.826 136.373 116.507C132.905 118.188 129.101 119.197 126.864 118.636L112.656 93.5306C105.831 81.482 100.238 73.3562 93.4696 65.5667L108.46 58.5057L123.34 51.1084C125.185 61.3077 128.038 70.7223 133.24 83.6115L143.98 110.343Z" fill="#FFE7AE"/>
<path fill-rule="evenodd" clip-rule="evenodd" d="M117.858 102.553L112.712 93.4744C110.754 90 108.908 86.8617 107.062 83.9476L129.325 73.188C130.443 76.4383 131.73 79.8567 133.24 83.5554L137.1 93.1942L117.858 102.553Z" fill="#EDDDA9"/>
<path fill-rule="evenodd" clip-rule="evenodd" d="M143.98 110.342C143.365 111.687 141.91 113.144 140.065 114.433C130.276 94.0906 120.99 73.4679 115.509 55.0308L123.34 51.1641C125.185 61.3633 128.038 70.778 133.24 83.6672L143.98 110.342Z" fill="#F8D484"/>
<path fill-rule="evenodd" clip-rule="evenodd" d="M126.752 118.3L143.868 110.006L150.357 123.455L133.184 131.749L126.752 118.3Z" fill="#FCA18F"/>
<path fill-rule="evenodd" clip-rule="evenodd" d="M106.223 53.686C111.201 51.2762 116.068 48.7544 120.99 46.3447L123.34 51.1081C113.942 56.3759 103.203 61.5315 93.4696 65.5664L91.2321 60.747C96.2105 58.3373 101.245 56.0957 106.223 53.686Z" fill="#FCA18F"/>
<path fill-rule="evenodd" clip-rule="evenodd" d="M139.114 112.303L143.868 110.006L150.357 123.455L145.602 125.753L139.114 112.303Z" fill="#F09482"/>
<path fill-rule="evenodd" clip-rule="evenodd" d="M131.45 95.9963C128.43 89.3276 125.577 82.7709 123.004 76.2703L129.269 73.2441L129.325 73.4123V73.4683V73.5243L129.381 73.6925L129.437 73.8606L129.493 74.0287L129.549 74.1968L129.604 74.3649L129.66 74.5331V74.5891L129.772 74.8133L129.828 74.9814L129.884 75.1495L129.94 75.3176L129.996 75.4857L130.052 75.6539V75.7099L130.108 75.822L130.164 75.9901L130.276 76.2703L130.332 76.4384C131.171 78.736 132.122 81.1458 133.128 83.7236L136.988 93.3624L131.45 95.9963Z" fill="#E6D08E"/>
<path fill-rule="evenodd" clip-rule="evenodd" d="M57.4466 15.5233L56.272 12.3851C55.6007 10.5918 55.7126 9.91933 57.5026 8.68645C57.3907 8.07002 57.2229 7.56566 56.7754 6.94922C51.0699 7.95794 44.0778 9.52705 40.386 15.019L41.6726 20.0625L57.4466 15.5233Z" fill="#DAE0E8"/>
<path fill-rule="evenodd" clip-rule="evenodd" d="M57.4466 15.5233L56.2719 12.3851C55.6007 10.5918 55.7126 9.91933 57.5025 8.68645C57.3907 8.07002 57.2229 7.56566 56.7754 6.94922C54.7617 7.28546 52.6361 7.73378 50.5105 8.35022L53.0836 16.7562L57.4466 15.5233Z" fill="#CBD2DB"/>
<path fill-rule="evenodd" clip-rule="evenodd" d="M58.0619 14.7949L60.9147 22.1922L42.6794 27.628L40.8895 19.8945C46.4831 17.709 52.1886 15.9718 58.0619 14.7949Z" fill="#CBD2DB"/>
<path fill-rule="evenodd" clip-rule="evenodd" d="M58.0619 14.7949L60.9147 22.1922L55.2651 23.8734L52.8598 15.9718C54.5939 15.5234 56.3279 15.1312 58.0619 14.7949Z" fill="#BCC5D1"/>
<path fill-rule="evenodd" clip-rule="evenodd" d="M64.7183 20.8472L82.7298 79.689L55.4888 87.7588L38.7639 28.5246C46.8746 24.882 55.4888 22.3042 64.7183 20.8472Z" fill="#FFE7AE"/>
<path fill-rule="evenodd" clip-rule="evenodd" d="M70.5357 39.9009L76.0175 57.6655L49.2799 65.6232L44.1897 47.6904L70.5357 39.9009Z" fill="#FEFEFE"/>
<path fill-rule="evenodd" clip-rule="evenodd" d="M64.7183 20.8472L82.7298 79.689L75.3462 81.8746L57.1669 22.3042C59.6281 21.7438 62.1453 21.2394 64.7183 20.8472Z" fill="#F8D484"/>
<path fill-rule="evenodd" clip-rule="evenodd" d="M70.5357 39.9009L76.0175 57.6655L68.6339 59.8511L63.2081 42.0864L70.5357 39.9009Z" fill="#E1E1E1"/>
<path fill-rule="evenodd" clip-rule="evenodd" d="M38.652 28.5806L55.5448 87.7587L60.1316 86.4138L43.1269 26.6753C41.6166 27.2917 40.1064 27.9082 38.652 28.5806Z" fill="#F8D484"/>
<path fill-rule="evenodd" clip-rule="evenodd" d="M53.8108 64.2219L49.2799 65.6229L44.1897 47.6902L48.7205 46.3452L53.8108 64.2219Z" fill="#E1E1E1"/>
<path fill-rule="evenodd" clip-rule="evenodd" d="M67.2914 133.712L83.1214 123.568C86.7013 121.271 87.1488 118.132 84.7995 114.546L52.3564 63.6617C50.063 60.0752 45.1965 58.9544 41.6166 61.3081L28.3038 69.8261C24.7238 72.1237 23.6051 76.9992 25.9544 80.5858L58.3975 131.47C60.6909 135.113 63.7115 136.065 67.2914 133.712Z" fill="#EDDDA9"/>
<path d="M58.8524 73.8085L32.4114 90.7412L45.4565 111.187L71.8976 94.2544L58.8524 73.8085Z" fill="#569564"/>
<path fill-rule="evenodd" clip-rule="evenodd" d="M21.6474 54.4711L30.5412 48.811L50.063 61.364L24.8357 77.5034L21.6474 54.4711Z" fill="#EDDDA9"/>
<path fill-rule="evenodd" clip-rule="evenodd" d="M13.9282 42.5903L23.3814 36.4819L31.66 49.8755L22.1508 55.9838L13.9282 42.5903Z" fill="#EDDDA9"/>
<path fill-rule="evenodd" clip-rule="evenodd" d="M15.3266 46.6814L26.2901 39.6764L22.3745 33.3999C20.3608 33.512 18.0674 34.5207 16.2775 35.6415C14.3197 36.8183 12.306 38.6116 11.411 40.4609L15.3266 46.6814Z" fill="#569564"/>
<path d="M26.8661 41.1099L16.4028 47.8105L17.3367 49.2743L27.8 42.5737L26.8661 41.1099Z" fill="#569564"/>
<path d="M41.0849 85.2326L36.1361 88.4019L49.1812 108.848L54.1301 105.679L41.0849 85.2326Z" fill="#73B483"/>
<path d="M54.1202 105.672L49.1714 108.841L62.8767 130.326L67.8256 127.157L54.1202 105.672Z" fill="#FAEACC"/>
<path d="M34.1722 74.3508L29.2233 77.52L36.1526 88.3804L41.1014 85.2112L34.1722 74.3508Z" fill="#FAEACC"/>
<path fill-rule="evenodd" clip-rule="evenodd" d="M26.0104 55.7598L24.7239 56.5443L29.1988 77.5032L34.1771 74.365L26.0104 55.7598Z" fill="#FAEACC"/>
<path fill-rule="evenodd" clip-rule="evenodd" d="M226.598 75.0935C223.242 73.7486 218.823 73.5244 215.243 73.9167C208.81 74.5892 203.329 79.6327 202.713 86.0773C201.706 89.0474 201.091 92.4659 202.769 95.0997C204.112 97.1732 206.629 98.1259 209.034 97.6776C210.992 97.2853 212.39 96.1645 213.956 94.9316C216.753 92.69 219.326 91.1209 222.85 90.2243C226.262 89.3837 231.576 88.7112 232.583 84.6203C233.59 80.4173 230.234 76.4945 226.598 75.0935Z" fill="#F5F8FB"/>
<path fill-rule="evenodd" clip-rule="evenodd" d="M105.608 74.0285C101.636 73.5802 97.5529 74.1406 93.9171 75.6536C92.239 76.3261 90.2812 77.3348 88.6591 78.6798C85.1351 80.5291 82.0586 83.4432 83.8486 87.7583C85.8063 92.4096 91.9034 93.026 96.2105 93.8106C96.5461 93.8666 96.8817 93.9226 97.2733 93.9787C97.3292 93.9787 97.3292 94.0347 97.3851 94.0347C97.497 94.0908 97.6089 94.2028 97.7767 94.2589C97.7767 94.7072 97.7767 95.2116 97.8886 95.6599C98.1683 96.8367 98.8954 97.9575 99.7345 98.8542C101.245 100.367 103.37 101.376 105.496 101.712C108.181 102.217 110.922 101.992 113.383 100.928C114.558 101.264 115.956 100.984 117.243 99.8629C120.095 97.3411 121.438 93.8106 121.382 90.224C124.682 81.1455 113.215 74.9251 105.608 74.0285Z" fill="#EEF2F8"/>
<path fill-rule="evenodd" clip-rule="evenodd" d="M203.496 5.60381L193.819 2.91389C193.036 2.68974 192.589 1.90518 192.813 1.12062C193.036 0.336061 193.819 -0.112257 194.602 0.111902L204.279 2.80182C205.063 3.02597 205.51 3.81053 205.286 4.59509C205.063 5.37965 204.279 5.82797 203.496 5.60381Z" fill="#D1D6E1"/>
</svg>
