<svg width="280" height="35" viewBox="0 0 280 35" fill="none" xmlns="http://www.w3.org/2000/svg">
<path d="M128.241 2.53842C128.218 2.24715 128.112 1.96837 127.938 1.73419C127.763 1.50002 127.526 1.31998 127.253 1.21482C126.98 1.09801 126.679 1.06476 126.387 1.11927C126.095 1.17377 125.826 1.31358 125.613 1.52102C125.427 1.70465 125.255 1.90283 125.1 2.11368C124.547 2.80512 124.013 3.49655 123.47 4.19786L106.125 26.4818C105.917 26.7485 105.7 26.9954 105.483 27.2523L105.305 27.1535V3.45704C105.313 3.03469 105.266 2.6131 105.167 2.20258C105.06 1.85614 104.836 1.55779 104.533 1.35932C104.23 1.16084 103.867 1.07477 103.507 1.11604C103.147 1.14829 102.808 1.30157 102.547 1.5509C102.285 1.80023 102.115 2.1309 102.065 2.48903C102.045 2.71909 102.045 2.95041 102.065 3.18047V31.8256C102.065 32.0528 102.065 32.2899 102.065 32.517C102.08 32.8094 102.182 33.0906 102.358 33.3246C102.534 33.5587 102.776 33.7349 103.053 33.8308C103.328 33.9443 103.63 33.9777 103.924 33.927C104.217 33.8763 104.491 33.7436 104.712 33.5443C104.921 33.3399 105.113 33.1185 105.285 32.8825L124.181 8.5539C124.379 8.29708 124.586 8.05014 124.784 7.8032L125.011 7.87234V31.6083C124.98 31.9369 124.98 32.2675 125.011 32.5961C125.076 32.9838 125.28 33.3345 125.585 33.5827C125.89 33.831 126.275 33.9599 126.668 33.9454C127.061 33.9309 127.435 33.7739 127.721 33.5039C128.007 33.2338 128.184 32.869 128.221 32.4775C128.221 32.2207 128.221 31.9639 128.221 31.6972V3.41753C128.247 3.12527 128.254 2.83157 128.241 2.53842Z" fill="#010000"/>
<path d="M50.0989 1.08658C45.7694 1.01015 41.5809 2.62607 38.4245 5.59056C35.2682 8.55505 33.3931 12.6341 33.1983 16.9599C32.9118 26.2252 40.5966 34.0384 49.5062 33.91C53.813 33.9162 57.9497 32.2298 61.0246 29.2143C64.0994 26.1988 65.8662 22.0958 65.9439 17.7897C66.0217 13.4837 64.4042 9.31953 61.4402 6.195C58.4762 3.07047 54.403 1.23582 50.0989 1.08658ZM49.6248 30.7195C42.1079 30.7788 36.4085 24.1805 36.4381 17.4835C36.4381 10.5691 42.5425 4.11901 49.6346 4.40546C56.2823 4.10913 62.8904 9.98633 62.8213 17.5921C62.7849 21.0717 61.3798 24.397 58.91 26.8483C56.4403 29.2996 53.1045 30.6797 49.6248 30.6899V30.7195Z" fill="#010000"/>
<path d="M83.8508 14.2632C81.8752 14.2632 79.8997 14.2632 77.9242 14.2632H76.8772V4.38558H87.7426C88.0982 4.39939 88.454 4.36281 88.7995 4.27693C89.1612 4.17718 89.4738 3.94803 89.6777 3.633C89.8817 3.31798 89.9628 2.93901 89.9058 2.5681C89.8822 2.18905 89.7203 1.83184 89.4508 1.56421C89.1814 1.29657 88.8231 1.13712 88.4439 1.11608C88.2167 1.11608 87.9895 1.11608 87.7623 1.11608H75.7412C75.5143 1.10128 75.2866 1.10128 75.0597 1.11608C74.6805 1.13712 74.3222 1.29657 74.0527 1.56421C73.7833 1.83184 73.6214 2.18905 73.5978 2.5681C73.5978 2.82491 73.5978 3.09161 73.5978 3.34843V31.6676C73.5978 31.9244 73.5978 32.1911 73.5978 32.4479C73.6219 32.8106 73.7743 33.1528 74.0277 33.4134C74.281 33.674 74.6188 33.836 74.9806 33.8703C75.2074 33.8903 75.4355 33.8903 75.6622 33.8703C78.2106 33.8703 80.7492 33.8703 83.2976 33.8703C84.0161 33.8676 84.7331 33.8048 85.4411 33.6826C87.7277 33.1278 89.7411 31.775 91.1189 29.8676C92.4968 27.9602 93.1484 25.6237 92.9567 23.2786C92.7649 20.9334 91.7423 18.7338 90.073 17.0756C88.4036 15.4174 86.1971 14.4096 83.8508 14.2336V14.2632ZM83.9792 30.6206C81.6678 30.7391 79.3466 30.6206 76.9167 30.6206V17.513H78.6255C80.2948 17.513 81.9543 17.513 83.6236 17.513C85.2721 17.6041 86.8262 18.3117 87.9771 19.4955C89.1281 20.6793 89.7919 22.2526 89.8367 23.903C89.8814 25.5535 89.304 27.1605 88.2189 28.4049C87.1337 29.6493 85.6204 30.4402 83.9792 30.6206Z" fill="#010000"/>
<path d="M176.128 2.75579C176.047 2.5099 175.951 2.2691 175.841 2.03472C175.721 1.76479 175.526 1.53491 175.279 1.37216C175.032 1.20941 174.744 1.12057 174.448 1.1161C174.136 1.09435 173.824 1.16641 173.553 1.32306C173.282 1.4797 173.064 1.71376 172.927 1.99521C172.805 2.22653 172.703 2.46774 172.621 2.71628L161.558 31.1737C161.43 31.4722 161.334 31.7835 161.272 32.1022C161.223 32.4627 161.299 32.829 161.488 33.14C161.677 33.451 161.967 33.6878 162.309 33.8111C162.668 33.9473 163.063 33.9515 163.425 33.823C163.787 33.6946 164.092 33.4418 164.284 33.1098C164.402 32.8765 164.505 32.6356 164.591 32.3887C165.756 29.4188 166.918 26.4555 168.077 23.4988C168.206 23.163 168.344 22.837 168.492 22.5111H180.286C180.434 22.8667 180.563 23.1531 180.681 23.4988C181.847 26.4753 183.009 29.4386 184.168 32.3887C184.252 32.6363 184.354 32.8773 184.474 33.1098C184.652 33.4457 184.943 33.707 185.296 33.8465C185.65 33.986 186.041 33.9945 186.4 33.8703C186.765 33.7581 187.076 33.5163 187.274 33.1905C187.472 32.8647 187.545 32.4776 187.477 32.1022C187.413 31.786 187.313 31.4778 187.181 31.1836C183.493 21.6879 179.809 12.212 176.128 2.75579ZM169.747 19.1033L174.261 7.49706H174.488C175.979 11.3296 177.451 15.1621 178.992 19.0934L169.747 19.1033Z" fill="#010000"/>
<path d="M149.073 1.31419C146.214 1.08682 143.345 1.02745 140.479 1.13639C140.131 1.15748 139.801 1.30081 139.548 1.54114C139.295 1.78147 139.135 2.10336 139.096 2.45012C139.077 2.70986 139.077 2.97072 139.096 3.23045C139.096 12.7657 139.096 22.314 139.096 31.8756C139.071 32.1351 139.071 32.3964 139.096 32.6559C139.161 33.0299 139.361 33.3672 139.658 33.6038C139.954 33.8405 140.327 33.9601 140.706 33.94C141.095 33.9488 141.473 33.8083 141.761 33.5474C142.049 33.2865 142.227 32.9251 142.257 32.5374C142.277 32.2447 142.277 31.951 142.257 31.6583V22.482C142.652 22.482 142.88 22.4326 143.107 22.4326C144.578 22.4326 146.07 22.482 147.512 22.4326C148.516 22.3952 149.512 22.2326 150.475 21.9486C152.878 21.1804 154.931 19.5867 156.271 17.4496C157.61 15.3126 158.15 12.7703 157.795 10.2732C157.515 8.03378 156.512 5.94694 154.937 4.32986C153.363 2.71279 151.304 1.65392 149.073 1.31419ZM154.594 12.8414C154.33 14.5661 153.466 16.1423 152.154 17.2931C150.843 18.4439 149.168 19.0955 147.423 19.1334C145.764 19.1334 144.104 19.1334 142.484 19.1334C142.257 18.284 142.237 5.30476 142.484 4.40589H148.53C148.759 4.42683 148.984 4.47661 149.201 4.55406C150.963 5.02883 152.488 6.13704 153.483 7.66631C154.478 9.19558 154.874 11.0383 154.594 12.8414Z" fill="#010000"/>
<path d="M271.279 1.33367C268.385 1.08973 265.479 1.02375 262.577 1.13612C262.197 1.1565 261.84 1.32322 261.58 1.6013C261.32 1.87938 261.178 2.24721 261.184 2.62764C261.184 2.82519 261.184 3.02274 261.184 3.2203V31.8654C261.184 32.063 261.184 32.2605 261.184 32.4482C261.199 32.8441 261.365 33.2192 261.648 33.4965C261.931 33.7739 262.309 33.9325 262.705 33.9397C262.909 33.9572 263.114 33.9335 263.309 33.8698C263.503 33.8062 263.682 33.704 263.836 33.5694C263.99 33.4347 264.116 33.2704 264.205 33.0863C264.294 32.9021 264.345 32.7019 264.355 32.4976C264.369 32.2377 264.369 31.9772 264.355 31.7173C264.355 29.0371 264.355 26.3603 264.355 23.6868V22.4224C265.975 22.4224 267.446 22.4224 268.908 22.4224C269.886 22.4058 270.86 22.31 271.822 22.136C274.225 21.563 276.353 20.1728 277.843 18.2032C279.333 16.2337 280.093 13.8074 279.991 11.3397C279.813 6.40089 276.149 1.97571 271.279 1.33367ZM270.785 19.0443C270.658 19.0769 270.53 19.1 270.4 19.1134H264.424V4.47476C264.681 4.47476 264.928 4.38586 265.175 4.37598C266.706 4.37598 268.246 4.37598 269.777 4.37598C271.573 4.4885 273.265 5.25022 274.54 6.51903C275.815 7.78785 276.585 9.4771 276.705 11.2716C276.826 13.0661 276.29 14.8434 275.197 16.2717C274.104 17.7001 272.529 18.6821 270.765 19.0344L270.785 19.0443Z" fill="#010000"/>
<path d="M24.2392 6.91461C24.4639 7.10406 24.6979 7.28208 24.9405 7.44801C25.2817 7.65014 25.6864 7.71663 26.0743 7.63429C26.4622 7.55196 26.8049 7.3268 27.0346 7.00351C27.2622 6.701 27.3753 6.32757 27.3536 5.94958C27.3319 5.5716 27.1768 5.21355 26.916 4.93909C26.7289 4.75544 26.5274 4.58699 26.3135 4.43533C24.5284 3.07477 22.4804 2.09928 20.2991 1.57053C18.1178 1.04177 15.8505 0.971237 13.6405 1.36338C11.4418 1.72445 9.34056 2.53307 7.46702 3.73917C5.59348 4.94527 3.9875 6.52316 2.74853 8.37513C1.50956 10.2271 0.663995 12.3137 0.264189 14.5057C-0.135618 16.6978 -0.0811474 18.9485 0.424226 21.1187C0.999441 23.7982 2.23868 26.2902 4.02813 28.3659C5.81757 30.4416 8.09987 32.0345 10.6654 32.9982C13.231 33.9618 15.9975 34.2655 18.711 33.8812C21.4245 33.4968 23.9979 32.4369 26.195 30.7987C27.2321 30.048 27.4988 29.1195 26.9457 28.3096C26.7889 28.1114 26.5916 27.9489 26.3671 27.833C26.1425 27.7171 25.8958 27.6503 25.6435 27.6372C25.3911 27.6242 25.1388 27.665 24.9035 27.7571C24.6682 27.8492 24.4552 27.9904 24.2787 28.1713C22.0256 29.9273 19.2322 30.8457 16.3766 30.7691C16.0506 30.7691 15.5173 30.7691 15.0036 30.7C14.49 30.6308 14.0159 30.5419 13.4627 30.4333C11.574 29.9754 9.81003 29.1055 8.29706 27.8859C6.7841 26.6662 5.55965 25.127 4.71145 23.3785C3.86326 21.63 3.41231 19.7155 3.39094 17.7723C3.36956 15.829 3.77829 13.9051 4.58782 12.1384C5.39735 10.3717 6.58765 8.8059 8.07341 7.55325C9.55918 6.3006 11.3036 5.3921 13.1818 4.89284C15.0599 4.39359 17.0252 4.31595 18.9369 4.66548C20.8486 5.01502 22.6592 5.78307 24.2392 6.91461Z" fill="#010000"/>
<path d="M212.388 1.12595C212.129 1.11126 211.868 1.11126 211.608 1.12595H191.418C191.155 1.11101 190.891 1.11101 190.628 1.12595C190.284 1.15312 189.959 1.29571 189.706 1.53058C189.454 1.76545 189.288 2.07884 189.235 2.41992C189.151 2.78857 189.204 3.1755 189.387 3.50702C189.569 3.83853 189.866 4.09147 190.223 4.21765C190.595 4.32699 190.981 4.37699 191.369 4.36581C193.789 4.36581 196.209 4.36581 198.619 4.36581H199.844V31.5293C199.844 31.7861 199.844 32.0528 199.844 32.3096C199.839 32.7219 199.997 33.1195 200.283 33.4156C200.57 33.7117 200.963 33.8823 201.375 33.8901C201.787 33.9177 202.194 33.7836 202.51 33.5163C202.825 33.2489 203.024 32.8693 203.064 32.4578C203.089 32.129 203.089 31.7988 203.064 31.47V4.37569H204.239C206.659 4.37569 209.079 4.37569 211.49 4.37569C211.911 4.38739 212.332 4.32727 212.734 4.19789C213.077 4.07122 213.365 3.82724 213.546 3.50911C213.726 3.19097 213.789 2.81916 213.722 2.45943C213.671 2.12398 213.514 1.81362 213.274 1.57371C213.034 1.33379 212.724 1.17689 212.388 1.12595Z" fill="#010000"/>
<path d="M237.616 29.7412C234.465 30.3536 230.405 29.5536 229.062 28.0917C229.408 27.3508 230.257 26.9459 230.632 26.0371L223.876 26.3038C223.945 28.6251 224.014 30.808 224.084 33.0009C224.576 32.6937 225.018 32.3141 225.397 31.8748C226.118 31.1043 226.118 31.1043 227.027 31.6279C230.265 33.4795 234.035 34.1771 237.721 33.6064C241.407 33.0358 244.79 31.2307 247.316 28.4868C247.612 28.1608 247.859 27.7953 248.175 27.3904L245.123 25.0889C243.27 27.5011 240.601 29.1551 237.616 29.7412Z" fill="#2AB23A"/>
<path d="M247.849 7.14168C245.153 3.85243 240.046 1.09657 237.3 1.50155C237.171 2.63748 237.033 3.82279 236.895 5.01799C237.3 5.1464 237.576 5.26493 237.883 5.3242C240.508 5.88163 242.882 7.27404 244.65 9.29316C246.418 11.3123 247.485 13.8495 247.691 16.5254C247.694 16.8932 247.661 17.2604 247.592 17.6219L244.836 17.0687C246.121 19.1233 247.316 21.0198 248.541 22.9953L254.467 19.2912L251.603 18.5405C251.847 14.4018 250.505 10.3256 247.849 7.14168Z" fill="#2AB23A"/>
<path d="M222.908 15.5276C223.186 13.8143 223.819 12.1779 224.767 10.7236C225.714 9.2692 226.955 8.02892 228.41 7.08227C228.617 6.96762 228.836 6.87492 229.062 6.80569C229.615 7.55639 229.506 8.49477 230.129 9.23559C231.195 7.26006 232.223 5.28454 233.299 3.30901L227.205 0C227.491 1.05691 227.719 1.97553 227.965 2.83488C224.236 4.70957 221.361 7.93427 219.925 11.8532C218.458 15.7278 218.54 20.0185 220.152 23.8347L223.629 22.3333C223.54 21.9876 223.501 21.7703 223.422 21.553C222.736 19.622 222.559 17.5469 222.908 15.5276Z" fill="#2AB23A"/>
</svg>
