<svg width="583" height="380" viewBox="0 0 583 380" fill="none" xmlns="http://www.w3.org/2000/svg">
<path d="M509.047 36.6644C507.76 35.3739 506.411 34.1449 505.124 32.8544C502.979 30.8265 500.772 28.5528 500.282 25.6031C499.791 22.7149 502.121 19.2122 505.001 19.7038C502.795 18.9664 501.263 16.7542 500.833 14.419C500.404 12.0839 500.956 9.68726 501.814 7.53647C503.163 4.15665 505.921 0.776835 509.537 0.899738C510.518 0.961189 511.437 1.20699 512.357 1.51425C515.115 2.37457 517.873 3.23488 520.631 4.0952C522.532 4.70971 524.554 5.32423 526.025 6.67615C527.864 8.33534 528.661 10.9163 529.029 13.3743C530.255 21.8546 527.19 30.3349 524.186 38.385" fill="#FFD7AD"/>
<path d="M421.948 150.042C420.661 144.389 420.17 138.551 420.477 132.713C420.722 128.842 421.458 124.663 424.461 122.205C428.261 119.071 433.839 120.054 438.681 119.132C440.091 118.886 441.439 118.456 442.849 118.579C445.056 118.764 446.956 120.3 448.121 122.205C449.285 124.11 449.837 126.261 450.327 128.411C450.511 129.149 450.634 129.948 450.266 130.624C449.898 131.3 448.856 131.607 448.427 130.992C450.266 132.713 451.247 135.294 451.063 137.813C451.001 138.797 450.695 139.841 450.082 140.579C449.592 141.132 448.917 141.501 448.427 141.992C447.324 143.037 446.711 144.512 446.037 145.864C443.462 150.903 438.375 154.528 432.797 155.45" fill="#FFD7AD"/>
<path d="M570.77 227.102C570.77 227.102 580.209 213.767 548.398 166.695C516.586 119.624 515.667 102.171 496.972 105.613C470.677 110.529 500.588 184.762 516.218 209.22C535.403 239.208 566.112 238.716 570.77 227.102Z" fill="#C96F32"/>
<path d="M558.994 166.974C561.981 154.291 554.147 141.582 541.496 138.587C528.846 135.592 516.169 143.446 513.182 156.129C510.194 168.812 518.028 181.522 530.679 184.516C543.33 187.511 556.007 179.657 558.994 166.974Z" fill="#2F2C2B"/>
<path d="M504.634 34.8827C508.066 30.8883 514.318 31.5028 519.528 32.4246C522.041 32.8548 524.738 33.4693 526.209 35.5586C527.68 37.5865 527.435 40.3518 527.128 42.8713C525.78 54.3012 525.228 65.7926 525.474 77.284C525.719 89.7586 525.535 102.295 523.267 114.585C521.367 125.154 517.505 137.752 506.901 142.73C506.35 142.975 505.737 143.221 505.185 143.405C500.343 145.065 494.581 144.204 490.659 140.886C484.652 135.847 483.916 126.937 484.284 119.132C485.51 92.1552 493.785 66.0999 502.059 40.4133C502.672 38.3854 503.346 36.4189 504.634 34.8827Z" fill="#C96F32"/>
<path d="M115.171 307.541C114.926 305.022 114.558 302.257 112.658 300.597C110.758 298.938 107.999 299 105.486 299.061C94.0242 299.43 82.5009 299.061 71.1002 297.832C61.8448 296.91 52.5894 296.173 43.334 296.357C47.0729 287.938 51.7313 277.922 57.8607 266.062C83.972 215.549 73.0616 203.443 73.0616 203.443C67.0548 192.505 36.469 195.577 20.9616 227.532C13.3611 243.018 8.4576 260.101 4.84125 276.877C1.65395 291.625 -5.27228 319.401 8.39631 330.708C19.3067 339.742 41.679 335.686 54.4895 334.211C71.8357 332.183 88.8142 328.25 105.793 324.317C107.754 323.887 109.838 323.396 111.493 322.167C115.722 319.094 115.661 312.765 115.171 307.541Z" fill="#575689"/>
<path d="M60.7415 319.524L49.8311 296.357C47.6245 296.296 45.4793 296.296 43.2727 296.357C44.2534 294.145 45.3567 291.749 46.46 289.29L38.0014 271.408C30.217 292.302 23.3521 313.564 17.5904 335.133C29.175 338.021 44.6211 335.379 54.4895 334.211C56.5735 333.966 58.5962 333.72 60.6802 333.412C61.1706 328.804 61.1705 324.133 60.7415 319.524Z" fill="#2F2C2B"/>
<path fill-rule="evenodd" clip-rule="evenodd" d="M239.843 157.969C237.146 162.762 238.433 166.757 238.862 168.723L212.015 122.45C208.951 117.964 209.809 115.076 211.525 112.372L225.255 88.6521L224.826 88.4063C220.964 86.1326 222.558 80.1719 227.032 80.1719H254.492C256.086 80.1719 257.496 81.0322 258.292 82.3841L272.145 106.166C274.413 110.099 270.061 114.462 266.138 112.188L239.843 157.969Z" fill="#8079BC"/>
<path fill-rule="evenodd" clip-rule="evenodd" d="M264.79 189.494C244.195 187.404 240.211 166.265 243.704 159.69L253.634 142.545H281.278C294.272 142.545 304.753 153.115 304.753 166.081C304.753 179.108 294.211 189.617 281.278 189.617H265.77L264.79 189.494Z" fill="#575689"/>
<path fill-rule="evenodd" clip-rule="evenodd" d="M392.527 142.729C398.104 142.545 400.985 139.534 402.272 138.243L375.732 184.516C373.525 189.493 370.461 190.292 367.273 189.985H339.936V190.354C339.875 194.84 333.929 196.437 331.662 192.505L318.054 168.784C317.257 167.432 317.257 165.712 318.054 164.36L331.662 140.517C333.929 136.584 339.936 138.182 339.936 142.729H392.527Z" fill="#EB9047"/>
<path fill-rule="evenodd" clip-rule="evenodd" d="M407.421 105.244C415.88 124.109 399.575 138.243 392.22 138.366H372.422L358.692 114.338C352.256 103.093 356.118 88.7746 367.273 82.2607C378.49 75.7469 392.833 79.6183 399.33 90.8639L407.053 104.26L407.421 105.244Z" fill="#C96F32"/>
<path fill-rule="evenodd" clip-rule="evenodd" d="M302.915 17.8602C300.034 13.067 296.05 12.2681 294.272 11.7765L347.292 11.5922C352.747 11.1006 354.953 13.1899 356.424 16.2625L370.032 39.9826L370.154 39.9212C374.077 37.6475 378.429 42.0105 376.222 45.9434L362.676 69.6021C361.88 70.9541 360.409 71.8144 358.876 71.8144L331.416 71.9373C326.881 71.9373 325.287 65.9765 329.149 63.6414L302.915 17.8602Z" fill="#82B579"/>
<path fill-rule="evenodd" clip-rule="evenodd" d="M263.135 23.7597C275.271 6.92207 295.559 13.989 299.421 20.3799L309.35 37.5248L295.498 61.5522C289.001 72.7978 274.658 76.6077 263.441 70.1554C252.224 63.6415 248.424 49.262 254.921 38.0778L262.706 24.62L263.135 23.7597Z" fill="#699162"/>
<path d="M154.399 389.087L149.189 356.088L44.4985 360.943C39.7789 370.16 36.4077 380.054 34.385 390.255C34.0172 392.221 35.2431 394.065 37.2045 394.495L151.396 393.204C153.357 392.836 154.705 390.992 154.399 389.087Z" fill="#2F2C2B"/>
<path d="M86.7302 155.449L76.0651 203.811L114.496 206.085L122.465 165.773L86.7302 155.449Z" fill="#BD7B63"/>
<path d="M130.739 122.757C132.64 129.086 133.743 136.891 139.075 140.639C139.995 141.315 140.24 142.605 139.504 143.527L138.708 144.572C138.156 145.309 137.972 146.293 138.279 147.153C139.934 152.069 144.776 171.672 129.514 174.376C118.358 176.342 105.118 173.147 95.3727 166.817C77.5974 155.264 69.2001 129.271 82.6848 111.327C95.1888 94.6735 121.361 101.003 129.33 118.824C129.881 120.114 130.31 121.405 130.739 122.757Z" fill="#BD7B63"/>
<path fill-rule="evenodd" clip-rule="evenodd" d="M77.5974 120.975C78.2103 114.277 83.1752 107.702 88.9981 104.322C94.821 101.004 101.686 99.8362 108.367 99.6518C115.048 99.4675 121.79 100.082 128.533 100.021C129.943 100.021 131.475 99.9591 132.64 100.819C134.049 101.803 134.478 103.769 134.049 105.428C133.62 107.087 132.578 108.501 131.475 109.791C127.675 114.277 123.016 118.026 117.806 120.73C119.216 122.327 119.768 124.601 119.277 126.69C118.971 127.919 118.787 127.735 118.481 128.964C117.929 131.238 118.481 132.098 121.729 142.053C118.603 142.299 113.025 139.657 111.983 142.545C111.738 143.221 111.554 144.02 111.125 144.573C110.574 145.31 109.654 145.617 108.857 146.109C106.16 147.83 105.302 151.271 104.322 154.343C103.096 158.215 101.441 161.902 99.2955 165.343C98.6826 166.326 98.0083 167.371 97.0276 168.047C94.3307 169.891 90.4692 169.952 87.3432 169.768C84.2785 169.583 81.7041 168.17 80.4169 165.282C79.0072 161.963 78.8846 158.276 77.5361 155.019C76.1876 151.762 74.9005 148.506 73.552 145.187C71.7132 140.701 69.8743 135.969 70.2421 131.176C70.6099 126.322 73.8585 121.344 78.6394 120.73" fill="#2F2C2B"/>
<path fill-rule="evenodd" clip-rule="evenodd" d="M118.726 134.433C119.094 136.092 119.89 137.567 120.626 139.164C121.116 140.27 121.607 141.315 121.974 142.544C122.342 143.773 122.71 145.002 123.445 146.047C124.794 148.013 126.939 148.013 129.023 147.214C131.72 146.17 135.52 144.879 138.401 145.187C141.037 150.656 142.998 157.354 143.121 163.438C143.427 174.745 130.556 183.594 120.442 177.018C118.91 176.035 117.806 174.499 116.948 172.84C111.554 161.963 123.936 149.98 116.642 140.639C115.906 139.717 111.616 139.226 111.37 138.857" fill="#2F2C2B"/>
<path d="M62.3965 92.2773L61.048 92.769C61.5383 92.646 61.9674 92.4617 62.3965 92.2773Z" fill="#2F2C2B"/>
<path d="M84.8301 167.248C84.8301 167.31 84.8917 167.31 84.8917 167.372C84.8917 167.31 84.8917 167.248 84.8301 167.248Z" fill="#E3B764"/>
<path d="M116.09 139.902C119.216 143.097 119.768 147.644 117.316 150.041C114.864 152.438 110.39 151.823 107.202 148.628C104.076 145.432 103.525 140.885 105.977 138.488C108.428 136.092 112.964 136.706 116.09 139.902Z" fill="#BD7B63"/>
<path d="M109.654 143.282C110.267 143.036 110.819 143.405 111.309 143.835C111.493 144.019 111.677 144.265 111.861 144.511C111.922 144.634 111.983 144.757 112.045 144.818C112.045 145.064 112.167 145.002 112.351 144.757C112.596 144.695 112.719 144.572 112.719 144.327C112.964 143.343 111.493 142.913 111.187 143.896C110.941 144.757 111.064 145.924 112.106 146.17C113.148 146.416 113.761 145.371 113.516 144.511C113.087 142.852 110.941 141.131 109.225 141.807C108.306 142.176 108.674 143.651 109.654 143.282Z" fill="#2F2C2B"/>
<path d="M126.51 133.573C126.02 134.249 125.775 135.109 125.775 135.908C125.775 136.645 126.02 137.69 126.817 137.936C127.552 138.181 128.226 137.505 128.349 136.829C128.41 135.969 127.675 135.416 126.939 135.232C125.958 134.986 125.529 136.522 126.51 136.768C126.633 136.768 126.694 136.829 126.817 136.829C127.368 136.829 127.613 136.645 127.43 136.338C127.43 136.092 127.368 135.908 127.368 135.662C127.368 135.17 127.552 134.74 127.859 134.31C128.41 133.511 127.062 132.774 126.51 133.573Z" fill="#2F2C2B"/>
<path d="M123.752 129.21C125.223 128.657 126.571 127.796 127.552 126.567C128.165 125.768 127.062 124.662 126.449 125.461C125.652 126.506 124.61 127.243 123.323 127.673C122.342 128.042 122.771 129.578 123.752 129.21Z" fill="#2F2C2B"/>
<path d="M127.491 150.779C127.797 152.131 128.717 153.298 129.943 153.913C130.862 154.343 131.659 152.991 130.739 152.561C129.82 152.131 129.207 151.332 129.023 150.349C128.778 149.365 127.246 149.795 127.491 150.779Z" fill="white"/>
<path d="M72.51 188.325C61.4158 198.465 64.8482 212.107 64.8482 212.107L142.876 205.47C130.494 179.108 83.6042 178.186 72.51 188.325Z" fill="#8079BC"/>
<path d="M54.6734 198.404C74.7166 194.901 107.815 192.382 145.695 202.153C156.789 205.041 166.474 214.259 169.11 225.627C173.768 245.844 165.248 266.246 161.816 285.911C157.341 311.351 158.873 336.178 159.915 361.741C160.099 365.736 156.912 369.054 152.928 369.054H40.6983C37.0207 369.054 33.956 366.227 33.7108 362.54C33.1591 354.797 38.0014 333.965 37.2045 317.558C35.7948 288.922 31.3203 251.068 31.5042 225.688C31.6268 212.231 41.3725 200.678 54.6734 198.404Z" fill="#6763A8"/>
<path d="M166.474 264.832L151.641 260.162C148.637 267.966 148.27 276.754 150.721 284.743C152.438 290.519 155.625 295.804 159.854 300.167C160.283 295.435 160.957 290.703 161.754 285.972C162.98 278.966 164.819 271.899 166.474 264.832Z" fill="#2F2C2B"/>
<path d="M467.428 389.087L472.638 356.088L564.824 360.943C569.544 370.16 572.915 380.054 574.938 390.255C575.306 392.221 574.08 394.065 572.118 394.495L470.37 393.143C468.47 392.836 467.122 390.992 467.428 389.087Z" fill="#2F2C2B"/>
<path d="M528.784 158.399L539.449 206.7L502.979 208.482L495.01 168.109L528.784 158.399Z" fill="#FFD7AD"/>
<path d="M486.736 125.154C484.836 131.484 483.732 139.288 478.4 143.036C477.48 143.712 477.235 145.003 477.971 145.925L478.768 146.969C479.319 147.707 479.503 148.69 479.197 149.55C477.542 154.466 472.699 174.069 487.962 176.773C499.117 178.74 512.357 175.544 522.103 169.215C539.878 157.662 548.275 131.668 534.79 113.724C522.286 97.071 496.114 103.4 488.146 121.221C487.594 122.45 487.165 123.741 486.736 125.154Z" fill="#FFD7AD"/>
<path d="M545.088 123.556C543.126 118.21 539.694 113.601 534.607 111.02C534.607 111.02 534.607 111.02 534.545 111.02C532.89 110.16 531.051 109.607 529.458 108.562C528.171 107.702 527.067 106.534 525.841 105.612C521.122 101.987 514.625 101.495 508.863 102.97C503.101 104.445 497.401 106.841 492.865 110.651C489.862 113.171 487.594 115.506 485.816 117.534C485.02 118.394 485.51 119.807 486.674 120.053C492.252 121.221 497.953 121.835 503.653 121.774C501.385 127.305 501.262 133.695 503.346 139.287C503.592 139.902 503.837 140.517 503.592 141.131C503.408 141.561 502.979 141.868 502.795 142.237C502.366 143.159 503.163 144.204 504.082 144.511C505.001 144.818 506.043 144.511 506.963 144.265C508.557 152.561 512.357 160.427 517.812 166.818C518.977 168.17 520.264 169.46 521.857 170.197C524.125 171.242 526.761 170.873 529.274 170.566C530.132 170.443 530.99 170.32 531.726 169.89C532.4 169.46 532.89 168.784 533.381 168.108C537.426 162.393 541.839 157.047 544.291 150.41C547.662 141.868 548.275 132.221 545.088 123.556Z" fill="#D05C60"/>
<path d="M547.172 133.757C546.007 133.266 544.72 133.143 543.555 133.511C542.207 133.942 540.981 135.048 539.571 134.986C537.426 134.925 535.832 132.405 533.687 132.528C532.4 132.651 531.358 133.696 530.071 133.88C528.661 134.064 527.312 133.204 526.454 132.037C525.596 130.93 525.106 129.579 524.493 128.288C522.47 124.417 518.547 121.59 514.257 120.852C510.395 120.176 506.227 121.221 503.101 123.618C501.508 128.657 501.63 134.187 503.469 139.165C503.714 139.779 503.959 140.394 503.714 141.008C503.53 141.439 503.101 141.746 502.917 142.115C502.488 143.036 503.285 144.081 504.205 144.388C505.124 144.696 506.166 144.388 507.085 144.142C508.679 152.438 512.479 160.304 517.934 166.695C519.099 168.047 520.386 169.337 521.98 170.075C524.248 171.12 526.883 170.751 529.396 170.444C530.255 170.321 531.113 170.198 531.848 169.768C532.522 169.337 533.013 168.661 533.503 167.986C537.549 162.271 541.962 156.924 544.414 150.288C546.436 145.064 547.417 139.349 547.172 133.757Z" fill="#AF4850"/>
<path d="M557.96 92.2773L559.308 92.769C558.818 92.646 558.327 92.4617 557.96 92.2773Z" fill="#2F2C2B"/>
<path d="M532.645 169.583C532.645 169.645 532.584 169.645 532.584 169.707C532.584 169.645 532.584 169.645 532.645 169.583Z" fill="#E3B764"/>
<path d="M501.385 142.299C498.259 145.495 497.707 150.042 500.159 152.439C502.611 154.835 507.085 154.221 510.273 151.025C513.399 147.83 513.95 143.282 511.499 140.886C509.047 138.428 504.511 139.104 501.385 142.299Z" fill="#FFD7AD"/>
<path d="M508.25 144.142C506.534 143.466 504.388 145.187 503.959 146.846C503.714 147.706 504.266 148.689 505.247 148.566C506.411 148.382 506.534 147.215 506.289 146.293C506.043 145.31 504.511 145.74 504.756 146.723C504.818 147.03 505.185 147.583 505.43 147.276C505.492 147.215 505.492 147.03 505.553 146.969C505.737 146.661 505.921 146.416 506.166 146.231C506.595 145.801 507.208 145.432 507.821 145.678C508.802 146.047 509.169 144.511 508.25 144.142Z" fill="#2F2C2B"/>
<path d="M489.617 136.707C489.923 137.137 490.107 137.567 490.107 138.059C490.107 138.305 490.046 138.489 490.046 138.735C489.862 139.042 490.107 139.226 490.659 139.226C490.781 139.165 490.842 139.165 490.965 139.165C491.946 138.919 491.517 137.444 490.536 137.629C489.801 137.813 489.065 138.305 489.126 139.103C489.126 139.841 489.862 140.517 490.659 140.271C491.455 140.025 491.639 139.042 491.701 138.305C491.762 137.444 491.517 136.584 490.965 135.847C490.413 135.109 489.065 135.908 489.617 136.707Z" fill="#2F2C2B"/>
<path d="M494.152 130.07C492.926 129.64 491.884 128.841 491.026 127.858C490.413 127.059 489.31 128.165 489.923 128.964C490.904 130.193 492.252 131.053 493.723 131.606C494.704 131.913 495.133 130.377 494.152 130.07Z" fill="#2F2C2B"/>
<path d="M501.446 175.974C499.791 176.404 498.136 176.711 496.482 176.957C495.501 177.08 495.93 178.616 496.911 178.493C498.566 178.248 500.221 177.94 501.875 177.51C502.795 177.203 502.427 175.728 501.446 175.974Z" fill="#2F2C2B"/>
<path d="M483.181 153.851C485.449 153.851 487.533 152.929 489.004 151.209C489.678 150.471 488.575 149.365 487.9 150.103C486.675 151.516 485.02 152.253 483.181 152.253C482.2 152.315 482.2 153.851 483.181 153.851Z" fill="#2F2C2B"/>
<path d="M558.634 296.172C560.044 267.598 572.793 245.782 572.548 220.464C572.425 206.945 567.951 200.739 554.711 198.403C539.694 195.822 517.444 193.733 491.333 196.929C479.564 198.403 469.757 206.638 466.325 218.068C461.421 234.291 456.089 257.888 460.747 272.452C467.122 292.485 475.029 331.261 464.057 359.651C462.279 364.199 465.589 369.115 470.431 369.115H568.686C572.364 369.115 575.428 366.288 575.674 362.601C576.164 354.797 557.837 312.58 558.634 296.172Z" fill="#EB9047"/>
<path d="M477.235 369.054H568.625C572.302 369.054 575.367 366.227 575.612 362.54C576.164 354.797 557.776 312.58 558.634 296.173C559.369 281.117 563.292 267.905 566.725 255.123C569.851 243.632 572.609 232.448 572.548 220.465C572.486 211.677 570.525 205.962 565.56 202.398C563.415 203.566 561.515 204.365 560.289 203.75C561.208 202.828 562.128 201.845 563.047 200.923C563.047 200.923 562.986 200.923 562.986 200.862C562.74 200.739 562.495 200.616 562.25 200.555C562.128 200.493 562.066 200.493 561.944 200.432C561.76 200.37 561.576 200.309 561.392 200.186C561.269 200.124 561.208 200.124 561.086 200.063C560.84 199.94 560.595 199.879 560.289 199.756C560.166 199.694 559.982 199.633 559.86 199.633C559.737 199.571 559.553 199.51 559.431 199.51C559.247 199.449 559.063 199.387 558.94 199.326C558.818 199.264 558.695 199.264 558.573 199.203C558.143 199.08 557.714 198.957 557.224 198.834C556.734 199.08 556.243 199.449 555.814 199.817L514.809 249.408C506.166 253.833 497.462 258.196 488.82 262.62C485.571 264.28 482.2 266.062 480.484 269.319C479.135 271.899 479.135 274.911 479.319 277.86C480.545 301.949 489.31 326.222 483.426 349.574C481.832 356.211 479.013 362.479 477.235 369.054Z" fill="#C96F32"/>
<path d="M538.958 267.844C542.023 267.045 545.026 265.017 548.091 265.693C549.256 265.939 550.298 266.615 551.462 267.045C555.385 268.643 559.798 267.844 563.782 266.123C564.763 262.375 565.805 258.687 566.786 255.062C569.912 243.57 572.67 232.386 572.609 220.403C572.548 211.616 570.586 205.901 565.621 202.337C563.476 203.504 561.576 204.303 560.35 203.689C561.269 202.767 562.189 201.784 563.108 200.862C563.108 200.862 563.047 200.862 563.047 200.8C562.802 200.677 562.557 200.555 562.311 200.493C562.189 200.432 562.128 200.432 562.005 200.37C561.821 200.309 561.637 200.247 561.453 200.124C561.331 200.063 561.269 200.063 561.147 200.001C560.902 199.879 560.656 199.817 560.35 199.694C560.227 199.633 560.044 199.571 559.921 199.571C559.798 199.51 559.614 199.448 559.492 199.448C559.308 199.387 559.124 199.326 559.002 199.264C558.879 199.203 558.756 199.203 558.634 199.141C558.205 199.018 557.776 198.895 557.285 198.772C556.795 199.018 556.305 199.387 555.876 199.756L541.962 216.593C541.471 217.822 540.981 218.99 540.552 220.219L526.454 246.336C524.922 250.883 523.635 255.861 525.228 260.347C527.129 265.877 533.442 269.257 538.958 267.844Z" fill="#2F2C2B"/>
<path d="M480.422 244.124L460.379 242.526C458.602 253.403 458.05 264.28 460.686 272.392C460.686 272.453 460.747 272.515 460.747 272.515C465.283 268.95 469.635 265.14 473.19 260.654C476.929 255.861 479.748 250.208 480.422 244.124Z" fill="#2F2C2B"/>
<path d="M143.55 203.32C143.55 203.32 159.18 198.772 193.198 244.246C227.216 289.72 243.337 296.357 233.897 312.949C220.658 336.239 160.467 283.636 142.569 260.838C120.626 232.939 131.107 203.996 143.55 203.32Z" fill="#6763A8"/>
<path d="M274.106 189.371C271.103 187.527 266.261 185.684 262.706 185.377C265.525 177.757 267.548 179.662 269.325 176.097C269.509 175.729 269.693 175.36 269.693 174.991C269.693 174.192 268.896 173.516 268.038 173.455C267.241 173.394 266.445 173.762 265.709 174.192C262.644 175.913 260.009 178.433 258.231 181.444C256.331 184.578 255.228 188.326 252.592 190.784C251.734 191.583 250.815 192.198 250.079 193.058C248.853 194.656 248.547 196.745 248.424 198.773C248.056 203.812 247.934 208.912 248.118 214.013L262.828 219.175C269.816 216.041 274.474 208.298 273.984 200.616C274.597 201.723 276.19 201.907 277.232 201.292C278.274 200.616 278.826 199.387 278.949 198.158C279.378 194.656 277.11 191.214 274.106 189.371Z" fill="#BD7B63"/>
<path d="M266.996 220.22C266.077 214.996 260.376 212.354 255.412 210.51C253.021 209.65 250.386 208.79 248.056 209.773C245.727 210.756 244.563 213.276 243.582 215.611C238.924 226.119 233.591 236.32 227.584 246.091C221.087 256.722 214.835 267.599 210.544 279.336C206.805 289.414 203.741 302.257 210.36 311.905C210.728 312.397 211.096 312.888 211.464 313.38C214.835 317.251 220.168 319.463 225.255 318.603C232.978 317.313 238.127 310.061 241.804 303.117C254.431 279.274 260.499 252.604 266.445 226.242C266.874 224.337 267.364 222.248 266.996 220.22Z" fill="#6763A8"/>
<path d="M516.954 200.616C516.954 200.616 506.595 188.018 452.963 206.454C399.33 224.889 382.229 221.263 380.697 240.252C378.552 266.983 457.805 257.458 485.449 248.732C519.283 238.04 526.883 208.174 516.954 200.616Z" fill="#EB9047"/>
<path d="M420.109 145.74C424.4 142.668 430.345 144.818 435.126 146.969C437.455 148.014 439.968 149.243 440.888 151.64C441.807 153.975 440.888 156.617 440.03 158.952C435.984 169.706 432.613 180.767 430.039 191.952C427.219 204.119 424.032 216.225 418.883 227.593C414.47 237.364 407.666 248.671 396.143 250.883C395.53 251.006 394.917 251.068 394.304 251.129C389.156 251.498 383.823 249.286 380.82 245.107C376.222 238.777 377.694 229.99 379.9 222.431C387.623 196.56 401.966 173.27 416.186 150.349C417.351 148.69 418.454 146.908 420.109 145.74Z" fill="#EB9047"/>
<path d="M142.018 261.453C148.453 268.827 154.092 276.693 161.632 283.022C162.428 283.637 163.532 282.531 162.735 281.916C155.134 275.587 149.495 267.721 143.121 260.347C142.447 259.548 141.343 260.654 142.018 261.453Z" fill="#2F2C2B"/>
<path d="M582.477 166.449C582.171 156.986 578.677 147.645 570.893 141.869C563.108 136.093 544.781 131.422 539.694 142.483L537.794 147.4C535.158 149.12 536.139 153.299 538.223 155.634C540.307 157.969 543.249 159.813 544.107 162.885C545.21 166.695 542.513 170.567 539.387 172.963C536.261 175.36 532.523 177.08 530.071 180.153C527.619 183.226 527.19 188.51 530.561 190.6C524.861 195.331 516.709 197.912 513.767 204.733C511.56 209.957 513.276 216.041 515.789 221.141C517.689 224.889 520.08 229.13 518.547 233.062C517.015 237.057 512.173 238.593 509.169 241.666C504.756 246.152 505.124 254.202 509.599 258.626C514.073 262.989 521.796 263.296 526.822 259.609C528.355 258.503 529.764 257.028 531.603 256.783C533.503 256.537 535.342 257.704 537.181 258.196C541.41 259.425 546.191 257.274 548.582 253.587C550.972 249.9 551.095 244.984 549.44 240.928C548.643 239.023 547.54 237.241 546.865 235.275C544.414 228.269 548.398 220.465 553.669 215.242C559.002 210.018 565.683 206.331 570.831 200.985C579.413 192.013 582.906 178.924 582.477 166.449Z" fill="#D05C60"/>
<path d="M555.017 207.253C551.769 208.912 548.582 211.185 544.965 211.493C541.288 211.8 537.058 208.973 537.671 205.348C537.855 204.119 538.591 203.074 539.387 202.152C541.655 199.325 544.597 197.052 547.785 195.208C549.991 193.918 552.382 192.812 554.037 190.845C555.692 188.879 556.243 185.745 554.527 183.84C552.811 181.935 549.624 182.119 547.846 180.275C545.578 177.94 546.865 174.13 547.11 170.935C547.417 167.494 546.314 163.929 544.107 161.226L543.678 161.594C543.923 162.024 544.046 162.455 544.23 162.885C545.333 166.695 542.636 170.566 539.51 172.963C536.384 175.359 532.645 177.08 530.193 180.153C527.741 183.225 527.312 188.51 530.684 190.599C524.983 195.331 516.831 197.912 513.889 204.733C511.682 209.956 513.399 216.04 515.912 221.141C517.812 224.889 520.202 229.129 518.67 233.062C517.138 237.056 512.295 238.593 509.292 241.665C504.879 246.151 505.247 254.201 509.721 258.626C514.196 262.989 521.919 263.296 526.945 259.609C528.477 258.503 529.887 257.028 531.726 256.782C533.626 256.536 535.465 257.704 537.303 258.196C541.533 259.425 546.314 257.274 548.704 253.587C551.095 249.9 551.217 244.984 549.562 240.928C548.765 239.023 547.662 237.241 546.988 235.274C544.536 228.269 548.52 220.465 553.792 215.241C557.224 211.923 561.208 209.158 564.947 206.208C561.882 204.733 558.082 205.716 555.017 207.253Z" fill="#AF4850"/>
<path d="M142.876 369.054C142.876 368.808 142.937 368.563 142.937 368.378C145.818 340.479 144.96 312.15 140.424 284.436C139.872 281.24 139.198 277.799 136.746 275.587C134.356 273.436 130.985 273.129 127.797 272.883C96.5986 270.548 65.1547 270.978 34.0173 274.112C35.2431 289.106 36.5303 304.285 37.2046 317.497C38.0014 333.904 33.1591 354.797 33.7108 362.479C33.956 366.166 37.0207 368.993 40.6983 368.993H142.876V369.054Z" fill="#575689"/>
<path d="M485.203 119.808C491.701 122.02 498.443 122.512 505.185 121.283C506.166 121.099 505.737 119.562 504.756 119.747C498.259 120.914 491.823 120.423 485.632 118.272C484.652 117.965 484.223 119.501 485.203 119.808Z" fill="#2F2C2B"/>
<path d="M503.224 127.858C506.411 128.226 509.537 128.165 512.724 127.735C513.705 127.612 513.276 126.075 512.295 126.198C509.231 126.629 506.227 126.629 503.163 126.26C502.243 126.198 502.243 127.735 503.224 127.858Z" fill="#2F2C2B"/>
<path d="M505.982 133.819C507.147 133.819 508.311 133.696 509.476 133.45C510.457 133.266 510.028 131.729 509.047 131.914C508.005 132.16 507.024 132.221 505.982 132.221C504.94 132.221 504.94 133.819 505.982 133.819Z" fill="#2F2C2B"/>
<path d="M513.337 133.02C514.318 133.02 514.318 131.422 513.337 131.422C512.357 131.422 512.357 133.02 513.337 133.02Z" fill="#2F2C2B"/>
<path d="M539.142 141.931C535.036 146.847 535.097 153.422 539.387 158.216C539.633 158.523 540.246 158.523 540.491 158.216C540.859 157.785 540.92 157.54 540.797 156.986C540.491 156.003 539.02 156.433 539.265 157.417C539.326 157.294 539.326 157.232 539.387 157.109C539.755 157.109 540.123 157.109 540.491 157.109C536.813 152.992 536.691 147.277 540.246 143.037C540.92 142.238 539.817 141.132 539.142 141.931Z" fill="#2F2C2B"/>
<path d="M529.642 179.477C527.251 182.98 526.393 187.589 529.642 190.846C529.948 191.153 530.5 191.153 530.745 190.846C530.868 190.723 530.929 190.6 531.051 190.539C531.726 189.801 530.622 188.634 529.948 189.432C529.826 189.555 529.764 189.678 529.642 189.74C530.009 189.74 530.377 189.74 530.745 189.74C527.987 186.974 528.967 183.164 530.99 180.276C531.542 179.477 530.193 178.679 529.642 179.477Z" fill="#2F2C2B"/>
<path d="M579.719 183.287C578.248 188.879 575.674 194.102 571.935 198.527C568.073 203.197 562.986 206.516 558.205 210.141C550.911 215.61 543.433 223.661 546.007 233.616C546.252 234.599 547.785 234.169 547.54 233.185C544.291 220.526 557.592 212.845 565.928 206.454C573.467 200.616 578.799 192.996 581.313 183.717C581.496 182.734 579.964 182.304 579.719 183.287Z" fill="#2F2C2B"/>
<path d="M506.84 241.973C503.163 248.548 505.921 256.353 512.111 260.285C514.87 262.068 518.486 263.358 521.796 262.866C526.945 262.129 530.806 256.107 536.323 258.012C537.303 258.319 537.671 256.844 536.752 256.475C534.177 255.615 531.726 256.168 529.335 257.397C525.351 259.425 522.47 262.19 517.628 260.961C509.782 258.995 503.837 250.515 508.189 242.772C508.679 241.912 507.331 241.113 506.84 241.973Z" fill="#2F2C2B"/>
<path d="M546.865 256.107C546.927 256.045 546.988 255.984 547.049 255.923C547.785 255.185 546.681 254.079 545.946 254.816C545.885 254.878 545.823 254.939 545.762 255.001C545.027 255.677 546.13 256.783 546.865 256.107Z" fill="#2F2C2B"/>
<path d="M549.378 251.683C550.359 251.683 550.359 250.085 549.378 250.085C548.398 250.146 548.398 251.683 549.378 251.683Z" fill="#2F2C2B"/>
<path d="M459.092 255.369C463.076 254.877 467.06 254.447 470.983 253.402C475.212 252.296 479.38 250.883 483.671 249.9C484.652 249.654 484.223 248.118 483.242 248.363C479.319 249.285 475.519 250.576 471.596 251.62C467.428 252.726 463.26 253.28 459.031 253.771C458.111 253.894 458.111 255.492 459.092 255.369Z" fill="#2F2C2B"/>
<path d="M273.555 197.728C272.942 200.493 273.493 203.381 272.88 206.147C272.268 208.973 270.551 211.493 268.896 213.828C268.345 214.688 269.693 215.426 270.245 214.627C271.777 212.415 273.31 210.141 274.106 207.498C275.026 204.426 274.352 201.23 275.026 198.158C275.271 197.113 273.739 196.683 273.555 197.728Z" fill="#2F2C2B"/>
<path d="M447.691 131.361C448.243 131.545 448.856 131.791 449.408 131.975C449.837 132.098 450.266 131.791 450.388 131.422C450.511 130.992 450.266 130.623 449.837 130.439C449.285 130.255 448.672 130.009 448.12 129.824C447.691 129.701 447.262 130.009 447.14 130.377C447.017 130.808 447.324 131.176 447.691 131.361Z" fill="#2F2C2B"/>
<path d="M504.388 17.9831C504.266 19.0278 504.266 20.011 504.572 20.9942C504.879 21.9775 506.35 21.5473 506.105 20.5641C505.921 19.8881 505.86 19.1507 505.921 18.4133C505.982 17.9831 505.798 17.553 505.369 17.4301C505.001 17.3072 504.45 17.553 504.388 17.9831Z" fill="#2F2C2B"/>
<path d="M412.08 220.158C416.248 218.622 420.477 217.454 424.89 216.655C425.871 216.471 425.442 214.934 424.461 215.119C420.109 215.918 415.818 217.085 411.65 218.622C410.731 218.99 411.16 220.465 412.08 220.158Z" fill="#2F2C2B"/>
<path d="M211.341 269.933C214.651 273.19 217.9 276.509 221.21 279.765C221.945 280.503 223.048 279.397 222.313 278.659C219.003 275.402 215.754 272.084 212.445 268.827C211.709 268.151 210.606 269.257 211.341 269.933Z" fill="#2F2C2B"/>
</svg>
