<svg width="144" height="50" viewBox="0 0 144 50" fill="none" xmlns="http://www.w3.org/2000/svg">
<path fill-rule="evenodd" clip-rule="evenodd" d="M2.16503 9.76117C2.12211 9.71797 2.07918 9.67477 2.03625 9.58838L2.16503 9.76117Z" fill="#F3F8ED"/>
<path fill-rule="evenodd" clip-rule="evenodd" d="M9.50462 37.1012C8.3887 37.058 6.07101 36.9716 5.51297 36.9284C4.52583 36.8852 3.75315 36.842 2.20814 36.7124C2.12229 36.7124 1.86473 36.6692 1.73595 36.4964C1.52132 36.2804 1.60717 35.935 1.60717 35.8054C1.69302 35.244 1.69302 33.9915 1.60717 32.091C1.60717 31.9614 1.6501 31.7024 1.8218 31.4862C2.07936 31.0976 2.42277 30.9248 2.55138 30.8814C2.80894 30.7519 3.02357 30.7518 3.28096 30.7087C3.28096 30.7087 3.49559 30.6655 3.71022 30.7087C4.95492 30.7518 6.75766 31.1838 6.75766 31.1838C7.31554 31.3134 8.17407 31.5294 9.28998 31.7886C9.41876 31.8318 9.71925 31.9614 9.93371 32.2638C10.3199 32.7389 10.2771 33.3003 10.2771 33.4299C10.2771 34.4233 10.2771 35.4599 10.2771 36.4532C10.2771 36.4964 10.2342 36.7988 9.97664 36.9714C9.8051 37.101 9.59047 37.101 9.50462 37.101V37.1012Z" fill="#7ECA1D"/>
<path fill-rule="evenodd" clip-rule="evenodd" d="M8.30286 30.7525C6.45736 30.3639 4.56876 29.9749 2.72327 29.5863C2.1223 29.5863 1.60735 29.0681 1.60735 28.4634L1.60718 20.3866C1.60718 19.7819 2.12212 19.2637 2.7231 19.2637H9.20414C9.80511 19.2637 10.3201 19.7819 10.3201 20.3866C10.3201 23.6691 10.2771 26.9086 10.2771 30.1911C10.2771 30.3207 10.2771 30.4071 10.2342 30.4503C10.0623 30.8389 9.28999 30.9685 8.30286 30.7525Z" fill="black"/>
<path fill-rule="evenodd" clip-rule="evenodd" d="M12.3802 0.345672H10.5345V7.51542C10.5345 7.51542 10.5345 7.55861 10.5345 7.60181V8.42239C10.5345 8.50878 10.4916 8.55198 10.4916 8.63838C10.277 9.15657 9.76202 9.67494 9.0752 9.71814C8.08806 9.76134 7.53019 8.76797 7.44416 8.63838C7.31539 8.37919 7.22953 8.12018 7.18661 7.94739L7.18678 0.259277H5.12648V8.2928C5.08355 8.37919 5.04062 8.50878 4.9977 8.59518C4.91184 8.72477 4.35397 9.76134 3.36666 9.67494C2.68001 9.63175 2.20782 9.11355 1.99336 8.63838V0.259277H0.0190784V13.7348C0.0190784 13.9508 -0.0238481 14.21 0.0190784 14.469C0.0190784 14.5554 0.0190784 14.5986 0.0620049 14.685C0.49127 16.7583 3.45269 18.4858 6.24257 18.3994C9.03227 18.4858 11.9939 16.7581 12.4231 14.685C12.4231 14.6418 12.4231 14.5986 12.4231 14.5986L12.4661 14.5989V0.345844H12.3804L12.3802 0.345672Z" fill="black"/>
<path fill-rule="evenodd" clip-rule="evenodd" d="M9.03235 43.9253H2.72301C2.07928 43.9253 1.52124 43.4071 1.52124 42.7159V39.563C1.52124 38.9153 2.03619 38.3537 2.72301 38.3537L9.03235 38.3535C9.67607 38.3535 10.2341 38.8717 10.2341 39.5629V42.7158C10.2341 43.4069 9.67625 43.9251 9.03235 43.9251V43.9253Z" fill="#65A217"/>
<path fill-rule="evenodd" clip-rule="evenodd" d="M9.20393 49.8423C7.14363 49.8423 5.1266 49.8423 3.0663 49.8423C2.93752 49.8423 2.59411 49.8423 2.20794 49.5831C1.77868 49.2375 1.73575 48.8055 1.69299 48.7193C1.69299 47.8555 1.69299 46.9916 1.69299 46.1278C1.69299 45.6958 2.03641 45.3072 2.50843 45.3072C4.74026 45.2208 6.9721 45.0913 9.24686 45.0049C9.28978 45.0049 9.59027 44.9185 9.89058 45.1345C10.1052 45.264 10.1481 45.48 10.1911 45.5664C10.1911 47.2941 10.1911 48.5897 10.1481 49.1513C10.1481 49.2377 10.1481 49.4537 9.97644 49.6695C9.67595 49.9285 9.20376 49.8423 9.20376 49.8423H9.20393Z" fill="#7ECA1D"/>
<path fill-rule="evenodd" clip-rule="evenodd" d="M22.037 31.2273C20.1915 31.0545 18.3458 30.8387 16.4574 30.6659C16.3286 30.6227 16.114 30.5363 15.9425 30.3203C15.4703 29.8021 15.6849 29.0677 15.7278 29.0245C15.6849 20.1705 15.642 11.3594 15.642 2.50528C15.642 1.12331 16.7579 0.000172101 18.1314 0.000172101L21.1357 0C22.509 0 23.6251 1.12296 23.6251 2.50511C23.6251 11.748 23.6251 21.0341 23.6251 30.2768C23.6251 30.32 23.5822 30.8382 23.1101 31.1405C22.5952 31.4431 22.0801 31.2703 22.0372 31.2271L22.037 31.2273Z" fill="black"/>
<path fill-rule="evenodd" clip-rule="evenodd" d="M22.2944 38.008H18.0454C17.3587 38.008 16.8007 37.4466 16.8007 36.7555C16.8436 35.5893 16.8865 34.4664 16.9294 33.3002C16.9294 33.257 16.8007 32.782 17.1441 32.4364C17.4446 32.0909 17.9167 32.1341 17.9595 32.1341C19.4188 32.2204 20.8782 32.3068 22.2946 32.4364C22.9812 32.4364 23.5393 32.9978 23.5393 33.689V36.7557C23.5822 37.4466 23.0243 38.008 22.2946 38.008H22.2944Z" fill="#65A217"/>
<path fill-rule="evenodd" clip-rule="evenodd" d="M23.2817 43.2343C23.11 43.4071 22.8956 43.4503 22.8095 43.4503C22.1658 43.5799 20.2772 43.8823 17.7021 44.2709C17.5734 44.2709 17.23 44.2709 17.0155 44.0117C16.8009 43.7957 16.7579 43.5365 16.7579 43.3639C16.8009 42.2409 16.8438 41.3772 16.8438 40.7724C16.8438 40.0814 16.8438 39.7358 17.0584 39.3904C17.4877 38.7856 18.389 38.7856 18.7753 38.7856C20.1059 38.8288 21.4793 38.8288 22.8099 38.872C22.8957 38.872 23.0245 38.9152 23.1961 39.0448C23.3678 39.1744 23.4107 39.3472 23.4536 39.4334C23.4965 40.254 23.5395 41.0748 23.5824 41.8953C23.6252 42.3275 23.6252 42.9321 23.2817 43.2345V43.2343Z" fill="#7ECA1D"/>
<path fill-rule="evenodd" clip-rule="evenodd" d="M22.4232 49.5405C22.3374 49.6269 22.2086 49.7133 22.0371 49.7997C21.5221 50.1021 21.1787 49.9725 20.0199 49.9725C18.9469 49.9725 18.6035 50.0589 18.1313 49.7997C17.9596 49.7133 17.8308 49.5837 17.7451 49.4973C17.4446 49.2382 17.0584 48.8496 16.9297 48.2448C16.8438 47.9424 16.8867 47.8562 16.8867 47.0354C16.8438 45.8693 16.758 45.6535 16.8867 45.4373C17.1872 44.9621 17.9168 44.9191 18.3461 44.8759C19.7625 44.7895 21.3075 44.6599 23.0673 44.4873C23.1532 44.4873 23.2819 44.4873 23.3678 44.5737C23.3678 44.5737 23.4536 44.6601 23.4966 44.7897C23.5824 45.0057 23.5395 46.215 23.4536 47.813C23.4536 47.8562 23.4536 47.8562 23.4536 47.8994C23.4107 48.1154 23.3249 48.4176 23.1532 48.72C22.9384 49.1516 22.638 49.4108 22.4232 49.5404V49.5405Z" fill="#65A217"/>
<path fill-rule="evenodd" clip-rule="evenodd" d="M58.8995 33.307C58.8995 34.5074 58.7086 35.6117 58.4223 36.6201C58.0883 37.6284 57.6113 38.4927 57.0386 39.2608C56.4662 40.0291 55.7504 40.6533 54.9391 41.2297C54.1281 41.7578 53.2215 42.238 52.2195 42.5739C51.2173 42.9102 50.1678 43.1981 49.0703 43.3422C47.9731 43.5343 46.7323 43.5823 45.3486 43.5823L36.283 43.5828C35.7104 43.5828 35.2331 43.3907 34.8039 43.0544C34.4223 42.7183 34.2314 42.1423 34.2314 41.3739V11.4597C34.2314 10.6915 34.4223 10.1154 34.8039 9.77916C35.1856 9.44304 35.7104 9.25098 36.283 9.25098H44.8716C46.971 9.25098 48.7365 9.44304 50.1679 9.77916C51.5994 10.1154 52.84 10.6915 53.842 11.3637C54.844 12.0839 55.6075 12.9962 56.1323 14.1006C56.6574 15.2048 56.9435 16.5014 56.9435 17.9898C56.9435 18.806 56.8479 19.6223 56.6093 20.3426C56.4186 21.0628 56.0845 21.735 55.7027 22.3593C55.3212 22.9833 54.7963 23.5115 54.2236 23.9438C53.6512 24.424 52.983 24.7601 52.2197 25.0482C53.174 25.2402 54.0806 25.5283 54.8917 25.9605C55.7027 26.3926 56.4186 26.9688 57.0389 27.6889C57.6592 28.4091 58.1364 29.2254 58.4704 30.1377C58.7568 31.0982 58.9 32.1544 58.9 33.3068L58.8995 33.307ZM49.1179 19.2864C49.1179 19.0463 49.1656 18.3741 49.0224 17.7499C49.0224 17.6538 48.8791 17.1258 48.593 16.6935L48.5453 16.6455C48.4499 16.5495 48.259 16.2615 47.925 16.0695C47.8773 16.0214 47.8296 16.0214 47.7818 15.9734C47.7341 15.9254 47.4477 15.8292 47.0661 15.6852C46.8275 15.6371 46.4935 15.5411 46.1118 15.5411C44.7758 15.5411 43.4877 15.5411 42.1515 15.5891C42.1515 17.8939 42.1515 20.1985 42.1515 22.5035C44.3939 22.5515 46.1118 22.5515 46.8276 22.5035C47.0184 22.5035 47.3047 22.4555 47.6385 22.2634C47.7819 22.2154 48.068 22.0233 48.3543 21.5912C49.0223 20.8231 49.0698 19.8629 49.1177 19.2866L49.1179 19.2864ZM50.7402 33.9313C50.931 33.0671 50.8358 32.3948 50.7879 32.2028C50.7402 31.8666 50.6446 31.4345 50.3585 30.9065C50.1199 30.5224 49.8336 30.2823 49.6427 30.0904C49.261 29.7541 48.8793 29.562 48.4499 29.3701C48.1157 29.2259 47.8296 29.0819 47.6387 29.0339C45.8255 29.0339 44.0125 29.0339 42.1992 29.0339C42.1992 31.5309 42.1992 33.9795 42.1992 36.4764C44.1078 36.4764 45.9687 36.4764 47.8771 36.4764C48.2588 36.4284 48.5928 36.3322 48.7837 36.2363C48.927 36.1883 49.2131 36.0442 49.5471 35.8042C49.738 35.6599 49.9289 35.4679 50.1674 35.1799C50.5493 34.7475 50.6446 34.2673 50.74 33.9312L50.7402 33.9313Z" fill="#7ECA1D"/>
<path fill-rule="evenodd" clip-rule="evenodd" d="M85.5723 30.3299C85.62 30.4741 85.7631 31.3864 85.1906 32.2507C84.6657 33.019 83.8547 33.2591 83.6639 33.2591C79.1786 33.2591 74.7413 33.2591 70.2561 33.3071C70.2561 33.7392 70.3038 34.4595 70.5901 35.2277C70.7334 35.6119 71.0195 36.3801 71.7352 37.0524C72.7373 37.9647 74.0256 38.0607 74.8367 38.1567C74.98 38.1567 75.5525 38.1567 76.6499 38.1087C77.9859 38.0607 78.7017 38.0125 79.1788 37.9167C79.7037 37.8205 80.4194 37.6766 81.2304 37.2924C81.7077 37.0524 82.0893 36.8123 82.805 36.6684C83.5207 36.5242 83.7593 36.6684 83.9024 36.7644C84.141 36.9087 84.2364 37.1966 84.3319 37.4367C84.475 37.7728 84.475 38.0127 84.475 38.1569C84.475 38.349 84.475 38.445 84.475 38.7329C84.475 39.2133 84.5227 39.2133 84.5227 39.8373C84.5227 40.2214 84.5227 40.5576 84.475 40.8457C84.475 41.1339 84.4273 41.326 84.3796 41.5659C84.3319 41.758 84.284 41.9022 84.2363 42.0462C84.1885 42.1903 84.0931 42.2863 83.95 42.4302C83.8545 42.5744 83.5205 42.7183 83.0434 42.9104C82.5185 43.1024 81.8982 43.3425 81.1348 43.5346C80.3713 43.7266 79.4647 43.9185 78.4626 44.0627C77.4605 44.207 76.3631 44.3028 75.2181 44.3028C73.1664 44.3028 71.3532 44.0627 69.7784 43.5346C68.2038 43.0064 66.9155 42.1901 65.8658 41.1338C64.8159 40.0772 64.0526 38.7329 63.5277 37.1004C63.0027 35.4678 62.7643 33.547 62.7643 31.3864C62.7643 29.3219 63.0507 27.4013 63.5754 25.7687C64.1003 24.088 64.9115 22.6957 65.9135 21.4954C66.9632 20.343 68.2038 19.4307 69.683 18.8064C71.1621 18.1821 72.832 17.894 74.6452 17.894C76.6015 17.894 78.2715 18.1821 79.6554 18.7583C81.039 19.3344 82.1842 20.1508 83.0432 21.1591C83.9498 22.1675 84.5699 23.4159 84.9995 24.8084C85.429 26.2007 85.6198 27.7374 85.6198 29.3699L85.6202 30.3294H85.5725L85.5723 30.3299ZM78.081 27.7852C78.1287 27.497 78.3673 26.0084 77.3653 24.8082C76.7929 24.088 76.0293 23.8479 75.6953 23.7038C75.5044 23.6558 74.5978 23.3199 73.4526 23.5598C73.1186 23.6078 72.6417 23.7038 72.1645 24.04C71.4011 24.5201 71.0193 25.2404 70.8762 25.5285C70.399 26.4888 70.4947 27.3531 70.5422 27.7852C73.0232 27.7852 75.5521 27.7852 78.081 27.7852Z" fill="#7ECA1D"/>
<path d="M111.076 13.116C111.076 13.6374 111.058 14.0706 111.013 14.4241C110.967 14.7778 110.894 15.0605 110.793 15.2727C110.693 15.476 110.583 15.635 110.465 15.7322C110.337 15.8383 110.191 15.8914 110.035 15.8914H98.6891V24.9076H109.332C109.496 24.9076 109.642 24.9519 109.761 25.0402C109.889 25.1197 109.999 25.2699 110.099 25.4732C110.2 25.6854 110.263 25.9594 110.309 26.3041C110.355 26.6488 110.382 27.082 110.382 27.6034C110.382 28.1161 110.355 28.5493 110.309 28.894C110.263 29.2386 110.199 29.5215 110.099 29.7514C109.998 29.9724 109.889 30.1316 109.761 30.2289C109.642 30.3261 109.496 30.3703 109.332 30.3703H98.6891V42.8602C98.6891 43.0459 98.6342 43.2139 98.5246 43.3552C98.4241 43.4877 98.2323 43.6027 97.949 43.6999C97.675 43.7971 97.3095 43.8679 96.8712 43.9209C96.4234 43.9739 95.8479 44.0004 95.1536 44.0004C94.4777 44.0004 93.9113 43.9739 93.4545 43.9209C92.9977 43.8679 92.6324 43.7971 92.3677 43.6999C92.1026 43.6115 91.9109 43.4877 91.792 43.3552C91.6731 43.2137 91.6184 43.0458 91.6184 42.8602V12.4706C91.6184 11.7104 91.8194 11.1624 92.2214 10.8265C92.6235 10.4906 93.1166 10.3226 93.7104 10.3226H110.035C110.191 10.3226 110.337 10.3668 110.465 10.464C110.583 10.5613 110.693 10.7115 110.793 10.9325C110.894 11.1447 110.967 11.4362 111.013 11.7987C111.058 12.1611 111.076 12.6031 111.076 13.1158V13.116ZM123.135 42.9664C123.135 43.1344 123.08 43.2846 122.971 43.4173C122.87 43.5498 122.687 43.656 122.422 43.7445C122.167 43.824 121.82 43.8947 121.399 43.939C120.97 43.9832 120.422 44.0009 119.764 44.0009C119.106 44.0009 118.558 43.9832 118.129 43.939C117.709 43.8947 117.361 43.824 117.106 43.7445C116.841 43.656 116.658 43.55 116.557 43.4173C116.448 43.2848 116.393 43.1344 116.393 42.9664V19.8957C116.393 19.7277 116.448 19.5775 116.557 19.4448C116.658 19.3123 116.841 19.1975 117.106 19.109C117.361 19.0118 117.709 18.9411 118.129 18.8881C118.558 18.8351 119.106 18.8086 119.764 18.8086C120.422 18.8086 120.97 18.8351 121.399 18.8881C121.82 18.9411 122.167 19.0118 122.422 19.109C122.687 19.1975 122.87 19.3123 122.971 19.4448C123.08 19.5773 123.135 19.7277 123.135 19.8957V42.9664ZM123.683 11.9932C123.683 13.3103 123.409 14.2119 122.852 14.7158C122.295 15.2197 121.272 15.467 119.764 15.467C118.248 15.467 117.215 15.2285 116.695 14.7423C116.165 14.2561 115.9 13.3812 115.9 12.1259C115.9 10.8088 116.174 9.89835 116.722 9.38566C117.261 8.88175 118.293 8.62549 119.819 8.62549C121.317 8.62549 122.34 8.87297 122.879 9.36811C123.418 9.85412 123.683 10.7293 123.683 11.9933L123.683 11.9932ZM144 40.6947C144 41.4548 143.954 42.0383 143.854 42.4448C143.753 42.8515 143.625 43.1342 143.461 43.2932C143.306 43.4612 143.068 43.6115 142.758 43.7352C142.438 43.8677 142.072 43.9827 141.652 44.0711C141.241 44.1684 140.784 44.2391 140.291 44.2921C139.798 44.3451 139.304 44.3716 138.802 44.3716C137.468 44.3716 136.308 44.2037 135.322 43.8767C134.344 43.5495 133.531 43.0458 132.882 42.3651C132.243 41.6844 131.768 40.827 131.467 39.7839C131.165 38.7498 131.01 37.521 131.01 36.1068V24.2709H128.114C127.776 24.2709 127.511 24.0676 127.337 23.6609C127.155 23.2543 127.063 22.5738 127.063 21.619C127.063 21.1152 127.082 20.6908 127.127 20.3461C127.173 20.0014 127.246 19.7272 127.337 19.524C127.419 19.3295 127.538 19.1882 127.675 19.0997C127.803 19.0113 127.967 18.9672 128.141 18.9672H131.01V13.7961C131.01 13.6281 131.055 13.4689 131.156 13.3278C131.256 13.1953 131.439 13.0803 131.695 12.9831C131.951 12.8859 132.307 12.8151 132.745 12.7709C133.184 12.7267 133.723 12.7089 134.371 12.7089C135.029 12.7089 135.577 12.7267 136.016 12.7709C136.454 12.8151 136.801 12.8859 137.057 12.9831C137.304 13.0803 137.487 13.1953 137.587 13.3278C137.697 13.4691 137.751 13.6283 137.751 13.7961V18.9672H142.931C143.114 18.9672 143.269 19.0115 143.397 19.0997C143.534 19.1882 143.644 19.3295 143.735 19.524C143.826 19.7272 143.89 20.0014 143.936 20.3461C143.981 20.6908 144 21.1152 144 21.619C144 22.5736 143.908 23.2543 143.735 23.6609C143.552 24.0676 143.296 24.2709 142.958 24.2709H137.751V35.1257C137.751 36.3897 137.952 37.3354 138.363 37.9631C138.774 38.5907 139.505 38.909 140.555 38.909C140.912 38.909 141.232 38.8825 141.515 38.8205C141.798 38.7585 142.054 38.688 142.273 38.6083C142.501 38.5376 142.684 38.4668 142.839 38.405C142.985 38.3431 143.132 38.3166 143.25 38.3166C143.36 38.3166 143.46 38.3431 143.561 38.405C143.653 38.467 143.734 38.5818 143.789 38.7675C143.835 38.9441 143.89 39.1917 143.936 39.501C143.981 39.8192 143.999 40.2081 143.999 40.6943L144 40.6947Z" fill="black"/>
</svg>
