<svg width="632" height="400" viewBox="0 0 632 400" fill="none" xmlns="http://www.w3.org/2000/svg">
<g clip-path="url(#clip0)">
<path d="M510.124 92.0759C508.97 90.9185 507.762 89.8162 506.608 88.6588C504.685 86.8401 502.706 84.8009 502.267 82.1555C501.827 79.5652 503.915 76.4237 506.498 76.8646C504.52 76.2033 503.146 74.2192 502.761 72.1249C502.377 70.0306 502.871 67.8812 503.64 65.9522C504.849 62.921 507.322 59.8898 510.564 60C511.443 60.0551 512.267 60.2756 513.091 60.5511C515.564 61.3227 518.037 62.0943 520.509 62.8659C522.213 63.417 524.026 63.9681 525.345 65.1806C526.993 66.6687 527.707 68.9834 528.037 71.188C529.136 78.7936 526.389 86.3992 523.696 93.619" fill="#FFD7AD"/>
<path d="M432.044 193.76C430.89 188.689 430.451 183.454 430.725 178.218C430.945 174.746 431.604 170.998 434.297 168.794C437.704 165.983 442.704 166.865 447.045 166.038C448.308 165.817 449.517 165.432 450.781 165.542C452.759 165.707 454.463 167.085 455.507 168.794C456.551 170.502 457.045 172.431 457.485 174.36C457.65 175.021 457.759 175.738 457.43 176.344C457.1 176.95 456.166 177.226 455.781 176.675C457.43 178.218 458.309 180.533 458.144 182.792C458.089 183.674 457.814 184.611 457.265 185.272C456.825 185.768 456.221 186.099 455.781 186.54C454.792 187.477 454.243 188.8 453.638 190.012C451.331 194.531 446.77 197.783 441.77 198.61" fill="#FFD7AD"/>
<path d="M565.456 262.872C565.456 262.872 573.918 250.912 545.401 208.696C516.883 166.479 516.059 150.827 499.3 153.913C475.727 158.322 502.542 224.899 516.553 246.834C533.752 273.729 561.28 273.288 565.456 262.872Z" fill="#C96F32"/>
<path d="M554.899 208.945C557.577 197.57 550.555 186.171 539.214 183.485C527.873 180.799 516.509 187.843 513.831 199.218C511.153 210.593 518.176 221.992 529.516 224.678C540.857 227.364 552.222 220.32 554.899 208.945Z" fill="#2F2C2B"/>
<path d="M506.168 90.4776C509.245 86.8952 514.85 87.4464 519.52 88.2731C521.773 88.6589 524.191 89.21 525.509 91.0838C526.828 92.9026 526.608 95.3827 526.334 97.6423C525.125 107.893 524.63 118.2 524.85 128.506C525.07 139.694 524.905 150.937 522.872 161.959C521.169 171.439 517.707 182.737 508.201 187.201C507.707 187.422 507.157 187.642 506.663 187.807C502.322 189.296 497.157 188.524 493.64 185.548C488.255 181.029 487.596 173.037 487.925 166.038C489.024 141.843 496.442 118.475 503.86 95.4378C504.41 93.619 505.014 91.8554 506.168 90.4776Z" fill="#C96F32"/>
<path d="M157.032 335.015C156.813 332.755 156.483 330.275 154.78 328.787C153.076 327.299 150.604 327.354 148.351 327.409C138.076 327.74 127.745 327.409 117.525 326.307C109.228 325.48 100.931 324.819 92.6341 324.984C95.9859 317.434 100.162 308.45 105.657 297.813C129.064 252.51 119.284 241.653 119.284 241.653C113.899 231.843 86.48 234.599 72.5783 263.257C65.7649 277.146 61.3691 292.467 58.1272 307.513C55.2699 320.741 49.0609 345.652 61.3141 355.792C71.0947 363.894 91.1505 360.257 102.635 358.934C118.185 357.115 133.405 353.588 148.625 350.061C150.384 349.675 152.252 349.234 153.736 348.132C157.527 345.376 157.472 339.699 157.032 335.015Z" fill="#575689"/>
<path d="M108.239 345.762L98.4586 324.984C96.4805 324.929 94.5573 324.929 92.5792 324.984C93.4584 323 94.4474 320.851 95.4365 318.646L87.8538 302.608C80.8754 321.347 74.7213 340.416 69.5563 359.761C79.9413 362.351 93.7881 359.981 102.635 358.934C104.503 358.714 106.316 358.493 108.184 358.218C108.624 354.084 108.624 349.896 108.239 345.762Z" fill="#2F2C2B"/>
<path fill-rule="evenodd" clip-rule="evenodd" d="M268.795 200.869C266.378 205.168 267.532 208.75 267.916 210.514L243.849 169.014C241.102 164.99 241.871 162.4 243.41 159.975L255.718 138.701L255.333 138.481C251.872 136.442 253.3 131.096 257.311 131.096H281.928C283.356 131.096 284.62 131.867 285.335 133.08L297.753 154.409C299.786 157.936 295.884 161.849 292.368 159.81L268.795 200.869Z" fill="#8079BC"/>
<path fill-rule="evenodd" clip-rule="evenodd" d="M291.159 229.143C272.697 227.269 269.125 208.31 272.257 202.413L281.159 187.036H305.94C317.589 187.036 326.985 196.516 326.985 208.144C326.985 219.828 317.534 229.253 305.94 229.253H292.038L291.159 229.143Z" fill="#575689"/>
<path fill-rule="evenodd" clip-rule="evenodd" d="M405.669 187.201C410.669 187.036 413.252 184.335 414.406 183.178L390.614 224.678C388.636 229.142 385.888 229.859 383.031 229.583H358.524V229.914C358.469 233.937 353.14 235.37 351.106 231.843L338.908 210.569C338.194 209.357 338.194 207.813 338.908 206.601L351.106 185.217C353.14 181.69 358.524 183.123 358.524 187.201H405.669Z" fill="#EB9047"/>
<path fill-rule="evenodd" clip-rule="evenodd" d="M419.021 153.582C426.604 170.502 411.988 183.178 405.395 183.288H387.647L375.338 161.739C369.569 151.653 373.031 138.812 383.031 132.97C393.086 127.128 405.944 130.6 411.768 140.685L418.692 152.7L419.021 153.582Z" fill="#C96F32"/>
<path fill-rule="evenodd" clip-rule="evenodd" d="M325.336 75.2112C322.754 70.9124 319.182 70.1959 317.589 69.755L365.118 69.5897C370.008 69.1488 371.987 71.0226 373.305 73.7783L385.504 95.052L385.613 94.9969C389.13 92.9577 393.031 96.8707 391.053 100.398L378.91 121.617C378.196 122.829 376.877 123.601 375.503 123.601L350.887 123.711C346.821 123.711 345.392 118.365 348.854 116.271L325.336 75.2112Z" fill="#82B579"/>
<path fill-rule="evenodd" clip-rule="evenodd" d="M289.675 80.5018C300.555 65.4008 318.743 71.7388 322.204 77.4706L331.106 92.8471L318.688 114.396C312.863 124.482 300.005 127.899 289.95 122.112C279.895 116.27 276.488 103.374 282.312 93.3432L289.291 81.2734L289.675 80.5018Z" fill="#699162"/>
<path d="M192.199 408.149L187.528 378.554L93.6782 382.908C89.4473 391.175 86.4252 400.048 84.6119 409.197C84.2822 410.96 85.3812 412.614 87.1395 412.999L189.506 411.842C191.265 411.511 192.474 409.858 192.199 408.149Z" fill="#2F2C2B"/>
<path d="M131.537 198.609L121.976 241.983L156.428 244.023L163.571 207.868L131.537 198.609Z" fill="#BD7B63"/>
<path d="M170.989 169.29C172.693 174.966 173.682 181.966 178.462 185.328C179.286 185.934 179.506 187.091 178.847 187.918L178.132 188.855C177.638 189.516 177.473 190.398 177.748 191.17C179.231 195.579 183.572 213.16 169.89 215.585C159.89 217.348 148.021 214.482 139.285 208.806C123.35 198.444 115.822 175.132 127.91 159.039C139.12 144.103 162.582 149.779 169.725 165.762C170.22 166.92 170.605 168.077 170.989 169.29Z" fill="#BD7B63"/>
<path fill-rule="evenodd" clip-rule="evenodd" d="M123.35 167.691C123.899 161.684 128.35 155.787 133.57 152.756C138.79 149.78 144.944 148.733 150.933 148.567C156.923 148.402 162.967 148.953 169.011 148.898C170.275 148.898 171.648 148.843 172.692 149.614C173.956 150.496 174.341 152.26 173.956 153.748C173.572 155.236 172.638 156.503 171.648 157.661C168.242 161.684 164.066 165.046 159.395 167.471C160.659 168.904 161.154 170.943 160.714 172.817C160.439 173.919 160.274 173.754 160 174.856C159.505 176.895 160 177.667 162.912 186.595C160.11 186.816 155.109 184.446 154.175 187.036C153.955 187.642 153.791 188.359 153.406 188.855C152.911 189.516 152.087 189.792 151.373 190.233C148.955 191.776 148.186 194.862 147.307 197.618C146.208 201.09 144.724 204.397 142.801 207.483C142.252 208.365 141.647 209.302 140.768 209.908C138.35 211.562 134.889 211.617 132.086 211.451C129.339 211.286 127.031 210.018 125.877 207.428C124.614 204.452 124.504 201.145 123.295 198.224C122.086 195.303 120.932 192.382 119.723 189.406C118.075 185.383 116.426 181.139 116.756 176.84C117.086 172.486 119.998 168.022 124.284 167.471" fill="#2F2C2B"/>
<path fill-rule="evenodd" clip-rule="evenodd" d="M160.219 179.761C160.549 181.249 161.263 182.572 161.923 184.004C162.362 184.996 162.802 185.933 163.132 187.036C163.461 188.138 163.791 189.24 164.45 190.177C165.659 191.941 167.582 191.941 169.451 191.224C171.868 190.287 175.275 189.13 177.858 189.406C180.22 194.311 181.979 200.318 182.088 205.774C182.363 215.915 170.824 223.851 161.758 217.954C160.384 217.072 159.395 215.695 158.626 214.206C153.791 204.451 164.89 193.704 158.351 185.327C157.692 184.5 153.846 184.06 153.626 183.729" fill="#2F2C2B"/>
<path d="M109.723 141.953L108.514 142.394C108.954 142.284 109.338 142.118 109.723 141.953Z" fill="#2F2C2B"/>
<path d="M129.833 209.191C129.833 209.247 129.889 209.247 129.889 209.302C129.889 209.247 129.889 209.191 129.833 209.191Z" fill="#E3B764"/>
<path d="M157.857 184.666C160.659 187.532 161.154 191.61 158.956 193.76C156.758 195.909 152.747 195.358 149.889 192.492C147.087 189.626 146.592 185.548 148.79 183.398C150.988 181.249 155.054 181.8 157.857 184.666Z" fill="#BD7B63"/>
<path d="M152.087 187.697C152.637 187.477 153.131 187.807 153.571 188.193C153.736 188.359 153.901 188.579 154.065 188.799C154.12 188.91 154.175 189.02 154.23 189.075C154.23 189.295 154.34 189.24 154.505 189.02C154.725 188.965 154.835 188.855 154.835 188.634C155.054 187.752 153.736 187.367 153.461 188.248C153.241 189.02 153.351 190.067 154.285 190.288C155.219 190.508 155.769 189.571 155.549 188.799C155.164 187.311 153.241 185.768 151.703 186.374C150.878 186.705 151.208 188.028 152.087 187.697Z" fill="#2F2C2B"/>
<path d="M167.198 178.989C166.758 179.595 166.538 180.367 166.538 181.084C166.538 181.745 166.758 182.682 167.473 182.902C168.132 183.123 168.736 182.516 168.846 181.91C168.901 181.139 168.242 180.643 167.582 180.477C166.703 180.257 166.319 181.635 167.198 181.855C167.308 181.855 167.363 181.91 167.473 181.91C167.967 181.91 168.187 181.745 168.022 181.469C168.022 181.249 167.967 181.084 167.967 180.863C167.967 180.422 168.132 180.036 168.407 179.651C168.901 178.934 167.692 178.273 167.198 178.989Z" fill="#2F2C2B"/>
<path d="M164.725 175.076C166.044 174.58 167.253 173.808 168.132 172.706C168.681 171.99 167.692 170.997 167.143 171.714C166.429 172.651 165.494 173.312 164.341 173.698C163.461 174.029 163.846 175.407 164.725 175.076Z" fill="#2F2C2B"/>
<path d="M168.077 194.421C168.352 195.634 169.176 196.681 170.275 197.232C171.099 197.618 171.813 196.405 170.989 196.019C170.165 195.634 169.615 194.917 169.451 194.035C169.231 193.153 167.857 193.539 168.077 194.421Z" fill="white"/>
<path d="M118.789 228.095C108.844 237.189 111.921 249.424 111.921 249.424L181.869 243.472C170.769 219.828 128.735 219.001 118.789 228.095Z" fill="#8079BC"/>
<path d="M102.799 237.134C120.767 233.992 150.439 231.733 184.396 240.496C194.342 243.086 203.023 251.353 205.386 261.549C209.562 279.681 201.924 297.979 198.847 315.615C194.836 338.432 196.21 360.698 197.144 383.625C197.309 387.207 194.452 390.183 190.88 390.183H90.2715C86.9746 390.183 84.2272 387.648 84.0075 384.341C83.5129 377.397 87.8538 358.713 87.1395 343.998C85.8757 318.315 81.8645 284.366 82.0293 261.604C82.1392 249.534 90.8759 239.173 102.799 237.134Z" fill="#6763A8"/>
<path d="M203.023 296.711L189.726 292.522C187.034 299.522 186.704 307.403 188.902 314.568C190.44 319.748 193.298 324.488 197.089 328.401C197.474 324.157 198.078 319.914 198.792 315.67C199.891 309.387 201.54 303.049 203.023 296.711Z" fill="#2F2C2B"/>
<path d="M472.815 408.149L477.486 378.554L560.126 382.908C564.357 391.175 567.379 400.048 569.193 409.197C569.522 410.96 568.423 412.614 566.665 412.999L475.452 411.787C473.749 411.511 472.54 409.858 472.815 408.149Z" fill="#2F2C2B"/>
<path d="M527.817 201.255L537.378 244.574L504.684 246.172L497.541 209.963L527.817 201.255Z" fill="#FFD7AD"/>
<path d="M490.123 171.439C488.42 177.116 487.431 184.115 482.651 187.477C481.826 188.083 481.607 189.241 482.266 190.067L482.98 191.004C483.475 191.666 483.64 192.547 483.365 193.319C481.881 197.728 477.54 215.309 491.222 217.734C501.223 219.498 513.091 216.632 521.828 210.955C537.763 200.594 545.29 177.281 533.202 161.188C521.993 146.252 498.53 151.929 491.387 167.912C490.893 169.014 490.508 170.171 490.123 171.439Z" fill="#FFD7AD"/>
<path d="M542.433 170.006C540.675 165.211 537.598 161.078 533.037 158.763C533.037 158.763 533.037 158.763 532.982 158.763C531.499 157.991 529.85 157.495 528.422 156.558C527.268 155.787 526.279 154.74 525.18 153.913C520.949 150.661 515.124 150.22 509.959 151.543C504.794 152.866 499.684 155.015 495.618 158.432C492.926 160.692 490.893 162.786 489.299 164.605C488.585 165.376 489.024 166.644 490.068 166.865C495.069 167.912 500.179 168.463 505.289 168.408C503.256 173.368 503.146 179.1 505.014 184.115C505.234 184.666 505.454 185.217 505.234 185.768C505.069 186.154 504.685 186.43 504.52 186.76C504.135 187.587 504.849 188.524 505.674 188.8C506.498 189.075 507.432 188.8 508.256 188.579C509.685 196.019 513.091 203.074 517.982 208.806C519.026 210.018 520.18 211.176 521.608 211.837C523.641 212.774 526.004 212.443 528.257 212.168C529.026 212.057 529.795 211.947 530.455 211.561C531.059 211.176 531.499 210.569 531.938 209.963C535.565 204.838 539.521 200.043 541.719 194.09C544.741 186.43 545.291 177.777 542.433 170.006Z" fill="#D05C60"/>
<path d="M544.301 179.154C543.257 178.713 542.104 178.603 541.06 178.934C539.851 179.32 538.752 180.312 537.488 180.257C535.565 180.202 534.136 177.942 532.213 178.052C531.059 178.162 530.125 179.099 528.971 179.265C527.707 179.43 526.499 178.658 525.729 177.611C524.96 176.619 524.52 175.407 523.971 174.249C522.158 170.777 518.641 168.242 514.795 167.581C511.333 166.974 507.597 167.911 504.794 170.061C503.366 174.58 503.476 179.54 505.124 184.004C505.344 184.555 505.564 185.107 505.344 185.658C505.179 186.044 504.794 186.319 504.629 186.65C504.245 187.476 504.959 188.413 505.783 188.689C506.608 188.965 507.542 188.689 508.366 188.469C509.795 195.909 513.201 202.963 518.092 208.695C519.136 209.908 520.289 211.065 521.718 211.726C523.751 212.663 526.114 212.333 528.367 212.057C529.136 211.947 529.905 211.837 530.565 211.451C531.169 211.065 531.609 210.459 532.048 209.852C535.675 204.727 539.631 199.932 541.829 193.98C543.642 189.295 544.521 184.17 544.301 179.154Z" fill="#AF4850"/>
<path d="M553.972 141.953L555.181 142.394C554.741 142.284 554.302 142.118 553.972 141.953Z" fill="#2F2C2B"/>
<path d="M531.279 211.285C531.279 211.341 531.224 211.341 531.224 211.396C531.224 211.341 531.224 211.341 531.279 211.285Z" fill="#E3B764"/>
<path d="M503.256 186.816C500.453 189.681 499.959 193.76 502.157 195.909C504.355 198.059 508.366 197.507 511.223 194.642C514.025 191.776 514.52 187.697 512.322 185.548C510.124 183.343 506.058 183.95 503.256 186.816Z" fill="#FFD7AD"/>
<path d="M509.41 188.468C507.871 187.862 505.948 189.405 505.564 190.893C505.344 191.665 505.838 192.547 506.718 192.436C507.762 192.271 507.871 191.224 507.652 190.397C507.432 189.515 506.058 189.901 506.278 190.783C506.333 191.059 506.663 191.555 506.882 191.279C506.937 191.224 506.937 191.059 506.992 191.003C507.157 190.728 507.322 190.507 507.542 190.342C507.926 189.956 508.476 189.626 509.025 189.846C509.904 190.177 510.234 188.799 509.41 188.468Z" fill="#2F2C2B"/>
<path d="M492.706 181.8C492.981 182.186 493.145 182.571 493.145 183.012C493.145 183.233 493.091 183.398 493.091 183.619C492.926 183.894 493.145 184.06 493.64 184.06C493.75 184.004 493.805 184.004 493.915 184.004C494.794 183.784 494.409 182.461 493.53 182.627C492.871 182.792 492.211 183.233 492.266 183.949C492.266 184.611 492.926 185.217 493.64 184.996C494.354 184.776 494.519 183.894 494.574 183.233C494.629 182.461 494.409 181.69 493.915 181.028C493.42 180.367 492.211 181.083 492.706 181.8Z" fill="#2F2C2B"/>
<path d="M496.772 175.847C495.673 175.462 494.739 174.745 493.97 173.863C493.42 173.147 492.431 174.139 492.981 174.855C493.86 175.958 495.069 176.729 496.387 177.225C497.267 177.501 497.651 176.123 496.772 175.847Z" fill="#2F2C2B"/>
<path d="M503.311 217.017C501.827 217.403 500.344 217.678 498.86 217.899C497.981 218.009 498.366 219.387 499.245 219.277C500.728 219.056 502.212 218.78 503.695 218.395C504.52 218.119 504.19 216.796 503.311 217.017Z" fill="#2F2C2B"/>
<path d="M486.936 197.177C488.97 197.177 490.838 196.35 492.156 194.807C492.761 194.145 491.772 193.153 491.167 193.815C490.068 195.082 488.585 195.744 486.936 195.744C486.057 195.799 486.057 197.177 486.936 197.177Z" fill="#2F2C2B"/>
<path d="M554.577 324.819C555.84 299.192 567.27 279.626 567.05 256.92C566.94 244.795 562.929 239.228 551.06 237.134C537.598 234.819 517.652 232.945 494.244 235.811C483.695 237.134 474.903 244.519 471.826 254.77C467.43 269.32 462.65 290.484 466.826 303.545C472.54 321.512 479.628 356.289 469.793 381.751C468.199 385.829 471.167 390.239 475.507 390.239H563.588C566.885 390.239 569.632 387.703 569.852 384.397C570.292 377.397 553.862 339.534 554.577 324.819Z" fill="#EB9047"/>
<path d="M481.607 390.183H563.533C566.83 390.183 569.577 387.648 569.797 384.341C570.292 377.397 553.807 339.534 554.577 324.819C555.236 311.316 558.753 299.467 561.83 288.003C564.632 277.697 567.105 267.666 567.05 256.919C566.995 249.038 565.236 243.913 560.786 240.716C558.863 241.763 557.159 242.48 556.06 241.929C556.884 241.102 557.709 240.22 558.533 239.393C558.533 239.393 558.478 239.393 558.478 239.338C558.258 239.228 558.038 239.118 557.819 239.063C557.709 239.008 557.654 239.008 557.544 238.952C557.379 238.897 557.214 238.842 557.049 238.732C556.939 238.677 556.884 238.677 556.775 238.622C556.555 238.512 556.335 238.456 556.06 238.346C555.95 238.291 555.786 238.236 555.676 238.236C555.566 238.181 555.401 238.126 555.291 238.126C555.126 238.071 554.961 238.016 554.851 237.96C554.742 237.905 554.632 237.905 554.522 237.85C554.137 237.74 553.752 237.63 553.313 237.52C552.873 237.74 552.434 238.071 552.049 238.401L515.289 282.878C507.542 286.846 499.739 290.759 491.992 294.727C489.079 296.215 486.057 297.813 484.519 300.734C483.31 303.049 483.31 305.75 483.475 308.395C484.574 329.999 492.431 351.769 487.156 372.712C485.728 378.664 483.2 384.286 481.607 390.183Z" fill="#C96F32"/>
<path d="M536.939 299.412C539.686 298.696 542.378 296.877 545.126 297.483C546.17 297.704 547.104 298.31 548.148 298.696C551.664 300.129 555.621 299.412 559.192 297.869C560.071 294.507 561.006 291.2 561.885 287.949C564.687 277.642 567.16 267.612 567.105 256.865C567.05 248.984 565.291 243.858 560.841 240.661C558.918 241.709 557.214 242.425 556.115 241.874C556.939 241.047 557.764 240.165 558.588 239.339C558.588 239.339 558.533 239.339 558.533 239.284C558.313 239.173 558.093 239.063 557.874 239.008C557.764 238.953 557.709 238.953 557.599 238.898C557.434 238.843 557.269 238.788 557.104 238.677C556.994 238.622 556.939 238.622 556.83 238.567C556.61 238.457 556.39 238.402 556.115 238.292C556.005 238.236 555.84 238.181 555.731 238.181C555.621 238.126 555.456 238.071 555.346 238.071C555.181 238.016 555.016 237.961 554.906 237.906C554.796 237.851 554.687 237.851 554.577 237.796C554.192 237.685 553.807 237.575 553.368 237.465C552.928 237.685 552.489 238.016 552.104 238.347L539.631 253.448C539.191 254.55 538.752 255.597 538.367 256.699L525.729 280.122C524.356 284.201 523.202 288.665 524.63 292.688C526.334 297.648 531.993 300.68 536.939 299.412Z" fill="#2F2C2B"/>
<path d="M484.464 278.138L466.496 276.705C464.903 286.46 464.408 296.215 466.771 303.49C466.771 303.545 466.826 303.6 466.826 303.6C470.892 300.404 474.793 296.987 477.98 292.963C481.332 288.665 483.859 283.594 484.464 278.138Z" fill="#2F2C2B"/>
<path d="M182.473 241.543C182.473 241.543 196.485 237.465 226.98 278.248C257.476 319.032 271.927 324.984 263.466 339.865C251.597 360.753 197.639 313.576 181.594 293.129C161.923 268.108 171.319 242.149 182.473 241.543Z" fill="#6763A8"/>
<path d="M299.511 229.032C296.819 227.379 292.478 225.726 289.291 225.45C291.818 218.616 293.632 220.324 295.225 217.128C295.39 216.797 295.555 216.466 295.555 216.136C295.555 215.419 294.84 214.813 294.071 214.758C293.357 214.703 292.643 215.034 291.983 215.419C289.236 216.963 286.873 219.222 285.28 221.923C283.576 224.733 282.587 228.095 280.224 230.3C279.455 231.016 278.631 231.568 277.972 232.339C276.873 233.772 276.598 235.646 276.488 237.465C276.158 241.984 276.048 246.558 276.213 251.133L289.401 255.762C295.665 252.951 299.841 246.007 299.401 239.118C299.951 240.11 301.379 240.275 302.313 239.724C303.247 239.118 303.742 238.016 303.852 236.913C304.236 233.772 302.203 230.686 299.511 229.032Z" fill="#BD7B63"/>
<path d="M293.137 256.7C292.313 252.015 287.203 249.645 282.752 247.992C280.609 247.22 278.246 246.449 276.158 247.33C274.07 248.212 273.026 250.472 272.147 252.566C267.971 261.99 263.191 271.139 257.806 279.902C251.982 289.437 246.377 299.192 242.531 309.718C239.179 318.757 236.431 330.276 242.366 338.928C242.695 339.369 243.025 339.81 243.355 340.251C246.377 343.723 251.157 345.707 255.718 344.936C262.641 343.778 267.257 337.275 270.554 331.047C281.873 309.663 287.313 285.744 292.643 262.101C293.027 260.392 293.467 258.518 293.137 256.7Z" fill="#6763A8"/>
<path d="M517.212 239.118C517.212 239.118 507.926 227.82 459.847 244.354C411.768 260.888 396.438 257.636 395.064 274.666C393.141 298.64 464.188 290.098 488.969 282.272C519.3 272.682 526.114 245.897 517.212 239.118Z" fill="#EB9047"/>
<path d="M430.396 189.902C434.242 187.146 439.572 189.075 443.858 191.004C445.946 191.941 448.199 193.043 449.023 195.193C449.847 197.287 449.023 199.657 448.254 201.751C444.627 211.396 441.605 221.316 439.297 231.347C436.77 242.259 433.912 253.116 429.297 263.312C425.34 272.075 419.241 282.216 408.911 284.2C408.362 284.311 407.812 284.366 407.263 284.421C402.647 284.751 397.867 282.767 395.174 279.02C391.053 273.343 392.372 265.462 394.35 258.683C401.274 235.48 414.131 214.592 426.879 194.035C427.923 192.547 428.912 190.949 430.396 189.902Z" fill="#EB9047"/>
<path d="M181.099 293.68C186.869 300.293 191.924 307.348 198.683 313.024C199.397 313.575 200.386 312.583 199.672 312.032C192.858 306.356 187.803 299.301 182.088 292.688C181.484 291.971 180.495 292.963 181.099 293.68Z" fill="#2F2C2B"/>
<path d="M575.951 208.475C575.677 199.988 572.545 191.61 565.566 186.43C558.588 181.249 542.159 177.06 537.598 186.981L535.895 191.39C533.532 192.933 534.411 196.681 536.279 198.775C538.147 200.869 540.785 202.523 541.554 205.278C542.543 208.695 540.126 212.168 537.323 214.317C534.521 216.466 531.169 218.01 528.971 220.765C526.773 223.521 526.389 228.261 529.411 230.134C524.301 234.378 516.993 236.693 514.355 242.81C512.377 247.495 513.916 252.951 516.168 257.526C517.872 260.888 520.015 264.69 518.641 268.218C517.267 271.8 512.927 273.178 510.234 275.933C506.278 279.957 506.608 287.177 510.619 291.145C514.63 295.058 521.553 295.333 526.059 292.027C527.433 291.035 528.697 289.712 530.345 289.491C532.048 289.271 533.697 290.318 535.345 290.759C539.136 291.861 543.422 289.932 545.565 286.625C547.708 283.319 547.818 278.91 546.335 275.272C545.62 273.564 544.631 271.965 544.027 270.202C541.829 263.919 545.401 256.919 550.126 252.235C554.906 247.55 560.896 244.243 565.511 239.449C573.204 231.402 576.336 219.663 575.951 208.475Z" fill="#D05C60"/>
<path d="M551.335 245.07C548.423 246.558 545.565 248.597 542.323 248.873C539.027 249.148 535.235 246.613 535.785 243.361C535.95 242.259 536.609 241.322 537.323 240.495C539.356 237.96 541.994 235.921 544.851 234.268C546.829 233.11 548.972 232.118 550.456 230.355C551.939 228.591 552.434 225.78 550.895 224.072C549.357 222.363 546.499 222.529 544.906 220.875C542.873 218.781 544.027 215.364 544.247 212.498C544.521 209.412 543.532 206.215 541.554 203.79L541.17 204.121C541.389 204.507 541.499 204.892 541.664 205.278C542.653 208.695 540.235 212.167 537.433 214.317C534.631 216.466 531.279 218.009 529.081 220.765C526.883 223.521 526.499 228.26 529.521 230.134C524.411 234.378 517.103 236.693 514.465 242.81C512.487 247.495 514.026 252.951 516.278 257.525C517.982 260.887 520.125 264.69 518.751 268.217C517.377 271.8 513.036 273.178 510.344 275.933C506.388 279.956 506.718 287.176 510.729 291.144C514.74 295.057 521.663 295.333 526.169 292.026C527.543 291.034 528.806 289.712 530.455 289.491C532.158 289.271 533.807 290.318 535.455 290.759C539.246 291.861 543.532 289.932 545.675 286.625C547.818 283.318 547.928 278.909 546.444 275.272C545.73 273.563 544.741 271.965 544.137 270.201C541.939 263.919 545.51 256.919 550.236 252.235C553.313 249.258 556.884 246.778 560.236 244.133C557.489 242.81 554.082 243.692 551.335 245.07Z" fill="#AF4850"/>
<path d="M181.869 390.183C181.869 389.963 181.924 389.742 181.924 389.577C184.506 364.556 183.737 339.148 179.671 314.292C179.176 311.427 178.572 308.34 176.374 306.356C174.231 304.427 171.209 304.152 168.352 303.931C140.383 301.837 112.195 302.223 84.2821 305.033C85.3811 318.481 86.535 332.094 87.1394 343.943C87.8537 358.659 83.5129 377.397 84.0074 384.286C84.2272 387.593 86.9745 390.128 90.2714 390.128H181.869V390.183Z" fill="#575689"/>
<path d="M488.75 166.645C494.574 168.629 500.618 169.069 506.663 167.967C507.542 167.802 507.157 166.424 506.278 166.589C500.454 167.637 494.684 167.196 489.134 165.267C488.255 164.991 487.871 166.369 488.75 166.645Z" fill="#2F2C2B"/>
<path d="M504.904 173.863C507.762 174.194 510.564 174.139 513.421 173.753C514.3 173.643 513.916 172.265 513.036 172.375C510.289 172.761 507.597 172.761 504.849 172.431C504.025 172.375 504.025 173.753 504.904 173.863Z" fill="#2F2C2B"/>
<path d="M507.377 179.21C508.421 179.21 509.465 179.099 510.509 178.879C511.388 178.714 511.003 177.336 510.124 177.501C509.19 177.722 508.311 177.777 507.377 177.777C506.443 177.777 506.443 179.21 507.377 179.21Z" fill="#2F2C2B"/>
<path d="M513.971 178.493C514.85 178.493 514.85 177.061 513.971 177.061C513.091 177.061 513.091 178.493 513.971 178.493Z" fill="#2F2C2B"/>
<path d="M537.103 186.485C533.422 190.894 533.477 196.792 537.323 201.09C537.543 201.366 538.093 201.366 538.312 201.09C538.642 200.705 538.697 200.484 538.587 199.988C538.312 199.106 536.994 199.492 537.213 200.374C537.268 200.264 537.268 200.209 537.323 200.098C537.653 200.098 537.983 200.098 538.312 200.098C535.016 196.406 534.906 191.28 538.093 187.477C538.697 186.761 537.708 185.769 537.103 186.485Z" fill="#2F2C2B"/>
<path d="M528.587 220.159C526.444 223.301 525.674 227.434 528.587 230.355C528.861 230.631 529.356 230.631 529.576 230.355C529.686 230.245 529.741 230.135 529.85 230.079C530.455 229.418 529.466 228.371 528.861 229.087C528.751 229.198 528.697 229.308 528.587 229.363C528.916 229.363 529.246 229.363 529.576 229.363C527.103 226.883 527.982 223.466 529.795 220.876C530.29 220.159 529.081 219.443 528.587 220.159Z" fill="#2F2C2B"/>
<path d="M573.479 223.576C572.16 228.592 569.852 233.276 566.5 237.244C563.039 241.433 558.478 244.409 554.192 247.661C547.653 252.566 540.95 259.786 543.258 268.714C543.477 269.596 544.851 269.21 544.631 268.328C541.719 256.975 553.643 250.086 561.115 244.354C567.874 239.118 572.654 232.284 574.907 223.962C575.072 223.08 573.698 222.695 573.479 223.576Z" fill="#2F2C2B"/>
<path d="M508.146 276.209C504.849 282.106 507.322 289.106 512.872 292.633C515.344 294.231 518.586 295.389 521.553 294.948C526.169 294.286 529.63 288.885 534.576 290.594C535.455 290.869 535.785 289.547 534.96 289.216C532.653 288.444 530.455 288.94 528.312 290.043C524.74 291.861 522.158 294.342 517.817 293.239C510.784 291.476 505.454 283.87 509.355 276.926C509.795 276.154 508.586 275.438 508.146 276.209Z" fill="#2F2C2B"/>
<path d="M544.027 288.885C544.082 288.83 544.137 288.775 544.192 288.72C544.851 288.059 543.862 287.067 543.203 287.728C543.148 287.783 543.093 287.838 543.038 287.893C542.378 288.499 543.367 289.492 544.027 288.885Z" fill="#2F2C2B"/>
<path d="M546.28 284.917C547.159 284.917 547.159 283.484 546.28 283.484C545.401 283.539 545.401 284.917 546.28 284.917Z" fill="#2F2C2B"/>
<path d="M465.342 288.224C468.914 287.783 472.485 287.397 476.002 286.46C479.793 285.468 483.53 284.2 487.376 283.319C488.255 283.098 487.871 281.72 486.991 281.941C483.475 282.767 480.068 283.925 476.551 284.862C472.815 285.854 469.079 286.35 465.287 286.791C464.463 286.901 464.463 288.334 465.342 288.224Z" fill="#2F2C2B"/>
<path d="M299.016 236.527C298.467 239.007 298.961 241.597 298.412 244.078C297.863 246.613 296.324 248.872 294.84 250.967C294.346 251.738 295.555 252.4 296.049 251.683C297.423 249.699 298.797 247.66 299.511 245.29C300.335 242.534 299.731 239.669 300.335 236.913C300.555 235.976 299.181 235.59 299.016 236.527Z" fill="#2F2C2B"/>
<path d="M455.122 177.005C455.616 177.17 456.166 177.391 456.66 177.556C457.045 177.666 457.43 177.391 457.54 177.06C457.65 176.674 457.43 176.344 457.045 176.178C456.551 176.013 456.001 175.793 455.507 175.627C455.122 175.517 454.737 175.793 454.627 176.123C454.517 176.509 454.792 176.84 455.122 177.005Z" fill="#2F2C2B"/>
<path d="M505.948 75.3213C505.838 76.2582 505.838 77.14 506.113 78.0218C506.388 78.9036 507.707 78.5178 507.487 77.636C507.322 77.0298 507.267 76.3684 507.322 75.7071C507.377 75.3213 507.212 74.9355 506.827 74.8252C506.498 74.715 506.003 74.9355 505.948 75.3213Z" fill="#2F2C2B"/>
<path d="M423.197 256.644C426.934 255.267 430.725 254.219 434.681 253.503C435.561 253.338 435.176 251.96 434.297 252.125C430.396 252.842 426.549 253.889 422.813 255.267C421.989 255.597 422.373 256.92 423.197 256.644Z" fill="#2F2C2B"/>
<path d="M243.245 301.286C246.212 304.207 249.124 307.183 252.091 310.104C252.751 310.765 253.74 309.773 253.08 309.112C250.113 306.191 247.201 303.215 244.234 300.294C243.575 299.687 242.586 300.679 243.245 301.286Z" fill="#2F2C2B"/>
</g>
<defs>
<clipPath id="clip0">
<rect width="632" height="399" fill="white" transform="translate(0 1)"/>
</clipPath>
</defs>
</svg>
