<svg width="120" height="120" viewBox="0 0 120 120" fill="none" xmlns="http://www.w3.org/2000/svg">
<path d="M120 0H0V120H120V0Z" fill="white"/>
<path d="M5.07935 5.0791H8.86698V8.86673H5.07935V5.0791ZM8.86698 5.0791H12.6546V8.86673H8.86698V5.0791ZM12.6546 5.0791H16.4422V8.86673H12.6546V5.0791ZM16.4422 5.0791H20.2299V8.86673H16.4422V5.0791ZM20.2299 5.0791H24.0175V8.86673H20.2299V5.0791ZM24.0175 5.0791H27.8051V8.86673H24.0175V5.0791ZM27.8051 5.0791H31.5928V8.86673H27.8051V5.0791ZM35.3804 5.0791H39.168V8.86673H35.3804V5.0791ZM39.168 5.0791H42.9556V8.86673H39.168V5.0791ZM42.9556 5.0791H46.7433V8.86673H42.9556V5.0791ZM46.7433 5.0791H50.5309V8.86673H46.7433V5.0791ZM58.1062 5.0791H61.8938V8.86673H58.1062V5.0791ZM61.8938 5.0791H65.6814V8.86673H61.8938V5.0791ZM69.4691 5.0791H73.2567V8.86673H69.4691V5.0791ZM73.2567 5.0791H77.0443V8.86673H73.2567V5.0791ZM88.4072 5.0791H92.1948V8.86673H88.4072V5.0791ZM92.1948 5.0791H95.9825V8.86673H92.1948V5.0791ZM95.9825 5.0791H99.7701V8.86673H95.9825V5.0791ZM99.7701 5.0791H103.558V8.86673H99.7701V5.0791ZM103.558 5.0791H107.345V8.86673H103.558V5.0791ZM107.345 5.0791H111.133V8.86673H107.345V5.0791ZM111.133 5.0791H114.921V8.86673H111.133V5.0791ZM5.07935 8.86673H8.86698V12.6544H5.07935V8.86673ZM27.8051 8.86673H31.5928V12.6544H27.8051V8.86673ZM35.3804 8.86673H39.168V12.6544H35.3804V8.86673ZM46.7433 8.86673H50.5309V12.6544H46.7433V8.86673ZM80.8319 8.86673H84.6196V12.6544H80.8319V8.86673ZM88.4072 8.86673H92.1948V12.6544H88.4072V8.86673ZM111.133 8.86673H114.921V12.6544H111.133V8.86673ZM5.07935 12.6544H8.86698V16.442H5.07935V12.6544ZM12.6546 12.6544H16.4422V16.442H12.6546V12.6544ZM16.4422 12.6544H20.2299V16.442H16.4422V12.6544ZM20.2299 12.6544H24.0175V16.442H20.2299V12.6544ZM27.8051 12.6544H31.5928V16.442H27.8051V12.6544ZM46.7433 12.6544H50.5309V16.442H46.7433V12.6544ZM50.5309 12.6544H54.3185V16.442H50.5309V12.6544ZM58.1062 12.6544H61.8938V16.442H58.1062V12.6544ZM65.6814 12.6544H69.4691V16.442H65.6814V12.6544ZM88.4072 12.6544H92.1948V16.442H88.4072V12.6544ZM95.9825 12.6544H99.7701V16.442H95.9825V12.6544ZM99.7701 12.6544H103.558V16.442H99.7701V12.6544ZM103.558 12.6544H107.345V16.442H103.558V12.6544ZM111.133 12.6544H114.921V16.442H111.133V12.6544ZM5.07935 16.442H8.86698V20.2296H5.07935V16.442ZM12.6546 16.442H16.4422V20.2296H12.6546V16.442ZM16.4422 16.442H20.2299V20.2296H16.4422V16.442ZM20.2299 16.442H24.0175V20.2296H20.2299V16.442ZM27.8051 16.442H31.5928V20.2296H27.8051V16.442ZM58.1062 16.442H61.8938V20.2296H58.1062V16.442ZM65.6814 16.442H69.4691V20.2296H65.6814V16.442ZM69.4691 16.442H73.2567V20.2296H69.4691V16.442ZM77.0443 16.442H80.8319V20.2296H77.0443V16.442ZM88.4072 16.442H92.1948V20.2296H88.4072V16.442ZM95.9825 16.442H99.7701V20.2296H95.9825V16.442ZM99.7701 16.442H103.558V20.2296H99.7701V16.442ZM103.558 16.442H107.345V20.2296H103.558V16.442ZM111.133 16.442H114.921V20.2296H111.133V16.442ZM5.07935 20.2296H8.86698V24.0173H5.07935V20.2296ZM12.6546 20.2296H16.4422V24.0173H12.6546V20.2296ZM16.4422 20.2296H20.2299V24.0173H16.4422V20.2296ZM20.2299 20.2296H24.0175V24.0173H20.2299V20.2296ZM27.8051 20.2296H31.5928V24.0173H27.8051V20.2296ZM39.168 20.2296H42.9556V24.0173H39.168V20.2296ZM42.9556 20.2296H46.7433V24.0173H42.9556V20.2296ZM46.7433 20.2296H50.5309V24.0173H46.7433V20.2296ZM58.1062 20.2296H61.8938V24.0173H58.1062V20.2296ZM61.8938 20.2296H65.6814V24.0173H61.8938V20.2296ZM77.0443 20.2296H80.8319V24.0173H77.0443V20.2296ZM80.8319 20.2296H84.6196V24.0173H80.8319V20.2296ZM88.4072 20.2296H92.1948V24.0173H88.4072V20.2296ZM95.9825 20.2296H99.7701V24.0173H95.9825V20.2296ZM99.7701 20.2296H103.558V24.0173H99.7701V20.2296ZM103.558 20.2296H107.345V24.0173H103.558V20.2296ZM111.133 20.2296H114.921V24.0173H111.133V20.2296ZM5.07935 24.0173H8.86698V27.8049H5.07935V24.0173ZM27.8051 24.0173H31.5928V27.8049H27.8051V24.0173ZM46.7433 24.0173H50.5309V27.8049H46.7433V24.0173ZM50.5309 24.0173H54.3185V27.8049H50.5309V24.0173ZM58.1062 24.0173H61.8938V27.8049H58.1062V24.0173ZM65.6814 24.0173H69.4691V27.8049H65.6814V24.0173ZM69.4691 24.0173H73.2567V27.8049H69.4691V24.0173ZM80.8319 24.0173H84.6196V27.8049H80.8319V24.0173ZM88.4072 24.0173H92.1948V27.8049H88.4072V24.0173ZM111.133 24.0173H114.921V27.8049H111.133V24.0173ZM5.07935 27.8049H8.86698V31.5925H5.07935V27.8049ZM8.86698 27.8049H12.6546V31.5925H8.86698V27.8049ZM12.6546 27.8049H16.4422V31.5925H12.6546V27.8049ZM16.4422 27.8049H20.2299V31.5925H16.4422V27.8049ZM20.2299 27.8049H24.0175V31.5925H20.2299V27.8049ZM24.0175 27.8049H27.8051V31.5925H24.0175V27.8049ZM27.8051 27.8049H31.5928V31.5925H27.8051V27.8049ZM35.3804 27.8049H39.168V31.5925H35.3804V27.8049ZM42.9556 27.8049H46.7433V31.5925H42.9556V27.8049ZM50.5309 27.8049H54.3185V31.5925H50.5309V27.8049ZM58.1062 27.8049H61.8938V31.5925H58.1062V27.8049ZM65.6814 27.8049H69.4691V31.5925H65.6814V27.8049ZM73.2567 27.8049H77.0443V31.5925H73.2567V27.8049ZM80.8319 27.8049H84.6196V31.5925H80.8319V27.8049ZM88.4072 27.8049H92.1948V31.5925H88.4072V27.8049ZM92.1948 27.8049H95.9825V31.5925H92.1948V27.8049ZM95.9825 27.8049H99.7701V31.5925H95.9825V27.8049ZM99.7701 27.8049H103.558V31.5925H99.7701V27.8049ZM103.558 27.8049H107.345V31.5925H103.558V27.8049ZM107.345 27.8049H111.133V31.5925H107.345V27.8049ZM111.133 27.8049H114.921V31.5925H111.133V27.8049ZM42.9556 31.5925H46.7433V35.3801H42.9556V31.5925ZM54.3185 31.5925H58.1062V35.3801H54.3185V31.5925ZM58.1062 31.5925H61.8938V35.3801H58.1062V31.5925ZM65.6814 31.5925H69.4691V35.3801H65.6814V31.5925ZM77.0443 31.5925H80.8319V35.3801H77.0443V31.5925ZM80.8319 31.5925H84.6196V35.3801H80.8319V31.5925ZM8.86698 35.3801H12.6546V39.1678H8.86698V35.3801ZM27.8051 35.3801H31.5928V39.1678H27.8051V35.3801ZM31.5928 35.3801H35.3804V39.1678H31.5928V35.3801ZM35.3804 35.3801H39.168V39.1678H35.3804V35.3801ZM39.168 35.3801H42.9556V39.1678H39.168V35.3801ZM54.3185 35.3801H58.1062V39.1678H54.3185V35.3801ZM65.6814 35.3801H69.4691V39.1678H65.6814V35.3801ZM73.2567 35.3801H77.0443V39.1678H73.2567V35.3801ZM77.0443 35.3801H80.8319V39.1678H77.0443V35.3801ZM80.8319 35.3801H84.6196V39.1678H80.8319V35.3801ZM84.6196 35.3801H88.4072V39.1678H84.6196V35.3801ZM107.345 35.3801H111.133V39.1678H107.345V35.3801ZM111.133 35.3801H114.921V39.1678H111.133V35.3801ZM5.07935 39.1678H8.86698V42.9554H5.07935V39.1678ZM24.0175 39.1678H27.8051V42.9554H24.0175V39.1678ZM35.3804 39.1678H39.168V42.9554H35.3804V39.1678ZM39.168 39.1678H42.9556V42.9554H39.168V39.1678ZM58.1062 39.1678H61.8938V42.9554H58.1062V39.1678ZM61.8938 39.1678H65.6814V42.9554H61.8938V39.1678ZM65.6814 39.1678H69.4691V42.9554H65.6814V39.1678ZM73.2567 39.1678H77.0443V42.9554H73.2567V39.1678ZM77.0443 39.1678H80.8319V42.9554H77.0443V39.1678ZM95.9825 39.1678H99.7701V42.9554H95.9825V39.1678ZM107.345 39.1678H111.133V42.9554H107.345V39.1678ZM8.86698 42.9554H12.6546V46.743H8.86698V42.9554ZM12.6546 42.9554H16.4422V46.743H12.6546V42.9554ZM16.4422 42.9554H20.2299V46.743H16.4422V42.9554ZM27.8051 42.9554H31.5928V46.743H27.8051V42.9554ZM31.5928 42.9554H35.3804V46.743H31.5928V42.9554ZM35.3804 42.9554H39.168V46.743H35.3804V42.9554ZM39.168 42.9554H42.9556V46.743H39.168V42.9554ZM50.5309 42.9554H54.3185V46.743H50.5309V42.9554ZM54.3185 42.9554H58.1062V46.743H54.3185V42.9554ZM58.1062 42.9554H61.8938V46.743H58.1062V42.9554ZM61.8938 42.9554H65.6814V46.743H61.8938V42.9554ZM65.6814 42.9554H69.4691V46.743H65.6814V42.9554ZM84.6196 42.9554H88.4072V46.743H84.6196V42.9554ZM88.4072 42.9554H92.1948V46.743H88.4072V42.9554ZM92.1948 42.9554H95.9825V46.743H92.1948V42.9554ZM95.9825 42.9554H99.7701V46.743H95.9825V42.9554ZM99.7701 42.9554H103.558V46.743H99.7701V42.9554ZM103.558 42.9554H107.345V46.743H103.558V42.9554ZM8.86698 46.743H12.6546V50.5307H8.86698V46.743ZM20.2299 46.743H24.0175V50.5307H20.2299V46.743ZM31.5928 46.743H35.3804V50.5307H31.5928V46.743ZM35.3804 46.743H39.168V50.5307H35.3804V46.743ZM46.7433 46.743H50.5309V50.5307H46.7433V46.743ZM58.1062 46.743H61.8938V50.5307H58.1062V46.743ZM61.8938 46.743H65.6814V50.5307H61.8938V46.743ZM65.6814 46.743H69.4691V50.5307H65.6814V46.743ZM73.2567 46.743H77.0443V50.5307H73.2567V46.743ZM88.4072 46.743H92.1948V50.5307H88.4072V46.743ZM99.7701 46.743H103.558V50.5307H99.7701V46.743ZM5.07935 50.5307H8.86698V54.3183H5.07935V50.5307ZM8.86698 50.5307H12.6546V54.3183H8.86698V50.5307ZM12.6546 50.5307H16.4422V54.3183H12.6546V50.5307ZM20.2299 50.5307H24.0175V54.3183H20.2299V50.5307ZM27.8051 50.5307H31.5928V54.3183H27.8051V50.5307ZM42.9556 50.5307H46.7433V54.3183H42.9556V50.5307ZM46.7433 50.5307H50.5309V54.3183H46.7433V50.5307ZM61.8938 50.5307H65.6814V54.3183H61.8938V50.5307ZM77.0443 50.5307H80.8319V54.3183H77.0443V50.5307ZM80.8319 50.5307H84.6196V54.3183H80.8319V50.5307ZM84.6196 50.5307H88.4072V54.3183H84.6196V50.5307ZM88.4072 50.5307H92.1948V54.3183H88.4072V50.5307ZM99.7701 50.5307H103.558V54.3183H99.7701V50.5307ZM103.558 50.5307H107.345V54.3183H103.558V50.5307ZM107.345 50.5307H111.133V54.3183H107.345V50.5307ZM12.6546 54.3183H16.4422V58.1059H12.6546V54.3183ZM20.2299 54.3183H24.0175V58.1059H20.2299V54.3183ZM39.168 54.3183H42.9556V58.1059H39.168V54.3183ZM50.5309 54.3183H54.3185V58.1059H50.5309V54.3183ZM58.1062 54.3183H61.8938V58.1059H58.1062V54.3183ZM61.8938 54.3183H65.6814V58.1059H61.8938V54.3183ZM69.4691 54.3183H73.2567V58.1059H69.4691V54.3183ZM77.0443 54.3183H80.8319V58.1059H77.0443V54.3183ZM80.8319 54.3183H84.6196V58.1059H80.8319V54.3183ZM88.4072 54.3183H92.1948V58.1059H88.4072V54.3183ZM95.9825 54.3183H99.7701V58.1059H95.9825V54.3183ZM99.7701 54.3183H103.558V58.1059H99.7701V54.3183ZM5.07935 58.1059H8.86698V61.8936H5.07935V58.1059ZM12.6546 58.1059H16.4422V61.8936H12.6546V58.1059ZM27.8051 58.1059H31.5928V61.8936H27.8051V58.1059ZM31.5928 58.1059H35.3804V61.8936H31.5928V58.1059ZM35.3804 58.1059H39.168V61.8936H35.3804V58.1059ZM39.168 58.1059H42.9556V61.8936H39.168V58.1059ZM46.7433 58.1059H50.5309V61.8936H46.7433V58.1059ZM50.5309 58.1059H54.3185V61.8936H50.5309V58.1059ZM54.3185 58.1059H58.1062V61.8936H54.3185V58.1059ZM61.8938 58.1059H65.6814V61.8936H61.8938V58.1059ZM65.6814 58.1059H69.4691V61.8936H65.6814V58.1059ZM69.4691 58.1059H73.2567V61.8936H69.4691V58.1059ZM80.8319 58.1059H84.6196V61.8936H80.8319V58.1059ZM88.4072 58.1059H92.1948V61.8936H88.4072V58.1059ZM92.1948 58.1059H95.9825V61.8936H92.1948V58.1059ZM5.07935 61.8936H8.86698V65.6812H5.07935V61.8936ZM8.86698 61.8936H12.6546V65.6812H8.86698V61.8936ZM12.6546 61.8936H16.4422V65.6812H12.6546V61.8936ZM20.2299 61.8936H24.0175V65.6812H20.2299V61.8936ZM24.0175 61.8936H27.8051V65.6812H24.0175V61.8936ZM39.168 61.8936H42.9556V65.6812H39.168V61.8936ZM50.5309 61.8936H54.3185V65.6812H50.5309V61.8936ZM54.3185 61.8936H58.1062V65.6812H54.3185V61.8936ZM58.1062 61.8936H61.8938V65.6812H58.1062V61.8936ZM61.8938 61.8936H65.6814V65.6812H61.8938V61.8936ZM65.6814 61.8936H69.4691V65.6812H65.6814V61.8936ZM69.4691 61.8936H73.2567V65.6812H69.4691V61.8936ZM73.2567 61.8936H77.0443V65.6812H73.2567V61.8936ZM80.8319 61.8936H84.6196V65.6812H80.8319V61.8936ZM84.6196 61.8936H88.4072V65.6812H84.6196V61.8936ZM88.4072 61.8936H92.1948V65.6812H88.4072V61.8936ZM95.9825 61.8936H99.7701V65.6812H95.9825V61.8936ZM99.7701 61.8936H103.558V65.6812H99.7701V61.8936ZM103.558 61.8936H107.345V65.6812H103.558V61.8936ZM107.345 61.8936H111.133V65.6812H107.345V61.8936ZM5.07935 65.6812H8.86698V69.4688H5.07935V65.6812ZM16.4422 65.6812H20.2299V69.4688H16.4422V65.6812ZM20.2299 65.6812H24.0175V69.4688H20.2299V65.6812ZM24.0175 65.6812H27.8051V69.4688H24.0175V65.6812ZM27.8051 65.6812H31.5928V69.4688H27.8051V65.6812ZM35.3804 65.6812H39.168V69.4688H35.3804V65.6812ZM46.7433 65.6812H50.5309V69.4688H46.7433V65.6812ZM54.3185 65.6812H58.1062V69.4688H54.3185V65.6812ZM65.6814 65.6812H69.4691V69.4688H65.6814V65.6812ZM77.0443 65.6812H80.8319V69.4688H77.0443V65.6812ZM80.8319 65.6812H84.6196V69.4688H80.8319V65.6812ZM84.6196 65.6812H88.4072V69.4688H84.6196V65.6812ZM95.9825 65.6812H99.7701V69.4688H95.9825V65.6812ZM99.7701 65.6812H103.558V69.4688H99.7701V65.6812ZM103.558 65.6812H107.345V69.4688H103.558V65.6812ZM111.133 65.6812H114.921V69.4688H111.133V65.6812ZM5.07935 69.4688H8.86698V73.2564H5.07935V69.4688ZM8.86698 69.4688H12.6546V73.2564H8.86698V69.4688ZM12.6546 69.4688H16.4422V73.2564H12.6546V69.4688ZM20.2299 69.4688H24.0175V73.2564H20.2299V69.4688ZM24.0175 69.4688H27.8051V73.2564H24.0175V69.4688ZM31.5928 69.4688H35.3804V73.2564H31.5928V69.4688ZM42.9556 69.4688H46.7433V73.2564H42.9556V69.4688ZM50.5309 69.4688H54.3185V73.2564H50.5309V69.4688ZM73.2567 69.4688H77.0443V73.2564H73.2567V69.4688ZM77.0443 69.4688H80.8319V73.2564H77.0443V69.4688ZM80.8319 69.4688H84.6196V73.2564H80.8319V69.4688ZM84.6196 69.4688H88.4072V73.2564H84.6196V69.4688ZM88.4072 69.4688H92.1948V73.2564H88.4072V69.4688ZM92.1948 69.4688H95.9825V73.2564H92.1948V69.4688ZM95.9825 69.4688H99.7701V73.2564H95.9825V69.4688ZM103.558 69.4688H107.345V73.2564H103.558V69.4688ZM111.133 69.4688H114.921V73.2564H111.133V69.4688ZM5.07935 73.2564H8.86698V77.0441H5.07935V73.2564ZM8.86698 73.2564H12.6546V77.0441H8.86698V73.2564ZM16.4422 73.2564H20.2299V77.0441H16.4422V73.2564ZM20.2299 73.2564H24.0175V77.0441H20.2299V73.2564ZM27.8051 73.2564H31.5928V77.0441H27.8051V73.2564ZM31.5928 73.2564H35.3804V77.0441H31.5928V73.2564ZM35.3804 73.2564H39.168V77.0441H35.3804V73.2564ZM46.7433 73.2564H50.5309V77.0441H46.7433V73.2564ZM54.3185 73.2564H58.1062V77.0441H54.3185V73.2564ZM61.8938 73.2564H65.6814V77.0441H61.8938V73.2564ZM69.4691 73.2564H73.2567V77.0441H69.4691V73.2564ZM77.0443 73.2564H80.8319V77.0441H77.0443V73.2564ZM92.1948 73.2564H95.9825V77.0441H92.1948V73.2564ZM95.9825 73.2564H99.7701V77.0441H95.9825V73.2564ZM103.558 73.2564H107.345V77.0441H103.558V73.2564ZM111.133 73.2564H114.921V77.0441H111.133V73.2564ZM5.07935 77.0441H8.86698V80.8317H5.07935V77.0441ZM12.6546 77.0441H16.4422V80.8317H12.6546V77.0441ZM20.2299 77.0441H24.0175V80.8317H20.2299V77.0441ZM31.5928 77.0441H35.3804V80.8317H31.5928V77.0441ZM35.3804 77.0441H39.168V80.8317H35.3804V77.0441ZM46.7433 77.0441H50.5309V80.8317H46.7433V77.0441ZM50.5309 77.0441H54.3185V80.8317H50.5309V77.0441ZM58.1062 77.0441H61.8938V80.8317H58.1062V77.0441ZM80.8319 77.0441H84.6196V80.8317H80.8319V77.0441ZM84.6196 77.0441H88.4072V80.8317H84.6196V77.0441ZM88.4072 77.0441H92.1948V80.8317H88.4072V77.0441ZM92.1948 77.0441H95.9825V80.8317H92.1948V77.0441ZM99.7701 77.0441H103.558V80.8317H99.7701V77.0441ZM5.07935 80.8317H8.86698V84.6193H5.07935V80.8317ZM16.4422 80.8317H20.2299V84.6193H16.4422V80.8317ZM20.2299 80.8317H24.0175V84.6193H20.2299V80.8317ZM24.0175 80.8317H27.8051V84.6193H24.0175V80.8317ZM27.8051 80.8317H31.5928V84.6193H27.8051V80.8317ZM31.5928 80.8317H35.3804V84.6193H31.5928V80.8317ZM35.3804 80.8317H39.168V84.6193H35.3804V80.8317ZM58.1062 80.8317H61.8938V84.6193H58.1062V80.8317ZM61.8938 80.8317H65.6814V84.6193H61.8938V80.8317ZM69.4691 80.8317H73.2567V84.6193H69.4691V80.8317ZM73.2567 80.8317H77.0443V84.6193H73.2567V80.8317ZM80.8319 80.8317H84.6196V84.6193H80.8319V80.8317ZM84.6196 80.8317H88.4072V84.6193H84.6196V80.8317ZM88.4072 80.8317H92.1948V84.6193H88.4072V80.8317ZM92.1948 80.8317H95.9825V84.6193H92.1948V80.8317ZM95.9825 80.8317H99.7701V84.6193H95.9825V80.8317ZM99.7701 80.8317H103.558V84.6193H99.7701V80.8317ZM111.133 80.8317H114.921V84.6193H111.133V80.8317ZM35.3804 84.6193H39.168V88.407H35.3804V84.6193ZM42.9556 84.6193H46.7433V88.407H42.9556V84.6193ZM54.3185 84.6193H58.1062V88.407H54.3185V84.6193ZM61.8938 84.6193H65.6814V88.407H61.8938V84.6193ZM73.2567 84.6193H77.0443V88.407H73.2567V84.6193ZM77.0443 84.6193H80.8319V88.407H77.0443V84.6193ZM80.8319 84.6193H84.6196V88.407H80.8319V84.6193ZM95.9825 84.6193H99.7701V88.407H95.9825V84.6193ZM99.7701 84.6193H103.558V88.407H99.7701V84.6193ZM103.558 84.6193H107.345V88.407H103.558V84.6193ZM5.07935 88.407H8.86698V92.1946H5.07935V88.407ZM8.86698 88.407H12.6546V92.1946H8.86698V88.407ZM12.6546 88.407H16.4422V92.1946H12.6546V88.407ZM16.4422 88.407H20.2299V92.1946H16.4422V88.407ZM20.2299 88.407H24.0175V92.1946H20.2299V88.407ZM24.0175 88.407H27.8051V92.1946H24.0175V88.407ZM27.8051 88.407H31.5928V92.1946H27.8051V88.407ZM35.3804 88.407H39.168V92.1946H35.3804V88.407ZM42.9556 88.407H46.7433V92.1946H42.9556V88.407ZM50.5309 88.407H54.3185V92.1946H50.5309V88.407ZM54.3185 88.407H58.1062V92.1946H54.3185V88.407ZM61.8938 88.407H65.6814V92.1946H61.8938V88.407ZM73.2567 88.407H77.0443V92.1946H73.2567V88.407ZM77.0443 88.407H80.8319V92.1946H77.0443V88.407ZM80.8319 88.407H84.6196V92.1946H80.8319V88.407ZM88.4072 88.407H92.1948V92.1946H88.4072V88.407ZM95.9825 88.407H99.7701V92.1946H95.9825V88.407ZM107.345 88.407H111.133V92.1946H107.345V88.407ZM5.07935 92.1946H8.86698V95.9822H5.07935V92.1946ZM27.8051 92.1946H31.5928V95.9822H27.8051V92.1946ZM39.168 92.1946H42.9556V95.9822H39.168V92.1946ZM61.8938 92.1946H65.6814V95.9822H61.8938V92.1946ZM77.0443 92.1946H80.8319V95.9822H77.0443V92.1946ZM80.8319 92.1946H84.6196V95.9822H80.8319V92.1946ZM95.9825 92.1946H99.7701V95.9822H95.9825V92.1946ZM99.7701 92.1946H103.558V95.9822H99.7701V92.1946ZM107.345 92.1946H111.133V95.9822H107.345V92.1946ZM5.07935 95.9822H8.86698V99.7699H5.07935V95.9822ZM12.6546 95.9822H16.4422V99.7699H12.6546V95.9822ZM16.4422 95.9822H20.2299V99.7699H16.4422V95.9822ZM20.2299 95.9822H24.0175V99.7699H20.2299V95.9822ZM27.8051 95.9822H31.5928V99.7699H27.8051V95.9822ZM42.9556 95.9822H46.7433V99.7699H42.9556V95.9822ZM50.5309 95.9822H54.3185V99.7699H50.5309V95.9822ZM58.1062 95.9822H61.8938V99.7699H58.1062V95.9822ZM61.8938 95.9822H65.6814V99.7699H61.8938V95.9822ZM65.6814 95.9822H69.4691V99.7699H65.6814V95.9822ZM69.4691 95.9822H73.2567V99.7699H69.4691V95.9822ZM73.2567 95.9822H77.0443V99.7699H73.2567V95.9822ZM77.0443 95.9822H80.8319V99.7699H77.0443V95.9822ZM80.8319 95.9822H84.6196V99.7699H80.8319V95.9822ZM84.6196 95.9822H88.4072V99.7699H84.6196V95.9822ZM88.4072 95.9822H92.1948V99.7699H88.4072V95.9822ZM92.1948 95.9822H95.9825V99.7699H92.1948V95.9822ZM95.9825 95.9822H99.7701V99.7699H95.9825V95.9822ZM111.133 95.9822H114.921V99.7699H111.133V95.9822ZM5.07935 99.7699H8.86698V103.557H5.07935V99.7699ZM12.6546 99.7699H16.4422V103.557H12.6546V99.7699ZM16.4422 99.7699H20.2299V103.557H16.4422V99.7699ZM20.2299 99.7699H24.0175V103.557H20.2299V99.7699ZM27.8051 99.7699H31.5928V103.557H27.8051V99.7699ZM39.168 99.7699H42.9556V103.557H39.168V99.7699ZM54.3185 99.7699H58.1062V103.557H54.3185V99.7699ZM58.1062 99.7699H61.8938V103.557H58.1062V99.7699ZM65.6814 99.7699H69.4691V103.557H65.6814V99.7699ZM69.4691 99.7699H73.2567V103.557H69.4691V99.7699ZM77.0443 99.7699H80.8319V103.557H77.0443V99.7699ZM80.8319 99.7699H84.6196V103.557H80.8319V99.7699ZM92.1948 99.7699H95.9825V103.557H92.1948V99.7699ZM103.558 99.7699H107.345V103.557H103.558V99.7699ZM107.345 99.7699H111.133V103.557H107.345V99.7699ZM5.07935 103.557H8.86698V107.345H5.07935V103.557ZM12.6546 103.557H16.4422V107.345H12.6546V103.557ZM16.4422 103.557H20.2299V107.345H16.4422V103.557ZM20.2299 103.557H24.0175V107.345H20.2299V103.557ZM27.8051 103.557H31.5928V107.345H27.8051V103.557ZM42.9556 103.557H46.7433V107.345H42.9556V103.557ZM58.1062 103.557H61.8938V107.345H58.1062V103.557ZM69.4691 103.557H73.2567V107.345H69.4691V103.557ZM77.0443 103.557H80.8319V107.345H77.0443V103.557ZM80.8319 103.557H84.6196V107.345H80.8319V103.557ZM84.6196 103.557H88.4072V107.345H84.6196V103.557ZM88.4072 103.557H92.1948V107.345H88.4072V103.557ZM92.1948 103.557H95.9825V107.345H92.1948V103.557ZM95.9825 103.557H99.7701V107.345H95.9825V103.557ZM103.558 103.557H107.345V107.345H103.558V103.557ZM107.345 103.557H111.133V107.345H107.345V103.557ZM5.07935 107.345H8.86698V111.133H5.07935V107.345ZM27.8051 107.345H31.5928V111.133H27.8051V107.345ZM35.3804 107.345H39.168V111.133H35.3804V107.345ZM39.168 107.345H42.9556V111.133H39.168V107.345ZM42.9556 107.345H46.7433V111.133H42.9556V107.345ZM50.5309 107.345H54.3185V111.133H50.5309V107.345ZM54.3185 107.345H58.1062V111.133H54.3185V107.345ZM61.8938 107.345H65.6814V111.133H61.8938V107.345ZM73.2567 107.345H77.0443V111.133H73.2567V107.345ZM84.6196 107.345H88.4072V111.133H84.6196V107.345ZM88.4072 107.345H92.1948V111.133H88.4072V107.345ZM95.9825 107.345H99.7701V111.133H95.9825V107.345ZM99.7701 107.345H103.558V111.133H99.7701V107.345ZM103.558 107.345H107.345V111.133H103.558V107.345ZM111.133 107.345H114.921V111.133H111.133V107.345ZM5.07935 111.133H8.86698V114.92H5.07935V111.133ZM8.86698 111.133H12.6546V114.92H8.86698V111.133ZM12.6546 111.133H16.4422V114.92H12.6546V111.133ZM16.4422 111.133H20.2299V114.92H16.4422V111.133ZM20.2299 111.133H24.0175V114.92H20.2299V111.133ZM24.0175 111.133H27.8051V114.92H24.0175V111.133ZM27.8051 111.133H31.5928V114.92H27.8051V111.133ZM39.168 111.133H42.9556V114.92H39.168V111.133ZM54.3185 111.133H58.1062V114.92H54.3185V111.133ZM58.1062 111.133H61.8938V114.92H58.1062V111.133ZM69.4691 111.133H73.2567V114.92H69.4691V111.133ZM77.0443 111.133H80.8319V114.92H77.0443V111.133ZM88.4072 111.133H92.1948V114.92H88.4072V111.133ZM95.9825 111.133H99.7701V114.92H95.9825V111.133ZM103.558 111.133H107.345V114.92H103.558V111.133Z" fill="black" stroke="black"/>
</svg>
